<?xml version="1.0" standalone="no"?>
<!DOCTYPE svg PUBLIC "-//W3C//DTD SVG 1.1//EN" "http://www.w3.org/Graphics/SVG/1.1/DTD/svg11.dtd" >
<svg xmlns="http://www.w3.org/2000/svg" xmlns:xlink="http://www.w3.org/1999/xlink" version="1.1">
<metadata>
Created by FontForge 20170731 at Tue Oct 15 03:14:41 2019
 By Aleksey,,,
Pavel Larin
</metadata>
<defs>
<font id="PrimaDonna-Regular" horiz-adv-x="0" >
  <font-face 
    font-family="Prima Donna"
    font-weight="400"
    font-stretch="normal"
    units-per-em="1000"
    panose-1="0 0 5 0 0 0 0 0 0 0"
    ascent="800"
    descent="-200"
    x-height="218"
    cap-height="729"
    bbox="-437 -600 1107 1000"
    underline-thickness="50"
    underline-position="-150"
    unicode-range="U+0020-E02C"
  />
<missing-glyph horiz-adv-x="800" 
d="M656 -600h-507v1600h507v-1600zM269 893v-53h104v-59h-106v-53h266v53h-106v59h106v53h-264zM267 686v-166h266v54h-106v112h-160zM373 574h-53v58h53v-58zM267 477v-53h106v-59h-106v-53h160v112h106v53h-266zM480 381v-106h-213v-54h266v160h-53zM373 186v-90h54v37h53
v-75h-160v128h-53v-181h266v181h-160zM267 -91v-181h266v181h-266zM480 -219h-160v75h160v-75zM267 -309v-53h112l-112 -75v-53h266v53h-163l112 75h51v53h-266z" />
    <glyph glyph-name=".notdef" horiz-adv-x="800" 
d="M656 -600h-507v1600h507v-1600zM269 893v-53h104v-59h-106v-53h266v53h-106v59h106v53h-264zM267 686v-166h266v54h-106v112h-160zM373 574h-53v58h53v-58zM267 477v-53h106v-59h-106v-53h160v112h106v53h-266zM480 381v-106h-213v-54h266v160h-53zM373 186v-90h54v37h53
v-75h-160v128h-53v-181h266v181h-160zM267 -91v-181h266v181h-266zM480 -219h-160v75h160v-75zM267 -309v-53h112l-112 -75v-53h266v53h-163l112 75h51v53h-266z" />
    <glyph glyph-name=".null" 
 />
    <glyph glyph-name="nonmarkingreturn" horiz-adv-x="333" 
 />
    <glyph glyph-name="space" unicode=" " horiz-adv-x="300" 
 />
    <glyph glyph-name="exclam" unicode="!" horiz-adv-x="317" 
d="M103 82q-4 0 -8 4.5t-2 8.5q18 81 64 213t86 208q3 7 20 34q2 3 6 3q5 0 7 -3t-1 -8q-40 -65 -91.5 -208t-72.5 -242q-1 -10 -8 -10zM76 6q-6 6 -6 14t6 14t15 6q8 0 14 -6t6 -14t-6 -14t-14 -6q-9 0 -15 6z" />
    <glyph glyph-name="quotedbl" unicode="&#x22;" horiz-adv-x="222" 
d="M72.5 365.5q-3.5 3.5 -2.5 9.5q11 62 21 101q1 7 6 10.5t10 3.5q6 0 9.5 -3.5t1.5 -9.5q-27 -69 -33 -109q-1 -6 -6 -6q-3 0 -6.5 3.5zM135.5 365.5q-3.5 3.5 -2.5 9.5l21 101q1 7 6 10.5t10 3.5q6 0 9.5 -3.5t1.5 -9.5q-8 -22 -18.5 -54.5t-14.5 -54.5q-1 -6 -6 -6
q-3 0 -6.5 3.5z" />
    <glyph glyph-name="numbersign" unicode="#" horiz-adv-x="668" 
d="M156.5 -39.5q-2.5 3.5 -0.5 6.5q32 84 43 120q-80 2 -121 6h-1q-7 0 -7 5q0 3 2.5 5.5t5.5 2.5q83 -5 127 -5q2 7 14 43q38 120 37 117q-50 1 -123 6h-1q-7 0 -7 5q0 3 2.5 5.5t5.5 1.5q37 -2 128 -4l47 151q3 8 8 8q2 0 5 -4t3 -9q-11 -31 -24 -74l-23 -72h171
q9 26 25 78q7 25 23 73q3 8 7 8q3 0 5.5 -4t2.5 -9l-46 -145l152 1q11 0 11 -6q0 -3 -3.5 -6t-6.5 -5q-49 -1 -159 -1q-11 -37 -45 -136l-8 -23q53 1 155 1h2q4 0 6.5 -1t2.5 -3q0 -3 -3 -6t-7 -5h-160l-14 -39q-27 -74 -32 -84q-1 -6 -6 -6q-3 0 -5.5 3.5t-1.5 6.5
q19 45 43 119q-119 0 -172 1q-25 -78 -46 -124q-1 -6 -5 -6t-6.5 3.5zM391 100l52 159h-1q-117 0 -170 1l-19 -59q-24 -75 -34 -101h172z" />
    <glyph glyph-name="dollar" unicode="$" horiz-adv-x="584" 
d="M234.5 -76q-2.5 2 -1.5 4q5 22 7 29q2 14 4.5 24.5t4.5 17.5h-5q-42 0 -71 24q-3 3 -3 5q0 13 15 11q21 -29 62 -29h5l36 174h2q-28 14 -77 28q-47 15 -75.5 27t-48 33.5t-19.5 54.5q0 13 3 28q13 59 62 111.5t115 90.5t133 58h-1q4 22 7 32q1 7 4 21.5t4 24.5t8 10
q8 0 8 -9q-2 -12 -16 -74q45 12 80 12q33 0 50 -11t17 -31q0 -8 -1 -12q-5 -26 -41 -42l-6 -1q-4 0 -4 2t4 5q9 5 17.5 15t9.5 20q2 10 2 13q0 34 -53 34q-35 0 -78 -13h2l-90 -416h-2q65 -31 65 -83q0 -43 -30 -74t-77 -38h2q-12 -50 -16 -73q-2 -5 -7 -5q-4 0 -6.5 2z
M379 607q-61 -21 -121.5 -58t-105 -85.5t-56.5 -101.5q-3 -13 -3 -25q0 -31 19 -51.5t46.5 -33.5t72.5 -28q37 -12 60 -22zM316 37q22 19 28 51q3 14 3 24q0 43 -45 66l-35 -166q27 6 49 25z" />
    <glyph glyph-name="percent" unicode="%" horiz-adv-x="572" 
d="M79 -167q-4 0 -6 2t-2 4q-1 5 -1 15q0 19 6 37q28 94 58 173q42 110 94 222q79 173 244 338q2 2 7 6t8.5 9t4.5 13q-46 -8 -121 -32q-18 -6 -54 -20l-29 -11q-5 -2 -12 -9q1 -6 3.5 -16.5t2.5 -18.5q0 -14 -6 -22q-4 -6 -7.5 -8.5t-10.5 -1.5q-1 6 4 16.5t5 15.5
q0 8 -5 13l-7 -5q1 2 -13 -36q-15 -40 -59 -69q-17 -11 -36 -11q-10 0 -20 3q-25 8 -25 31q0 16 9 38q21 46 78 75q18 9 37 9q9 0 13 -1q5 -1 14 -1q11 0 20 4q41 19 83.5 31.5t106.5 28.5l54 13l6 1q8 0 9 -6v-1q0 -2 -5 -10q-3 -5 -12 -12q-174 -156 -278 -382
q-70 -150 -119 -290q-16 -46 -24 -74.5t-11 -58.5l-2 -2h-2zM171 457q39 26 51 58l25 70q-6 0 -10.5 1t-7.5 0q-73 -20 -105 -96q-3 -7 -3 -16q0 -5 2 -15q2 -8 8.5 -12t14.5 -1q20 8 25 11zM244.5 -50.5q-10.5 10.5 -10.5 27.5q0 25 9 47t27 50q10 15 30 33q8 5 20 5
q2 0 4.5 -2t2.5 -4v-2q0 -6 -2 -10q-1 -3 -6 -3q-12 1 -17.5 -4.5t-13.5 -21.5l28 -25q18 -16 18 -37q0 -15 -12 -34q-8 -14 -21 -22t-29 -8q-17 0 -27.5 10.5zM312 -6q1 4 1 11q0 18 -8 29q-4 6 -9 11t-11 6h-1q-6 0 -9 -4t-4.5 -8.5t-2.5 -6.5q-7 -16 -12 -35
q-2 -12 -2 -20l1 -14q1 -7 5 -10.5t9 -3.5q6 0 11 4q20 10 32 41z" />
    <glyph glyph-name="ampersand" unicode="&#x26;" horiz-adv-x="809" 
d="M80 -21q0 103 69 222.5t169 248.5q44 195 115 305q25 41 51 61.5t48 20.5q16 0 26 -12t10 -33q0 -54 -58 -136q-22 -30 -36.5 -49t-33.5 -42q-15 -19 -37.5 -46.5t-54.5 -67.5q-9 -51 -9 -106q0 -87 21.5 -177t59.5 -168q48 69 93 151t98 186q7 15 20 31q0 1 7 1
q2 -1 3.5 -3t1.5 -4q-2 -7 -8 -21q-11 -19 -63 -116q-50 -94 -78 -143.5t-60 -94.5q35 -52 73.5 -78.5t76.5 -26.5q45 0 87.5 35.5t76.5 102.5q6 11 13 19q0 1 5 1q1 -2 2.5 -6t0.5 -5q-28 -78 -78.5 -120t-108.5 -42q-45 0 -87.5 25.5t-74.5 73.5q-44 -60 -102 -93
t-113 -33q-50 0 -84 29t-40 84q-1 8 -1 26zM413.5 563.5q41.5 52.5 76.5 101.5q28 39 41.5 71t13.5 53q0 28 -19 28q-14 0 -33 -17.5t-39 -51.5q-41 -70 -61.5 -126.5t-37.5 -129.5q17 19 58.5 71.5zM314 341q0 25 4 75q-23 -31 -24 -35q-77 -98 -133.5 -206t-59.5 -184
q-4 -67 25 -101t78 -34t104.5 33.5t96.5 91.5q-91 180 -91 360z" />
    <glyph glyph-name="quotesingle" unicode="'" horiz-adv-x="159" 
d="M72.5 367.5q-3.5 3.5 -2.5 9.5l21 101q1 7 6 10.5t10 3.5q6 0 9.5 -3.5t1.5 -9.5q-8 -22 -18.5 -54.5t-14.5 -54.5q-1 -6 -6 -6q-3 0 -6.5 3.5z" />
    <glyph glyph-name="parenleft" unicode="(" horiz-adv-x="206" 
d="M123 -121q-3 1 -4 3q-9 14 -12.5 29t-6.5 39q-11 84 -17 141.5t-8 114.5q0 11 -2 33q-3 35 -3 69q0 106 30 208q6 20 28 71q4 7 20 26q5 5 11 5q2 0 4.5 -1.5t2.5 -3.5v-4q0 -8 -2 -10q-13 -7 -20 -18t-15 -30q-23 -59 -32 -116q-12 -70 -12 -142q0 -33 3 -66l17 -180
q1 -8 4 -43t9 -64.5t15 -53.5q1 -1 -1 -4t-4 -3q-2 -1 -5 0z" />
    <glyph glyph-name="parenright" unicode=")" horiz-adv-x="206" 
d="M104 -118q-2 3 -1 4q12 31 17 63t7.5 61t3.5 37l17 180q3 33 3 66q0 72 -12 142q-9 57 -32 116q-8 19 -15 30t-20 18q-1 1 -2 5.5t0 8.5q2 5 8 5q7 0 10 -5q16 -19 20 -26q22 -51 28 -71q30 -102 30 -208q0 -34 -3 -69q-2 -22 -2 -33q-2 -57 -8 -114.5t-17 -141.5
q-3 -24 -6.5 -39t-12.5 -29q-1 -2 -4 -3t-5 0q-2 0 -4 3z" />
    <glyph glyph-name="asterisk" unicode="*" horiz-adv-x="413" 
d="M153 541q-2 10 -1 15q2 11 4.5 19t4.5 14l6 22q2 6 4.5 12.5t5.5 15.5q1 4 6 16t4 17q-4 -3 -15.5 -14t-16.5 -16l-34 -29l-34 -30q-4 -6 -9 -7q-1 -1 -3 -0.5t-3 1.5l-2 7q3 4 8 11.5t10 11.5q18 18 37 34l27 24q2 2 26 20q-9 1 -33 1l-46 -2q-1 0 -4 -1t-5 0.5t-3 4.5
q4 4 5 4q8 1 19 2t26 1q15 1 45 1q6 1 9.5 6t1.5 11q-1 7 -4.5 15.5t-4.5 12.5q-11 33 -13 71q0 5 1 8l2 6q1 2 3 3t3 0q6 0 6 -3q3 -6 5 -18q3 -26 9 -52q2 -7 5 -17t5 -16q7 23 9 26q18 43 26 59q8 18 21 37q2 3 9 3q3 1 5 -3.5t0 -8.5q-4 -8 -9.5 -20t-11.5 -28l-28 -56
q12 9 19 14t10 8q29 22 55 43l17 13l12 9q8 0 13 -4q1 -1 1 -4.5t-1 -5.5l-28 -25q-27 -20 -81 -62q-15 -12 -17 -15q-2 -2 72 -8q69 -4 70 -7l-146 -2q-2 -3 -2 -8t4 -11.5t5 -8.5l47 -86q2 -5 5.5 -9.5t6.5 -10.5q-18 12 -25.5 20.5t-20.5 32.5q-28 45 -40 70l-6 -27
l-33 -96l-6 -13l-3 -1q-6 2 -6 3z" />
    <glyph glyph-name="plus" unicode="+" horiz-adv-x="404" 
d="M210 95q-2 3 -3 6q0 7 2 19l13 64l13 61l-2 8q-12 3 -17 1l-36 -7q-43 -7 -68 -14q-9 -2 -20 -8t-16 -9q-4 0 -6 2q0 9 1 10q11 8 22 12l88 20q20 4 30 5l20 3q11 2 14 12q10 28 13 42q13 55 50 141q2 3 3.5 6.5t4.5 7.5q9 11 17 8q5 -1 6 -5.5t-2 -9.5q-21 -38 -40 -104
q-10 -32 -16 -48l-6 -19q-2 -12 -2 -14q0 -7 5 -9.5t18 -3.5l68 -1q-8 -5 -23 -5q-8 0 -30.5 -0.5t-43.5 -7.5q-2 -4 -5.5 -11.5t-4.5 -13.5q-9 -32 -19 -77l-8 -33l-5 -22q-2 -11 -10 -10q-3 1 -5 4z" />
    <glyph glyph-name="comma" unicode="," horiz-adv-x="156" 
d="M85 -9q0 4 -2 12t-2 10q0 13 13 19q10 4 16 -1.5t6 -17.5q0 -16 -10 -35q-9 -14 -18.5 -20.5t-14.5 -6t-2 5.5q14 17 14 34z" />
    <glyph glyph-name="hyphen" unicode="-" horiz-adv-x="477" 
d="M70 146q1 1 1 3t1 1q13 9 19 10q8 1 36 4t52 3q58 2 252 2q2 0 4 -2.5t2 -4.5l-7 -7q-2 -2 -6 -2l-108 1q-117 0 -181 -6q-13 -1 -29 -6l-20 -4h-10z" />
    <glyph glyph-name="period" unicode="." horiz-adv-x="151" 
d="M76 6q-6 6 -6 14t6 14t15 6q8 0 14 -6t6 -14t-6 -14t-14 -6q-9 0 -15 6z" />
    <glyph glyph-name="slash" unicode="/" horiz-adv-x="523" 
d="M70 -223q1 4 2.5 12.5t3.5 13.5q37 88 46 109q74 181 131 306.5t124 244.5q28 50 41 75l30 56q6 11 23 30q2 3 9 -2q1 0 2 -1.5t1 -2.5q-1 -1 -0.5 -2.5t-0.5 -2.5q-16 -18 -29 -43t-17 -32q-5 -9 -31 -58l-39 -73q-50 -91 -95 -189t-95 -219l-87 -208q-2 -5 -6 -10
t-6 -8q0 -1 -4 -1q-3 3 -3 5z" />
    <glyph glyph-name="zero" unicode="0" horiz-adv-x="292" 
d="M32 9q-12 9 -16 25q-6 20 -6 40q0 2 6 43q18 101 70 197.5t116 140.5q17 12 23 23q2 4 6.5 4.5t6.5 -2.5q4 3 8 3t6 -2.5t2 -5.5q0 -9 -9 -15q27 -81 27 -156q0 -170 -141 -275q-20 -14 -36.5 -21.5t-33.5 -7.5t-29 9zM126 43q134 102 134 257q0 62 -20 125l-10 29
q-66 -27 -121.5 -124t-78.5 -208q-5 -25 -5 -45q0 -16 3 -33q4 -15 15 -22t28 -5q26 4 55 26z" />
    <glyph glyph-name="one" unicode="1" horiz-adv-x="242" 
d="M12 -9q-2 2 -2 4t1.5 4.5t3.5 4.5q8 5 21 12.5t20 12.5l63 214q-8 -6 -14 -6q-4 0 -7.5 2t-2.5 4q2 4 6.5 10t7.5 11q29 44 42.5 67t22.5 50q28 82 44 82q2 0 3 -2t1 -4q0 -5 -3 -11l-17 -43q-57 -120 -109 -296l-22 -77q6 2 18 2q10 0 18 -3t8 -7q0 -3 -6 -6l-25 -5
l-27 -7l-41 -14q-2 -1 -4 1z" />
    <glyph glyph-name="two" unicode="2" horiz-adv-x="216" 
d="M10 24q0 12 5 22q7 15 35 69l11 20l24 44q45 79 70 134q26 54 26 91q0 30 -16 30q-13 0 -37 -28q-26 -29 -46 -66.5t-20 -63.5q0 -27 24 -33q1 0 1 -3t-1 -5q-6 -6 -11 -6h-3q-13 0 -20 13q-5 9 -5 25q0 32 23 77t54 78q29 33 48 33q12 0 18 -12t6 -32q0 -43 -22 -93
q-30 -65 -82 -157l-54 -100q-6 -11 -8 -22q-2 -8 -2 -10q0 -11 15 -11q8 0 14 1t10 2q40 4 70 4q34 0 34 -7q0 -15 -22 -15q-18 3 -38 3q-26 0 -52 -3l-26 -1q-23 1 -23 22z" />
    <glyph glyph-name="three" unicode="3" horiz-adv-x="252" 
d="M53 6q-19 0 -31 9t-12 22q0 10 7.5 19t22.5 15q7 0 7 -6q0 -3 -2 -5.5t-6 -2.5q-16 -12 -16 -21q0 -7 8 -11t21 -4q17 0 34 7q35 15 61.5 48t40.5 72.5t14 73.5q0 43 -22 58q-15 10 -30 10q-12 0 -22 -5q-12 -5 -22 -8q-6 0 -5 4.5t2 6.5q7 7 13 12.5t10 9.5
q37 37 57.5 63t29.5 58q1 3 1 9q0 17 -18 17q-9 0 -21 -6q-21 -12 -36.5 -30t-30.5 -44q-3 -6 -3 -10q0 -9 11 -15q3 -1 3 -4q0 -4 -5 -7t-10 -3q-8 0 -12 6q-6 8 -6 16t5 18q27 50 65 78q14 9 27 15q12 5 20 5q14 0 21.5 -8t7.5 -23q0 -38 -56 -104q-5 -5 -24 -31
q9 -1 18 -4q25 -10 36.5 -32t11.5 -52q0 -38 -17.5 -81t-46.5 -77.5t-61 -48.5q-22 -9 -40 -9z" />
    <glyph glyph-name="four" unicode="4" horiz-adv-x="307" 
d="M119 -12q-3 1 -4 3v1q0 5 2 9l44 151q-27 1 -96 1q-29 0 -42 9.5t-13 28.5q0 14 10 42q8 22 40 86l64 130q2 5 6.5 8.5t5.5 1.5q4 -8 2 -13q-20 -40 -30 -62q-25 -53 -54 -110q-26 -54 -26 -76t19 -25q16 -3 41 -3q40 0 80 5l12 39q26 86 50 154q27 79 50 94q7 4 7 -6
t-6 -26.5t-15 -25.5q-12 -15 -23 -43q-22 -67 -56.5 -177.5t-58.5 -191.5q-1 -2 -2.5 -3.5t-2.5 -1.5t-4 1z" />
    <glyph glyph-name="five" unicode="5" horiz-adv-x="310" 
d="M191 167q0 46 -20 75.5t-55 29.5q-27 0 -53 -26q-1 -1 -4 -2t-5 0q-2 0 -3.5 2.5t-0.5 4.5q1 3 9 28l55 148q5 13 12 27q3 7 10.5 12t14.5 5q57 -3 91 -3q36 0 45 3q1 0 2 -1t1 -2q0 -5 -4 -9q-11 -8 -36 -8q-17 0 -26 1l-32 1q-11 0 -33 -2q-7 -1 -14 -5.5t-11 -11.5
l-10 -23q-39 -92 -48 -132q4 1 14.5 4.5t16.5 3.5q5 1 14 1q41 0 64.5 -32t23.5 -81q0 -61 -32 -118q-20 -36 -45.5 -52.5t-51.5 -16.5q-28 0 -49 17.5t-21 41.5q0 23 21 42q5 2 6 0q3 -1 3 -3.5t-2 -4.5q-13 -19 -13 -35q0 -20 16.5 -32t40.5 -12q21 0 41.5 11t33.5 34
q34 57 34 120z" />
    <glyph glyph-name="six" unicode="6" horiz-adv-x="228" 
d="M10 63q0 79 46 190t123 210l12 15q4 4 9 4t7.5 -4t-0.5 -7q-44 -52 -87 -130.5t-69.5 -158.5t-22.5 -136q1 -29 25 -29q20 0 42 20.5t22 42.5q0 14 -12 26q-10 9 -27 19q-8 5 -8 11q0 3 5 4t12 0q4 -1 12.5 -4t13.5 -9q21 -21 21 -47q0 -21 -12.5 -39.5t-31.5 -29.5
t-37 -11q-17 0 -28 10.5t-14 31.5q-1 7 -1 21z" />
    <glyph glyph-name="seven" unicode="7" horiz-adv-x="230" 
d="M15.5 4q-3.5 0 -3.5 2q-3 6 -1 15q15 65 27 101t30.5 74.5t69.5 136.5q24 46 45 93q4 8 7 22v3q0 5 -4 9.5t-9 3.5q-29 -5 -48.5 -11t-36.5 -21q-6 -5 -13 -5q-5 0 -7.5 3.5t0.5 8.5q2 4 9 8q50 28 104 33q11 1 18 -4.5t7 -15.5q0 -12 -12 -36l-45 -90
q-55 -110 -80.5 -166.5t-32.5 -98.5q-1 -3 -1 -9l1 -21q0 -23 -20 -34q-1 -1 -4.5 -1z" />
    <glyph glyph-name="eight" unicode="8" horiz-adv-x="273" 
d="M10 37q0 25 20 65q18 34 28 51l11 19l26 46q0 46 16.5 95.5t45.5 85.5q16 21 43 48q23 19 38 14q15 -4 15 -25q0 -27 -17 -56q-22 -38 -62 -81q-9 -9 -53 -64q3 -22 3 -70q0 -64 -4 -92q-6 -31 -29.5 -53t-47.5 -22q-13 0 -22 9q-11 11 -11 30zM168 316.5
q28 32.5 42 51.5q12 17 18.5 34t6.5 25q-1 7 -3 10.5t-7 3.5q-12 0 -36 -24q-34 -38 -48.5 -71.5t-19.5 -79.5q19 18 47 50.5zM100 66q6 27 6 69q0 21 -1 37t-3 16q-3 -1 -17 -22q-29 -39 -46 -80q-11 -31 -11 -44q0 -5 2 -13q6 -11 19 -11q4 0 12 2q32 14 39 46z" />
    <glyph glyph-name="nine" unicode="9" horiz-adv-x="311" 
d="M88 0q-28 0 -48.5 19.5t-20.5 44.5q0 28 26 45l2 1q3 0 5.5 -3t0.5 -5q-20 -16 -20 -36q0 -19 17 -34t40 -15q22 0 41 16q44 34 66 99.5t40 161.5l7 33l11 66q-9 -10 -13 -16t-5 -7l-37 -44q-24 -28 -38 -41q-12 -11 -36 -23q-6 -2 -9 -2q-10 0 -15.5 8t-5.5 22
q0 24 16 50q33 55 82 95q28 25 59 34q12 4 20 -12.5t8 -39.5q0 -21 -5 -34q-12 -36 -15 -48l-11 -50q-15 -68 -26.5 -110.5t-31.5 -83.5t-50 -67q-25 -24 -54 -24zM171 313q46 51 84 121q1 1 1 4q0 7 -4 10t-10 -1q-24 -11 -32 -18q-47 -35 -82 -92q-17 -26 -17 -44
q0 -6 3 -10t8 -4t11 3q14 7 38 31z" />
    <glyph glyph-name="colon" unicode=":" horiz-adv-x="176" 
d="M101 157q-6 6 -6 14t6 14t15 6q8 0 14 -6t6 -14t-6 -14t-14 -6q-9 0 -15 6zM76 6q-6 6 -6 14t6 14t15 6q8 0 14 -6t6 -14t-6 -14t-14 -6q-9 0 -15 6z" />
    <glyph glyph-name="semicolon" unicode=";" horiz-adv-x="180" 
d="M105 157q-6 6 -6 14t6 14t15 6q8 0 14 -6t6 -14t-6 -14t-14 -6q-9 0 -15 6zM85 -9q0 4 -2 12t-2 10q0 13 13 19q10 4 16 -1.5t6 -17.5q0 -16 -10 -35q-9 -14 -18.5 -20.5t-14.5 -6t-2 5.5q14 17 14 34z" />
    <glyph glyph-name="less" unicode="&#x3c;" horiz-adv-x="353" 
d="M296 140q-40 23 -119 64t-76 38q-31 18 -31 24q0 5 6.5 10t16.5 10q15 8 45 22q100 50 155 75q3 1 7 1q3 0 4.5 -1.5t1.5 -3.5q0 -6 -6 -9q-43 -19 -100.5 -49t-92.5 -51q-5 -2 -5 -6q0 -2 5 -7l51 -27q80 -41 148 -78q7 -5 7 -12q0 -4 -6 -4t-11 4z" />
    <glyph glyph-name="equal" unicode="=" horiz-adv-x="387" 
d="M70 306q1 1 1 3t1 1q13 9 19 10q8 1 36 4t52 3q58 2 162 2q2 0 4 -2.5t2 -4.5l-7 -7q-2 -2 -6 -2l-67 1q-68 0 -132 -6q-13 -1 -29 -6l-20 -4h-10zM70 216q1 1 1 3t1 1q13 9 19 10q8 1 36 4t52 3q58 2 162 2q2 0 4 -2.5t2 -4.5l-7 -7q-2 -2 -6 -2l-67 1q-68 0 -132 -6
q-13 -1 -29 -6l-20 -4h-10z" />
    <glyph glyph-name="greater" unicode="&#x3e;" horiz-adv-x="353" 
d="M70 140q0 7 7 12q68 37 148 78l51 27q4 4 5 7t-5 6q-35 21 -92.5 51t-100.5 49q-6 3 -6 9q0 2 1.5 3.5t4.5 1.5q4 0 7 -1q55 -25 155 -75q30 -14 45 -22q10 -5 16.5 -10t6.5 -10q0 -6 -31 -24q3 3 -76 -38t-119 -64q-5 -4 -11 -4t-6 4z" />
    <glyph glyph-name="question" unicode="?" horiz-adv-x="306" 
d="M96 73q-4 0 -7.5 4.5t-2.5 9.5q2 6 9.5 27t16.5 37l72 133l13 23q12 20 23 43t18 43q13 40 11 65q-2 14 -11 21.5t-21 7.5q-13 0 -25 -8q-26 -17 -44 -48q-32 -54 -32 -101q0 -22 8 -46v-1q0 -6 -5 -8h-2q-4 0 -7 3q-11 15 -11 44q0 31 14 69.5t35 67.5q15 20 40 36
q19 11 33 11q20 0 32.5 -15.5t12.5 -41.5q0 -23 -10 -51q-16 -50 -51 -109l-12 -20q-43 -73 -64 -117q-9 -17 -16.5 -35.5t-9.5 -34.5q0 -9 -7 -9zM76 6q-6 6 -6 14t6 14t15 6q8 0 14 -6t6 -14t-6 -14t-14 -6q-9 0 -15 6z" />
    <glyph glyph-name="at" unicode="@" horiz-adv-x="583" 
d="M105 26q-24 36 -30 77q-5 35 -5 61q0 84 36 154.5t97 117t133 61.5q17 4 39 4q65 0 120 -46q48 -41 48 -110q0 -41 -18.5 -85t-48 -79t-60.5 -52q-30 -12 -46 -12q-28 0 -43 23q-5 7 -9.5 14t-8.5 13h-4q-7 0 -16 -7q-24 -18 -36 -25q-6 -3 -11 -3q-10 0 -18 6.5
t-11 15.5q-3 12 -3 23q0 13 3 26q13 46 50 69q14 7 25 7q14 0 27 -7t20 -20q4 -8 4 -12t-3 -9q-8 -13 -8 -32q0 -8 2 -22q3 -21 14.5 -32.5t28.5 -11.5q12 0 25 6q28 14 45 31q70 67 82 157q1 7 1 21q0 71 -63 110q-42 27 -89 27q-21 0 -43 -6q-174 -46 -231 -222
q-15 -46 -15 -93q0 -41 12 -80q16 -55 56.5 -86t94.5 -31q14 0 31 3q41 7 88 30t81 54q4 -4 4 -10t-4 -10q-8 -11 -19 -19q-58 -38 -119 -55q-28 -9 -57 -9q-22 0 -52 7q-61 15 -96 68zM289 186q15 20 21 42q2 14 -5 23.5t-17 9.5q-8 0 -22 -8q-36 -26 -42 -74v-2
q0 -6 7 -18q1 -4 7 -6t11 0q25 13 40 33z" />
    <glyph glyph-name="A" unicode="A" horiz-adv-x="597" 
d="M499 119q-8 -1 -16.5 -2.5t-12.5 -2.5q-33 -5 -70 -5q-35 0 -72 5q-86 -75 -164 -123.5t-126 -59.5q-3 -1 -9 -1q-9 0 -9 6q0 3 5 7.5t13 5.5q47 11 116 53t151 115q-34 4 -52 4q-44 0 -89 -18l-9 -2q-4 0 -4 3t4.5 7.5t11.5 7.5q51 20 98 20q15 0 33 -2t26 -3
q171 158 330 397q38 82 60 112t42 39q8 3 12 3q7 0 10 -5t2 -12q-5 -25 -30.5 -58t-64.5 -77l-16 -18l-17 -38q-71 -159 -124 -326t-51 -292q0 -11 -6 -11q-3 0 -5.5 3.5t-2.5 7.5q-2 123 36 260zM737.5 620.5q26.5 37.5 16.5 37.5q-9 0 -31 -32.5t-36 -68.5
q24 26 50.5 63.5zM404 127q36 0 72 8q22 6 30 7q35 127 127 336q-120 -195 -286 -347q36 -4 57 -4z" />
    <glyph glyph-name="B" unicode="B" horiz-adv-x="463" 
d="M44 -71q-10 3 -10 8q0 3 3.5 5t8.5 2h3l38 106l31 90q-11 7 -11 16q0 12 25 22q42 115 113 253q-80 -70 -154 -155q-3 -3 -8 -3q-6 0 -2 9q16 24 26 35q74 83 158 152q58 113 115 197q6 9 13 9q5 0 5 -5q0 -4 -4 -9q-54 -78 -103 -170q84 66 163 112q90 53 177 70
q27 5 45 5q23 0 40 -7q37 -15 37 -49q0 -15 -6 -33q-14 -40 -44 -73q-40 -45 -77 -78q-117 -105 -252 -177q-37 -20 -70 -39q43 -1 68 -21.5t25 -52.5q0 -26 -15 -51q-26 -45 -74 -79q-124 -89 -247 -90q2 5 -16 -43q-5 -12 -11.5 -19.5t-10.5 -7t-2 7.5q9 26 23 63z
M258 221q167 78 295 177q73 56 120 107q41 44 55 83q6 15 6 27q0 26 -30 38q-17 7 -38 7q-10 0 -36 -4q-59 -11 -110 -36q-79 -39 -143 -85q-68 -50 -105 -81q-62 -120 -115 -269q71 22 101 36zM72 -54q98 7 199 66q48 29 86 77q20 26 20 55q0 17 -8 30.5t-23 20.5
q-19 9 -43 9q-32 0 -80 -19q-11 -4 -47 -24q-21 -12 -40 -21l-8 -23q-22 -65 -61 -171h5z" />
    <glyph glyph-name="C" unicode="C" horiz-adv-x="513" 
d="M24 -25q-4 16 -4 40q0 56 24.5 128t66.5 141q96 159 251 293q61 53 129 85.5t116 32.5q31 0 48.5 -14.5t17.5 -44.5q0 -13 -5 -35q-8 -32 -26 -64q-26 -45 -50 -79t-55 -69q-43 -49 -90.5 -93t-120.5 -108q-10 -10 -16 -10q-3 0 -3 3q0 6 11 16q103 90 203 199
q60 66 104 143q28 49 28 86q0 50 -56 50q-25 0 -58 -11t-69 -31q-34 -20 -76 -52q-199 -151 -306 -377q-21 -44 -34.5 -93t-13.5 -91q0 -29 7 -50q19 -64 90 -64q85 0 192.5 54t194.5 138q6 5 12 6.5t7 -1.5q0 -6 -3.5 -10.5t-8.5 -8.5q-88 -85 -197.5 -141t-194.5 -56
q-96 0 -115 88z" />
    <glyph glyph-name="D" unicode="D" horiz-adv-x="737" 
d="M37.5 -191.5q-17.5 12.5 -17.5 34.5q0 21 16.5 47t47.5 51q13 11 64 47q8 6 21 13l6 25q25 102 49 182t57 155q24 54 37 81q36 78 52 117t28 39q4 0 4 -6l-2 -8q-31 -62 -89 -198t-57 -147q58 103 95 157.5t105 125.5q46 48 99.5 86.5t99.5 51.5q24 6 43 6q48 0 73 -34.5
t25 -92.5q0 -57 -25 -126q-45 -123 -124 -229q-3 -4 -16 -21.5t-23 -28.5q51 11 88 17q5 0 5 -7q0 -8 -8 -9q-35 -7 -67 -15l-40 -9q-61 -68 -100.5 -106.5t-95.5 -80.5q-177 -130 -297 -130q-36 0 -53.5 12.5zM252 43q120 52 332 92l21 26q112 141 158 297q13 46 13 80
q0 50 -22 81t-64 31q-16 0 -36 -6q-87 -27 -168 -110q-195 -198 -271 -447q-16 -51 -18 -68zM180 -171q51 18 111 53q105 61 218 174l52 56q-38 -5 -115 -26t-150 -47t-105 -48q-16 -67 -18 -67q-2 -4 -8 -4q-4 0 -7 4q-2 5 0 11q0 12 6 42q-11 -5 -24.5 -15t-17.5 -13
q-24 -16 -49 -41q-33 -33 -33 -60q0 -30 43 -33q46 -4 97 14z" />
    <glyph glyph-name="E" unicode="E" horiz-adv-x="542" 
d="M34.5 38.5q14.5 44.5 40.5 103.5q13 31 18 39l-10 -2q-10 0 0 11.5t29 22.5q38 64 65.5 106t61.5 92l25 37q9 14 40 54l24 33q3 5 14 17.5t12 16.5q-52 -22 -58 -25l-40 -17l-41 -18q-2 -1 -5 -1q-5 0 -5 5q0 6 8 13q7 7 31.5 18t93.5 37q11 4 45 20q5 2 12 5t11 3
q14 -1 31 4t21 6q5 2 22 7q58 14 174 46q29 9 68 19q6 1 10.5 0t4.5 -4q0 -10 -35 -19l-29 -8q-110 -29 -219 -60q-10 -3 -37.5 -11t-39.5 -20t-42 -51q-85 -108 -175 -258l-21 -35q20 10 80 34l138 51l9 2q5 0 5 -4q0 -3 -5.5 -8.5t-15.5 -8.5l-62 -23q-77 -29 -94 -36
t-51 -23q-18 -9 -28 -26q-54 -96 -71 -173q-4 -17 -4 -34q0 -56 61 -56q50 0 134.5 32t215.5 94q8 4 46 18q3 0 3 -3q0 -7 -9 -13q-290 -148 -399 -148q-72 0 -72 61q0 33 14.5 77.5z" />
    <glyph glyph-name="F" unicode="F" horiz-adv-x="370" 
d="M0 -114q-16 0 -16 27q0 12 5 34q38 139 83 239q-26 30 -40 50q-7 10 -7 19q0 22 39 38q37 17 71 25l36 70q33 61 93 154l42 67q9 15 37 65q-66 -11 -126 -29q-32 -9 -47 -29q-6 -7 -17 -7q-9 0 -13 5q-2 1 -2 4t1 4q12 12 14 13q46 21 59 25l21 6q76 22 115 30
q200 39 364 39h44q28 0 42 -1.5t33 -8.5q6 -3 6 -7q0 -3 -3.5 -6t-8.5 -2q-53 7 -115 7q-125 0 -307 -28q-18 -3 -30.5 -12t-22.5 -25q-27 -43 -31 -49q-9 -14 -20.5 -32.5t-24.5 -41.5q-45 -75 -70 -118.5t-45 -87.5q22 5 34 6l26 5l138 25q48 10 87 17q18 4 28 4h2
q5 0 5 -4q0 -3 -2 -5t-5 -3q-27 -9 -47 -12l-278 -56l-11 -23q-25 -53 -37 -76q31 -26 31 -79q0 -41 -20.5 -92t-62.5 -107q-27 -37 -47 -37zM119 292q-49 -13 -62 -22q-3 -2 -5.5 -6.5t-2.5 -8.5q0 -7 9 -16q5 -5 11 -11.5t14 -15.5zM6 -72q0 -12 6 -12q9 0 26.5 24.5
t35.5 61.5q33 72 33 114q0 36 -20 56q-2 -5 -17.5 -38.5t-57.5 -169.5q-6 -24 -6 -36z" />
    <glyph glyph-name="G" unicode="G" horiz-adv-x="573" 
d="M356 -131q107 260 132 309l-53 -42l-26 -21q-28 -24 -56 -43q-55 -37 -112.5 -65t-107.5 -36q-9 -2 -27 -2q-34 0 -55.5 16.5t-27.5 47.5q-3 15 -3 33q0 57 27 131t69 134q166 239 419 346q74 31 126 31q48 0 72 -19.5t24 -57.5q0 -16 -7 -44q-5 -18 -21 -54
q-4 -9 -9 -15t-8 -6t-3 5t3 15l9 25q9 23 15 46q3 14 3 24q0 30 -20.5 46t-59.5 16q-67 0 -153 -44q-268 -134 -407 -375q-26 -45 -43 -100.5t-17 -97.5q0 -27 7 -44q16 -41 66 -41q10 0 16 1q61 7 134.5 47t140.5 96q29 23 83 73q32 30 59 73q31 51 62 81q8 8 18 8t10 -10
q0 -8 -8 -16q-36 -46 -65 -79q-28 -31 -45 -66q-25 -48 -52 -108q-34 -77 -80 -191l-21 -43q-4 -4 -8.5 -5.5t-5.5 5.5q0 2 6 16z" />
    <glyph glyph-name="H" unicode="H" horiz-adv-x="606" 
d="M103 -57q-7 0 -7 13q0 7 3 16q4 17 16 51q4 9 7 20q15 44 24 79t9 67q0 65 -46 95q-18 11 -33 11q-6 0 -10 -1q-7 -1 -17 -1q-14 0 -21.5 4t-7.5 9q0 7 11.5 12t29.5 3q13 -3 27 -3q19 0 39.5 4t51.5 12l71 20l6 19q12 40 35 98l16 44q2 5 29.5 80t43.5 121q3 7 8 7t5 -8
q0 -4 -3 -13q-7 -18 -11 -31.5t-7 -22.5l-80 -229l-20 -60l30 6q105 25 235 25q26 0 42 2q35 100 57 155.5t59 122.5q4 6 10 8q4 0 4 -3l-2 -8l-6 -16q-46 -84 -104 -259q7 0 11.5 -1t5.5 -4q0 -11 -8 -15q-6 -1 -17 -1q-16 -38 -45.5 -143t-49.5 -189q-5 -21 -19 -65
q-1 -2 -3 -3.5t-4 -1.5q-7 0 -7 6q24 106 39 160.5t43 146.5q15 46 27 89h-30q-133 0 -236 -23q-4 -1 -19 -4.5t-20 -5.5l-22 -61q-14 -41 -44 -121l-9 -26q-13 -34 -24.5 -62.5t-20.5 -50.5l-21 -50q-11 -24 -21 -24zM166 115q33 87 45 124l7 21t8 25l16 48
q-7 -2 -53.5 -14.5t-74.5 -16.5q58 -35 58 -109q0 -52 -29 -142z" />
    <glyph glyph-name="I" unicode="I" horiz-adv-x="387" 
d="M20 -120q1 1 1 3t1 1q11 11 17 13q29 7 87 19l42 7q20 105 78 263q35 98 95.5 229.5t135.5 255.5l-102 -19q-14 -3 -27 -9l-20 -7l-10 -2q-1 2 -6 7q0 2 -0.5 3.5t0.5 1.5q3 2 8.5 6.5t9.5 5.5q51 13 86 19q13 2 25.5 4.5t25.5 4.5l21 4q2 2 4 6q17 23 19 25q5 8 11 8
q2 0 4 -2t2 -5t-3 -8l-12 -19q88 14 123 14q2 0 4.5 -2t2.5 -3l-6 -9q-2 -2 -6 -2q-21 0 -131 -18q-85 -140 -165.5 -313.5t-125.5 -343.5q-8 -31 -22 -93l158 23q1 1 4 -1.5t3 -4.5l-6 -8q-2 -2 -3.5 -2.5t-2.5 -0.5l-36 -5l-120 -17q-3 -16 -11 -19q-5 -1 -8 4v12l-80 -15
q-13 -3 -25 -9q-18 -7 -23 -8l-9 -1z" />
    <glyph glyph-name="J" unicode="J" horiz-adv-x="570" 
d="M117.5 123q71.5 63 167 111.5t183.5 68.5q21 6 77 17l9 18q32 64 59 155t37 169q1 6 1 16q0 40 -35 40q-16 0 -42 -9q-177 -61 -307 -159q-78 -59 -121 -116q-4 -6 -9 -6t-5 4q0 5 4 10q4 6 37 44q38 44 113 97q131 93 292 145q23 8 45 8q24 0 36.5 -14t12.5 -40
q0 -6 -2 -20q-12 -85 -39 -176.5t-62 -161.5l26 2l26 1q19 0 19 -6q0 -4 -6.5 -7.5t-16.5 -4.5l-60 -8q-29 -56 -86 -140.5t-109 -136.5q-62 -62 -137 -99t-130 -37q-35 0 -55 16.5t-20 49.5q0 20 7 44q19 62 90.5 125zM37 -44q0 -27 16 -40t43 -13q51 0 124.5 38t131.5 95
q56 54 97.5 119.5t84.5 142.5q-36 -5 -63 -12q-82 -18 -177 -66t-165.5 -110t-86.5 -121q-5 -22 -5 -33z" />
    <glyph glyph-name="K" unicode="K" horiz-adv-x="572" 
d="M128 184q-10 15 -10 17q0 3 7.5 5t10.5 3l12 33q29 78 70.5 157t102.5 180q16 26 38 57q12 18 20 18q3 0 3 -3q0 -4 -8 -18q-106 -157 -176 -314q-3 -5 -7 -13.5t-6 -13.5l-10 -27q-9 -21 -18 -48q147 69 266.5 153t249.5 203q16 15 67 68q11 10 17 10q3 0 3 -3
q0 -6 -10 -16q-24 -28 -57 -61q-139 -130 -260.5 -213t-279.5 -165q31 -60 62.5 -102t84 -80t134.5 -65q19 -6 59 -14l26 -5q2 -2 2 -6q0 -11 -13 -10h-5q-95 22 -158 53.5t-110.5 80t-92.5 125.5q-5 -8 -39.5 -116t-55.5 -181q-5 -16 -11.5 -24.5t-10.5 -8.5q-5 0 -5 7
q0 6 6 20q64 203 102 317z" />
    <glyph glyph-name="L" unicode="L" horiz-adv-x="329" 
d="M55 -121q-18 -5 -25 -5q-10 0 -10 11q0 6 3.5 21t5.5 23l6 23q46 181 132.5 363t208.5 371q4 6 30 40q3 3 6 3t4 -2.5t-1 -5.5q-107 -173 -166 -280t-106 -224.5t-94 -282.5q-2 -9 -4.5 -19t-2.5 -13q0 -7 7 -7t37 8q11 2 63 16q77 20 134 26q19 2 55 2q8 0 8 -5
q0 -3 -4 -6.5t-8 -3.5q-49 0 -90.5 -8t-97.5 -23q-50 -13 -69 -17z" />
    <glyph glyph-name="M" unicode="M" horiz-adv-x="807" 
d="M656 -29q0 63 24.5 141t67.5 186q17 40 33 85t16 63q0 16 -11 16q-17 0 -64 -37q-18 -14 -57 -48q-66 -59 -113 -95.5t-68 -36.5q-29 0 -29 54q0 36 12 84q12 44 19 65q19 66 23 82q9 35 9 55q0 23 -15 23q-20 0 -69 -36q-51 -37 -91 -83q-87 -100 -136.5 -179.5
t-79.5 -156t-77 -224.5q-3 -14 -10.5 -24t-13.5 -10q-8 0 -5 15q5 25 14 77q12 62 20.5 98t25.5 84q80 220 200 415q28 45 63.5 99t46.5 67q1 1 5 3t6 2q5 0 2 -8l-17 -26q-68 -104 -117.5 -188t-88.5 -167q-25 -54 -63 -157.5t-52 -159.5q35 96 63.5 157t68 121t103.5 137
q62 74 120 117q62 47 92 47q26 0 26 -36q0 -24 -12 -65l-14 -49q-13 -42 -28 -98q-11 -40 -11 -73q0 -42 19 -42q7 0 16 6q27 15 136 109q60 51 81 67q52 37 74 37q18 0 18 -26t-16 -71q-10 -29 -32 -83q-45 -115 -70.5 -196t-25.5 -143q0 -59 29 -85q18 -1 18 -15
q0 -10 -10 -10q-13 0 -27 22q-28 34 -28 94z" />
    <glyph glyph-name="N" unicode="N" horiz-adv-x="556" 
d="M28 -84q-5 0 -7.5 5.5t0.5 13.5q31 124 70 233t96 218q33 63 101 189l63 116q1 3 5.5 6.5t8.5 3.5t4 -4q0 -5 -10 -22l-54 -102q-17 -31 -37.5 -70t-45.5 -85q-39 -72 -72 -152t-70 -183q40 87 103 177t140.5 164.5t157.5 114.5q26 12 42 12q39 0 39 -56t-42 -168
l-13 -34q-38 -96 -56.5 -153.5t-18.5 -94.5q0 -24 10 -37q6 -7 6 -15q0 -10 -8 -10t-17 13q-11 14 -11 43q0 44 22 109t65 172q44 113 44 165q0 44 -31 44q-13 0 -33 -9q-103 -46 -207 -173t-177 -274q-15 -30 -47 -112l-15 -40q-2 -5 -5 -5z" />
    <glyph glyph-name="O" unicode="O" horiz-adv-x="510" 
d="M120 -47q-47 0 -73.5 33.5t-26.5 87.5q0 66 37 136q-1 66 19.5 132t55.5 119q82 124 210 182q56 26 106 26q64 0 101 -42t37 -114q0 -34 -9 -73q-22 -93 -85.5 -195t-150.5 -180.5t-176 -104.5q-22 -7 -45 -7zM372 115.5q70 73.5 119 159t68 166.5q8 32 8 67
q0 64 -33 102.5t-92 38.5q-29 0 -57 -8q-47 -13 -91 -43q-64 -43 -114 -104.5t-77 -128t-25 -124.5q24 39 76.5 92.5t89.5 69.5q1 1 4 1q4 0 4 -4.5t-2 -6.5q-40 -24 -90.5 -77t-80.5 -99q-1 -26 2.5 -40.5t7.5 -23t5 -12.5q0 -5 -5 -10t-8 0q-15 30 -18 51
q-12 -21 -19.5 -49t-7.5 -57q0 -47 21 -78t64 -31q41 0 101 32q80 43 150 116.5z" />
    <glyph glyph-name="P" unicode="P" horiz-adv-x="465" 
d="M134 363q42 91 77 160.5t75 135.5q19 32 72 106l16 22q1 2 3.5 4t5.5 2q5 0 5 -4q0 -3 -3 -8q-4 -4 -4 -5q-85 -117 -156 -259q-62 -124 -88.5 -186.5t-59.5 -166.5q46 114 98 202t129 173q92 101 195 157q46 25 86 33q19 4 40 4q44 0 68.5 -22.5t24.5 -62.5
q0 -13 -3 -28q-12 -72 -63 -147t-123 -137q-57 -49 -132.5 -80t-136.5 -31q-59 0 -84 31q-4 4 -4 9q0 4 3 7t8 3t8 -3q25 -28 78 -28q65 0 145.5 37.5t137.5 96.5q58 60 97.5 124t45.5 118q2 16 2 22q0 35 -20.5 54.5t-55.5 19.5q-22 0 -40 -5q-40 -10 -80 -32
q-87 -47 -171 -136q-74 -79 -145 -197q-106 -177 -136 -341l-4 -22q-4 -20 -9.5 -32.5t-9.5 -12.5q-6 0 -6 21q0 12 1 20q22 185 113 384z" />
    <glyph glyph-name="Q" unicode="Q" horiz-adv-x="519" 
d="M293.5 -35.5q-10.5 12.5 -28.5 39.5q-10 -4 -27 -9.5t-31 -9.5q-34 -10 -68 -10q-56 0 -87.5 32t-31.5 93q0 54 26 125.5t70 143.5t96 126t116.5 92t106.5 34q8 -1 12.5 -5t4.5 -7q0 -2 -3 -4t-8 -2q-5 1 -15 1q-37 0 -86 -27.5t-88 -65.5q-95 -87 -146 -189
q-29 -56 -47.5 -113.5t-18.5 -103.5q0 -54 28 -83q28 -28 72 -28q41 0 116 26q-12 24 -12 59q0 46 17 85q9 20 22 29q3 1 8.5 1.5t4.5 -3.5q-15 -21 -24.5 -49t-9.5 -57q0 -34 12 -57q33 19 76.5 52t71.5 61q155 155 185 333q4 20 4 45q0 37 -13 69q-15 37 -51 58.5
t-78 21.5q-26 0 -50 -9l-56 -22h-3q-5 0 -5 5t4.5 10.5t12.5 7.5q56 24 105 24q44 0 78.5 -18t53.5 -52q21 -36 21 -87q0 -30 -5 -54q-25 -135 -125 -267q-46 -61 -109 -112.5t-109 -77.5q15 -32 52 -67q3 -3 3 -7q0 -6 -9 -6q-5 0 -8 3q-16 13 -26.5 25.5z" />
    <glyph glyph-name="R" unicode="R" horiz-adv-x="501" 
d="M34.5 -50q-4.5 -5 -8.5 -5q-6 0 -6 9q0 5 3 14q56 224 135 399t195 341q10 12 12 14q7 5 9 5q4 0 -2 -13.5t-18 -30.5q-41 -58 -76.5 -122t-74.5 -143l-16 -38q37 43 93.5 96.5t105.5 89.5q53 37 100 58t85 21q37 0 58.5 -20t21.5 -58q0 -52 -32 -113
q-36 -69 -98.5 -126.5t-136 -92t-141.5 -36.5l-42 1q19 -57 62 -108.5t96 -77.5q8 -4 18 -7.5t17 -7.5v-2q0 -3 -3.5 -6t-6.5 -2q-14 3 -28 9q-61 27 -110 83.5t-70 119.5q-15 2 -32 9t-23 16l-12 -34q-3 -12 -6.5 -22t-6.5 -18q-4 -12 -8.5 -26.5t-9.5 -31.5l-35 -130
q-4 -9 -8.5 -14zM232 216q71 0 141.5 30.5t129.5 84.5t97 122q31 55 31 102q0 34 -19 52.5t-51 18.5q-33 0 -71 -18q-6 -3 -33 -17.5t-50 -30.5q-117 -82 -234 -233q-8 -11 -18.5 -27t-16.5 -27q19 0 31.5 -14.5t25.5 -40.5q24 -2 37 -2zM160 240q-7 10 -14 13t-7 -7
q0 -9 7 -13.5t21 -8.5q0 6 -7 16z" />
    <glyph glyph-name="S" unicode="S" horiz-adv-x="569" 
d="M223 -112q-16 0 -25 6t-9 16t9 22q21 27 55 47t87 43q-13 114 -154 197q-15 9 -60 33l-40 22q-32 18 -46 31q-20 19 -20 45q0 41 42 90.5t100 92.5q107 78 239 130t234 52q66 0 108 -23q41 -22 53 -57q6 -18 6 -36q0 -44 -33 -87q-13 -18 -25 -30q-67 -73 -184 -138
q-2 -1 -5 -1q-4 0 -4 2q0 3 5 8q51 29 104 72t85 82q38 47 38 87q0 31 -21 55q-24 29 -80 41q-27 6 -60 6q-99 0 -224 -49.5t-228 -127.5q-55 -41 -92 -83.5t-37 -77.5q0 -25 23 -44q14 -12 48 -30l25 -13q60 -34 74 -42q61 -37 102.5 -89t48.5 -109q16 5 67 25l67 24
q5 2 13 2q7 0 7 -4q0 -7 -16 -13q-23 -9 -76 -30.5t-60 -25.5q-2 -44 -36 -75t-81 -43q-13 -3 -24 -3zM328 -38.5q12 14.5 13 37.5q-72 -24 -111 -57q-21 -17 -21 -27t17 -10q15 0 35.5 8t38.5 22q16 12 28 26.5z" />
    <glyph glyph-name="T" unicode="T" horiz-adv-x="415" 
d="M184 -85q-4 0 -7 4.5t-2 10.5q3 22 13 54q18 54 51 130q43 107 57 154q7 22 14 59q2 10 2 28q0 67 -57 102.5t-164 47.5q-71 7 -71 30q0 22 62 53.5t162 64.5q126 42 271 66q58 10 121 18q144 23 152 24q3 1 9 1q12 0 12 -6q0 -3 -5.5 -7t-13.5 -5q-24 -4 -86 -13
q-121 -17 -159 -27q-89 -142 -142 -247q-54 -108 -98 -222.5t-87 -250.5q-2 -6 -6 -20.5t-9 -25.5t-12 -19q-3 -4 -7 -4zM403.5 497q37.5 72 107.5 184q8 12 10 19q-30 0 -120 -21.5t-146 -39.5q-84 -27 -145 -54t-61 -45q0 -7 12 -10t28 -4.5t21 -2.5q186 -21 218 -123
q6 -14 6 -45q32 70 69.5 142z" />
    <glyph glyph-name="U" unicode="U" horiz-adv-x="525" 
d="M391.5 -63q-1.5 6 -0.5 16l1 23q1 12 4.5 85.5t14.5 142.5q1 6 7 37t9 42q-59 -86 -129 -166.5t-133 -131t-101 -50.5q-44 0 -44 72q0 73 49.5 225.5t109.5 288.5l53 123q7 13 12 13q4 0 4 -7q0 -6 -2 -9l-94 -231q-41 -101 -77 -224t-36 -176q0 -52 33 -52q32 0 96 54.5
t137.5 140t133.5 173.5q26 79 50.5 137t52.5 96q13 17 23 17q6 0 8.5 -5t0.5 -14q-10 -46 -47 -122t-69 -116q-17 -43 -26 -106q-21 -135 -22 -230q-1 -23 -5.5 -37.5t-8.5 -14.5q-3 0 -4.5 6zM478.5 381.5q2.5 4.5 5.5 10.5q37 69 52 104q9 23 9 28q0 1 -1 1q-2 -1 -6 -7.5
t-9 -17.5q-41 -83 -55 -127q2 4 4.5 8.5z" />
    <glyph glyph-name="V" unicode="V" horiz-adv-x="429" 
d="M181.5 -66.5q-35.5 -23.5 -66.5 -23.5t-53 24.5t-30 70.5q-12 71 -12 143q0 90 17 194t52 241q2 6 5 11.5t5 5.5q3 0 3 -8q0 -10 -4 -27q-33 -155 -47 -240t-14 -170q0 -74 11 -146q6 -40 24 -61.5t44 -21.5q27 0 59 22t66 66q135 173 196 339q31 86 62 204
q2 11 7.5 18.5t9.5 7.5t3 -7q-39 -170 -89 -286q-31 -70 -75 -139t-102 -147q-36 -47 -71.5 -70.5z" />
    <glyph glyph-name="W" unicode="W" horiz-adv-x="603" 
d="M70 -93q-19 0 -31.5 18.5t-15.5 49.5q-3 27 -3 57q0 191 110 517l9 27q12 36 16 46q5 14 9 14q2 0 2 -6q0 -9 -5 -23q-63 -197 -91 -317t-32 -237q-2 -59 6.5 -95t26.5 -36q31 0 80 97q23 47 46 105l18 40q19 44 35.5 76.5t37.5 62.5q45 64 70 64q28 0 28 -75
q0 -21 -2 -63q-3 -33 -3 -65q0 -36 3 -74q4 -59 32 -59q16 0 38 23t45 65q42 77 100.5 215t90.5 235q3 8 7 8q6 0 6 -9q0 -3 -2 -11q-25 -79 -89 -233t-98 -212q-15 -28 -34 -52q-34 -50 -65 -50q-17 0 -30 18.5t-18 51.5q-4 31 -4 70q0 22 2 62l1 24q2 28 2 41q0 67 -17 67
t-59 -67q-29 -49 -58 -111q-26 -60 -32 -74l-16 -37q-17 -38 -28 -60.5t-28 -44.5q-32 -43 -60 -43z" />
    <glyph glyph-name="X" unicode="X" horiz-adv-x="538" 
d="M33.5 -57.5q-6.5 -4.5 -10.5 -4.5q-3 0 -3 3q0 5 10 19q131 181 239 299q-49 145 -48 348q0 8 1.5 17.5t1.5 14.5q2 9 6 9q3 0 6 -8l1 -20q3 -198 48 -343q119 129 241 221q40 30 70.5 51t62.5 37q1 1 4 1q4 0 4 -4q0 -6 -10 -12l-31 -21q-167 -112 -334 -292
q58 -164 186 -273q13 -12 13 -21q0 -6 -5 -6t-13 6q-137 111 -197 277q-126 -139 -231 -288q-5 -6 -11.5 -10.5z" />
    <glyph glyph-name="Y" unicode="Y" horiz-adv-x="560" 
d="M80 -170q-28 0 -44 12.5t-16 35.5q0 22 11 45q26 57 88.5 116.5t133.5 97.5q65 36 157 67q32 11 37.5 13.5t13.5 5.5q36 83 70.5 178.5t53.5 174.5q-62 -113 -121 -188t-136 -126q-69 -46 -116 -46q-49 0 -59 52q-4 20 -4 45q0 55 17 117.5t53 167.5l20 57q2 6 6 9.5
t7 3.5q5 0 5 -7q0 -4 -3 -12q-42 -115 -65 -194.5t-23 -140.5q0 -27 6 -48q10 -32 45 -32q43 0 104 42q80 54 143.5 138.5t129.5 207.5q7 10 14 10q5 0 7 -3.5t1 -10.5l-2 -8t-3 -10q-22 -91 -58 -195.5t-70 -177.5l62 13q1 0 2 -1t1 -2q1 -2 -0.5 -5t-3.5 -3q-9 -4 -31 -12
t-40 -13l-26 -51q-54 -106 -151 -205q-51 -53 -105 -84q-62 -34 -111 -34zM270 -55q63 62 103 119t78 135q-66 -19 -116 -39.5t-99 -50.5q-59 -36 -100 -75.5t-79 -95.5q-20 -30 -20 -51q0 -18 13 -27.5t37 -9.5q37 0 92 26q54 32 91 69z" />
    <glyph glyph-name="Z" unicode="Z" horiz-adv-x="628" 
d="M59.5 -113.5q26.5 29.5 71.5 69.5q125 107 360 226q6 24 6 43q0 33 -17 51.5t-49 18.5q-16 -11 -42 -23.5t-48 -20.5q-10 -3 -17 -3q-15 0 -15 9q0 3 4 9q51 53 112 52q21 12 38 23t43 31q105 84 154 147t49 104q0 31 -27 47.5t-73 16.5q-59 0 -136 -26t-149 -73
q-4 -3 -7 -3q-6 0 -6 6q0 5 9 11q84 49 159.5 73.5t132.5 24.5q52 0 81.5 -20t29.5 -57q0 -55 -66.5 -135.5t-203.5 -175.5q64 -16 64 -81q0 -15 -5 -38l27 13q56 27 80 40q7 4 12 4q4 0 4 -4q0 -3 -4 -7.5t-10 -8.5q-10 -6 -46 -24l-67 -36q-26 -68 -61 -118t-95 -103
q-72 -62 -163 -114t-137 -52q-32 0 -32 30q0 10 2 17q11 27 37.5 56.5zM66 -195q31 0 91 30.5t123 76.5t102 87q28 29 59.5 77t41.5 81q-93 -44 -196.5 -109.5t-162.5 -118.5q-32 -28 -57.5 -58t-25.5 -47q0 -19 25 -19z" />
    <glyph glyph-name="bracketleft" unicode="[" horiz-adv-x="266" 
d="M72 -125v5v135v271l-1 176l-1 149q0 5 5 20q1 6 8 10.5t14 4.5l97 -7l32 -3q-4 -4 -7 -8t-5 -5l-66 1q-24 2 -38 1q-8 0 -14.5 -6t-7.5 -14q0 -3 -1 -6t0 -5q0 -56 2 -170l-1 -176l-1 -143l2 -209v-16q2 -29 26 -28l83 1q4 0 14 -5v-2.5t-1 -2.5q-2 -4 -3 -4
q-15 0 -41 -2q-40 -2 -58 -2q-35 1 -37 40z" />
    <glyph glyph-name="backslash" unicode="\" horiz-adv-x="475" 
d="M288 103q-69 186 -128 381t-90 339q0 5 3 8.5t7 3.5q7 0 10 -8q69 -275 162 -551t182 -474v-2h1q0 -3 -2.5 -5t-6.5 -2q-6 0 -9 5q-60 119 -129 305z" />
    <glyph glyph-name="bracketright" unicode="]" horiz-adv-x="266" 
d="M129 -163q-26 2 -41 2q-1 0 -3 4q-1 1 -1 2.5v2.5q10 5 14 5l83 -1q24 -1 26 28v16l2 209l-1 143l-1 176q2 114 2 170v2l-1 9q-1 8 -7.5 14t-14.5 6h-11q-19 0 -27 -1l-66 -1q-2 1 -5 5t-7 8l32 3l97 7q7 0 14 -4.5t8 -10.5q5 -15 5 -20l-1 -149l-1 -176v-271v-135v-5
q-2 -39 -37 -40q-18 0 -58 2z" />
    <glyph glyph-name="asciicircum" unicode="^" horiz-adv-x="371" 
d="M321 516q-5 0 -7 5q-11 26 -14 37l-40 171q-2 7 -4.5 19.5t-7.5 19.5h-6q-1 0 -2.5 -0.5t-1.5 -1.5q-48 -68 -94 -138q-13 -18 -14 -20l-30 -44q-5 -9 -9.5 -19t-7.5 -15q-2 -1 -6 -1q-7 0 -7 6q0 15 5 24q13 26 24 42l109 163q9 14 19 25q11 11 23 11q14 0 20 -11
q2 -4 7 -18l6 -23q4 -17 5 -23l20 -104l23 -102q-6 -3 -10 -3z" />
    <glyph glyph-name="underscore" unicode="_" horiz-adv-x="577" 
d="M70 -61q1 1 1 3t1 1q13 9 19 10q8 1 36 4t52 3q87 3 175 3l177 -1q2 0 4 -2.5t2 -4.5l-7 -7q-2 -2 -6 -2q-58 0 -87 1l-116 1q-114 0 -186 -7q-13 -1 -29 -6l-20 -4h-10z" />
    <glyph glyph-name="grave" unicode="`" horiz-adv-x="245" 
d="M182 579l-21 26l-24 32l-21 28l-46 60v1q0 3 5 5.5t8 -0.5q6 -7 10.5 -13t8.5 -11l79 -100q13 -18 19 -22q5 -5 5 -10q0 -7 -5 -10t-8 3q-3 1 -10 11z" />
    <glyph glyph-name="a" unicode="a" horiz-adv-x="270" 
d="M12.5 10.5q-10.5 11.5 -10.5 33.5q0 40 27 82t65.5 69.5t71.5 27.5q34 0 50 -23q1 2 3 7t5 9q6 6 12 6q5 0 7.5 -3.5t0.5 -7.5l-13 -26q-29 -55 -51 -108q-8 -24 -8 -36q0 -23 18 -23t45 22.5t50 56.5q6 8 11 8t5 -7q0 -3 -3 -9q-18 -30 -51 -59t-59 -29q-33 0 -33 41
q0 11 3 24q-11 -11 -25.5 -23t-26.5 -19q-21 -12 -33 -18q-17 -7 -32 -7q-18 0 -28.5 11.5zM78 27q42 22 71.5 57.5t55.5 95.5q-10 26 -36 26q-29 0 -64 -24.5t-59 -61t-24 -71.5q0 -30 27 -30q14 0 29 8z" />
    <glyph glyph-name="b" unicode="b" horiz-adv-x="238" 
d="M-16.5 7.5q6.5 22.5 16.5 51.5l18 56q66 211 197 430q22 36 58 87q33 43 49 43q11 0 11 -21t-10.5 -56t-30.5 -77q-48 -104 -144 -252l-91 -134q-21 -35 -32 -62t-24 -69q39 86 80 127.5t73 41.5q21 0 33 -15t12 -40q0 -6 -2 -20q6 1 23.5 4.5t37.5 1.5q8 0 8 -7
q0 -4 -4.5 -7.5t-10.5 -2.5l-10 1q-18 0 -47 -8q-10 -35 -33 -61t-49.5 -39.5t-46.5 -13.5q-12 0 -17 5q-7 7 -7 17q0 26 44 58.5t92 45.5q2 14 2 19q0 21 -8.5 32.5t-23.5 11.5q-28 0 -64 -41t-68 -123q-7 -15 -15.5 -24t-14.5 -9q-8 0 -8 16q0 11 6.5 33.5zM186.5 360.5
q78.5 129.5 108.5 207.5q22 54 22 73q0 8 -4 8q-13 0 -59 -70q-53 -80 -118 -214t-88 -216q60 82 138.5 211.5zM94 -9.5q24 10.5 47.5 33t30.5 49.5q-17 -2 -44 -15.5t-47.5 -31t-20.5 -30.5q0 -6 4 -10q6 -6 30 4.5z" />
    <glyph glyph-name="c" unicode="c" horiz-adv-x="225" 
d="M25 16q-17 17 -17 45q0 34 23 74t59.5 67t75.5 27q16 0 25.5 -10t9.5 -26q0 -8 -1 -12q0 -4 -2 -8l-8 -19q-4 -6 -10 -6q-2 0 -4 1.5t-1 3.5q1 7 4.5 18t3.5 17q0 10 -7 16.5t-18 6.5q-30 0 -60.5 -23.5t-50.5 -57.5t-20 -62q0 -22 14 -36t43 -14q36 0 79 22.5t77 56.5
q8 8 12 8q6 0 6 -5q0 -4 -2.5 -7t-3.5 -4q-38 -39 -85.5 -64.5t-88.5 -25.5q-36 0 -53 17z" />
    <glyph glyph-name="d" unicode="d" horiz-adv-x="328" 
d="M40 -2q-18 0 -28.5 11.5t-10.5 32.5q0 38 31 84t78 74q26 16 49 16q26 0 37 -20q36 105 101 224t135 212q32 43 48 43q11 0 11 -21q0 -42 -40 -133q-43 -97 -106.5 -204t-128.5 -182q-3 -3 -10.5 -11.5t-11.5 -15.5t-6 -15q-4 -16 -4 -32q0 -41 33 -41q22 0 55 20t70 57
q8 8 14 8q3 0 3.5 -2.5t0.5 -5.5t-5 -8q-44 -44 -81.5 -66t-64.5 -22q-22 0 -33.5 14.5t-11.5 41.5q0 12 1 18l-8 -9q-11 -11 -25.5 -23t-26.5 -19q-21 -12 -33 -18q-18 -8 -32 -8zM342.5 344.5q75.5 126.5 110.5 223.5q19 54 19 68t-14.5 -0.5t-42.5 -56.5
q-39 -53 -87 -138t-85 -169t-46 -137q70 83 145.5 209.5zM131 64.5q24 22.5 40 46.5q2 8 5 18.5l7 24.5q2 19 -6 32t-25 13q-11 0 -21 -5q-42 -19 -73 -59t-37 -80q-2 -17 5.5 -27t21.5 -10t29 8q30 16 54 38.5z" />
    <glyph glyph-name="e" unicode="e" horiz-adv-x="184" 
d="M95.5 9q-27.5 -10 -48.5 -10q-22 0 -34.5 10.5t-12.5 31.5t13 52q26 60 89 104q28 19 50 19q12 0 19.5 -6t7.5 -16q0 -16 -14 -34q-45 -63 -143 -103q-2 -12 -2 -15q0 -26 30 -26q29 0 73.5 24t75.5 57q6 7 11 7q6 0 6 -6q0 -4 -5 -9q-24 -27 -63 -54q-25 -16 -52.5 -26z
M93.5 112q33.5 21 56.5 54q1 1 7 10q3 6 3 10q0 12 -15 12q-10 0 -21 -6q-36 -20 -62 -51t-38 -66q36 16 69.5 37z" />
    <glyph glyph-name="f" unicode="f" horiz-adv-x="169" 
d="M-110 -390q0 35 6 83.5t14 80.5l-32 16q-9 5 -42.5 22.5t-57.5 25.5q-14 5 -14 12t13 15l74 35q80 36 108 50l15 42q55 153 87.5 234t72.5 157.5t98 158.5q32 43 49 43q11 0 11 -21t-10.5 -56t-30.5 -77q-30 -65 -62.5 -116.5t-96.5 -140.5l-62 -88l-49 -127
q48 22 101.5 58t97.5 80q7 7 13 7q5 0 5 -5t-5 -10q-83 -89 -219 -152q-8 -23 -32 -117l-9 -36q44 -25 44 -79q0 -51 -35 -116q-17 -32 -34 -32q-12 0 -15 17q-3 13 -3 36zM253 478q18 53 18 69q0 25 -56 -58q-54 -81 -92.5 -163.5t-76.5 -187.5q153 208 207 340zM-68 -141
q11 42 19 67q-28 -13 -79 -35q-32 -14 -51 -23.5t-19 -14.5t10 -9q70 -34 103 -52q6 25 17 67zM-40 -292q0 43 -31 57q-7 -26 -13 -73.5t-6 -77.5t7 -30q5 0 15 21q28 61 28 103z" />
    <glyph glyph-name="g" unicode="g" horiz-adv-x="281" 
d="M-228 -465q-23 0 -35.5 13.5t-12.5 38.5q0 31 17 68q27 55 90 115.5t142 111.5t151 81q8 21 40 118q-27 -35 -57.5 -58.5t-56.5 -23.5q-21 0 -33.5 13.5t-12.5 35.5q0 38 22.5 75t59 61t74.5 24q13 0 25 -3q11 -1 11 -9q0 -5 -5 -8t-11 0q-11 3 -22 3q-31 0 -63 -22
t-52.5 -54.5t-20.5 -62.5q0 -35 32 -35q23 0 51.5 23.5t52.5 57.5t32 61l17 51q3 7 8 11.5t9 4.5q8 0 4 -14q-61 -189 -83 -241q42 21 81.5 55t69.5 71q6 8 11 8t5 -6q0 -5 -4 -10q-31 -41 -76 -78.5t-94 -62.5q-60 -137 -136.5 -237.5t-148.5 -145.5q-48 -30 -81 -30z
M-14 -281.5q73 95.5 128 221.5q-66 -29 -140 -78.5t-133.5 -106t-82.5 -105.5q-16 -35 -16 -59q0 -18 9 -27.5t25 -9.5q28 0 70 27q67 42 140 137.5z" />
    <glyph glyph-name="h" unicode="h" horiz-adv-x="253" 
d="M-31 -42q0 22 19 73q93 259 296 542q33 46 60.5 71.5t42.5 25.5q12 0 12 -17q0 -24 -25 -77q-94 -197 -305 -435q-23 -27 -31.5 -40t-15.5 -29q-4 -10 -13.5 -35.5t-12.5 -36.5q30 55 72.5 100t65.5 45q16 0 16 -24t-14 -65q-4 -12 -4 -22q0 -18 16 -18t47.5 20.5
t71.5 60.5q7 7 13 7q5 0 5 -4q0 -3 -6 -11q-41 -44 -77.5 -66.5t-60.5 -22.5q-27 0 -27 27q0 12 4 24q14 44 14 58t-8 14q-17 0 -60 -52.5t-71 -105.5q-10 -19 -17 -19t-7 12zM355 576q22 44 22 61q0 8 -5 8q-8 0 -26 -18.5t-43 -53.5q-152 -207 -255 -435q193 212 307 438z
" />
    <glyph glyph-name="i" unicode="i" horiz-adv-x="158" 
d="M94 270v2q0 9 11.5 20t21.5 11q14 0 14 -16q0 -11 -9 -21t-24 -10q-13 0 -14 14zM7 45q0 33 19.5 81.5t50.5 95.5q5 5 10 5t6.5 -3t-1.5 -7q-28 -43 -48 -90t-20 -76q0 -33 27 -33q26 0 64 24.5t58 54.5q7 7 11 7q5 0 5 -6q0 -5 -4 -9q-28 -36 -69.5 -62t-71.5 -26
q-37 0 -37 44z" />
    <glyph glyph-name="j" unicode="j" horiz-adv-x="125" 
d="M58 259v3q0 11 7.5 19.5t15.5 8.5q15 0 16 -18q1 -9 -8 -17t-20 -8q-10 0 -11 12zM-420.5 -450.5q-13.5 13.5 -13.5 38.5q0 29 19 67q27 55 90 115.5t142 111.5t151 81q11 27 30 80.5t32 97.5l21 69q2 7 7.5 11.5t9.5 4.5q8 0 4 -14q-61 -189 -83 -241q42 21 81.5 55
t69.5 71q6 8 11 8t5 -6q0 -5 -4 -10q-31 -41 -76 -78.5t-94 -62.5q-60 -137 -136.5 -237t-148.5 -146q-46 -29 -81 -29q-23 0 -36.5 13.5zM-310 -419q67 42 140 137.5t128 221.5q-66 -29 -140 -78.5t-133.5 -106t-82.5 -105.5q-16 -35 -16 -59q0 -18 9 -27t25 -9q30 0 70 26
z" />
    <glyph glyph-name="k" unicode="k" horiz-adv-x="227" 
d="M20 115q49 143 99 247.5t124 208.5q33 43 49 43q11 0 11 -21t-10.5 -56t-30.5 -77q-40 -84 -93 -165t-124 -174q-18 -44 -28 -76.5t-13 -40.5q34 88 74 130t70 42q12 0 18.5 -7t6.5 -18q0 -23 -27.5 -50.5t-84.5 -46.5q-1 -4 -1 -11q0 -18 10 -27.5t28 -9.5q29 0 69 24
t76 67q5 6 9 6q3 0 3 -5q0 -6 -5 -12q-36 -46 -79.5 -72t-78.5 -26q-24 0 -38.5 14t-14.5 41q-11 -22 -22 -52q-6 -16 -13 -25t-12 -9q-8 0 -8 17q0 36 36 141zM175.5 334.5q59.5 95.5 89.5 172.5q17 44 17 67q0 7 -4 7q-10 0 -52 -63q-50 -74 -98 -176.5t-78 -192.5
q66 90 125.5 185.5zM65 74q43 16 65 36t22 34q0 5 -3.5 8.5t-9.5 3.5q-15 0 -37.5 -20t-47.5 -63z" />
    <glyph glyph-name="l" unicode="l" horiz-adv-x="175" 
d="M22 14.5q-12 14.5 -12 42.5q0 6 2 20q10 71 52 176q43 106 86 176q49 84 87 130t55 46q10 0 10 -18q0 -24 -17.5 -74t-52.5 -121q-17 -34 -37.5 -67t-56.5 -86q-45 -66 -76 -105l-25 -32q-8 -25 -8 -48q0 -38 30 -38q23 0 57 21t73 60q8 8 14 8q7 0 4 -8q-2 -4 -6 -8
q-43 -44 -80 -66.5t-64 -22.5q-23 0 -35 14.5zM124 247q63 91 92 151q32 64 50 110t18 62q0 8 -5 8q-10 0 -41.5 -42.5t-73.5 -115.5q-43 -71 -84 -171q-30 -76 -37 -117q46 62 81 115z" />
    <glyph glyph-name="m" unicode="m" horiz-adv-x="445" 
d="M-8 10q10 57 25.5 99t44.5 99q7 13 15 13q5 0 5 -6t-4 -11q-54 -117 -52 -137q28 58 70.5 94t74.5 36q33 0 33 -53q0 -25 -5.5 -58t-6.5 -41q36 50 73.5 81.5t60.5 31.5q17 0 23 -11t6 -31l-1 -24q-1 -8 -1 -23q0 -34 21 -34q16 0 40 16.5t46 45.5q6 7 11 7t5 -5t-4 -10
q-25 -35 -52 -52.5t-49 -17.5q-21 0 -28 14t-7 39l1 35q0 15 -3 23t-12 8q-21 0 -64 -41.5t-74 -89.5q-5 -5 -10 -5q-3 0 -5 2t-1 4l6 33q13 67 13 98q0 41 -24 41q-17 0 -44 -21.5t-55.5 -60.5t-50.5 -88q-6 -9 -14 -9q-9 0 -7 9z" />
    <glyph glyph-name="n" unicode="n" horiz-adv-x="284" 
d="M151 32q0 22 18 78q6 19 11 38t5 30q0 22 -17 22q-19 0 -50 -25.5t-60 -69.5t-44 -95q-6 -9 -14 -9q-9 0 -7 9q9 53 23 95q16 49 44 103q8 14 17 14q3 0 4 -3t-1 -8q-1 -1 -1 -3t-2 -4q-15 -29 -30 -66.5t-19 -56.5q22 47 66.5 90.5t78.5 43.5q31 0 31 -32q0 -21 -19 -78
q-1 -4 -8.5 -28t-7.5 -38q0 -20 18 -20q20 0 51 21t60 57q6 7 12 7q3 0 4.5 -2.5t-0.5 -6.5t-4 -6q-28 -40 -65.5 -65t-63.5 -25q-30 0 -30 33z" />
    <glyph glyph-name="o" unicode="o" horiz-adv-x="221" 
d="M67 1q-26 0 -42 15.5t-16 44.5q0 23 10 49q18 51 41 82q6 7 12 9t6 -5q17 17 37 26t38 9q25 0 40.5 -15.5t15.5 -44.5q0 -23 -10 -50q-14 -39 -38 -68q42 12 81 45q4 4 7 3.5t3 -3.5q0 -10 -17 -23q-51 -36 -95 -44q-36 -30 -73 -30zM178 116q13 30 13 53q0 22 -11.5 34
t-29.5 12q-25 0 -49.5 -19t-35.5 -50q-6 -18 -6 -36q0 -28 15.5 -45.5t45.5 -17.5q10 0 15 1q24 23 43 68zM58.5 57q-19.5 25 -17.5 59l-5 -10q-10 -24 -10 -45q0 -22 12 -33.5t31 -11.5q21 0 44 14q-35 2 -54.5 27z" />
    <glyph glyph-name="p" unicode="p" horiz-adv-x="237" 
d="M-105 -332q0 16 12 66q9 32 19 77q5 18 13 49.5t14 53.5q68 242 186 423q4 4 6 4q6 0 6 -7q0 -5 -5 -15q-45 -69 -98 -188t-68 -184q33 76 70.5 132t71.5 84.5t57 28.5q28 0 28 -41q0 -21 -7 -48q18 3 29 3q5 0 31 -2q8 0 8 -7q0 -4 -4.5 -7.5t-10.5 -2.5q-14 2 -26 2
q-17 0 -32 -4q-22 -58 -57.5 -86.5t-64.5 -28.5q-12 0 -17 5q-8 10 -8 20q0 28 36 58.5t97 45.5q8 27 8 47q0 27 -17 27q-23 0 -64.5 -47t-84.5 -129q-64 -123 -92 -258l-19 -81q-3 -7 -9 -7q-3 0 -5.5 2t-1.5 5q-1 3 -1 10zM77 -12q22 0 51.5 23t46.5 70q-31 -6 -56 -20.5
t-39.5 -31.5t-14.5 -30q0 -4 2 -8q2 -3 10 -3z" />
    <glyph glyph-name="q" unicode="q" horiz-adv-x="286" 
d="M39 -385q0 38 6 86.5t14 78.5q-19 10 -90 39q-16 6 -24 8l-23 9q-12 5 -12 11q0 7 16 17q7 4 40 19l19 9q22 11 43 20q48 22 80 38l42 111q-16 -16 -39.5 -31.5t-40.5 -23.5q-19 -8 -32 -8q-18 0 -28.5 11.5t-10.5 32.5q0 39 32 87t77 71q27 15 51 15q34 0 43 -32
q9 16 15 16q4 0 4 -8q0 -7 -3 -13q-26 -55 -88 -219q45 21 90 56t80 82q6 8 12 8q5 0 5 -6q0 -5 -4 -10q-42 -53 -87.5 -89.5t-102.5 -62.5q-11 -35 -35 -125l-5 -20q46 -25 46 -85q0 -53 -36 -118q-16 -30 -35 -30q-13 0 -16 15q-3 13 -3 41zM169 109q8 19 11.5 29t5.5 14
q1 20 -9 32t-26 12q-12 0 -22 -5q-41 -19 -72.5 -60t-37.5 -81q-4 -33 24 -33q14 0 32 9q56 29 94 83zM82 -138q11 40 18 64l-27 -11l-107 -51q-16 -7 -16 -12q0 -4 11 -8q12 -6 46 -20l58 -26q6 24 17 64zM101.5 -347q8.5 27 8.5 52q0 46 -32 66q-7 -27 -13.5 -74t-6.5 -77
q0 -31 8 -31q5 0 15 16q12 21 20.5 48z" />
    <glyph glyph-name="r" unicode="r" horiz-adv-x="225" 
d="M-7 10q9 53 23 95q16 49 44 103q8 14 17 14q3 0 4 -3t-1 -8q-1 -1 -1 -3t-2 -4q-15 -29 -30 -66.5t-19 -56.5q26 56 57.5 96.5t63.5 37.5q11 -1 17 -12t12 -33q6 -26 14 -40t25 -14q13 0 28 8q7 4 13 4t6 -4q0 -5 -9 -10q-26 -13 -43 -13q-22 0 -32.5 16.5t-17.5 46.5
q-5 19 -9 27t-11 8q-16 0 -40 -25.5t-48 -69t-40 -94.5q-6 -9 -14 -9q-9 0 -7 9z" />
    <glyph glyph-name="s" unicode="s" horiz-adv-x="199" 
d="M-56.5 -182.5q-10.5 10.5 -10.5 27.5q0 31 30 70.5t81 66.5q-13 32 -20 57.5t-7 50.5q0 20 6 39q16 44 48.5 70t63.5 26q24 0 39 -16.5t15 -48.5q0 -8 -7 -8q-2 0 -4 2t-2 6q-1 26 -12.5 38.5t-28.5 12.5q-26 0 -53.5 -24t-40.5 -60q-5 -12 -5 -33q0 -23 6 -45.5
t19 -57.5q38 17 80.5 46.5t72.5 59.5q6 6 11 6t5 -5q0 -4 -4 -9q-20 -23 -66.5 -57t-91.5 -58q6 -24 6 -46q0 -37 -16 -64.5t-39.5 -42t-45.5 -14.5q-19 0 -29.5 10.5zM-24 -176q17 0 35.5 12t31.5 35.5t13 53.5q0 19 -6 40q-45 -22 -71.5 -56t-26.5 -60q0 -20 15 -24
q3 -1 9 -1z" />
    <glyph glyph-name="t" unicode="t" horiz-adv-x="175" 
d="M22 14.5q-12 14.5 -12 42.5q0 6 2 20q9 58 40 136t78 162q-86 6 -123 6q-58 0 -96 -8.5t-58 -32.5q-7 -8 -13 -8q-5 0 -5 5q0 7 10 17q24 24 64 32.5t97 8.5q40 0 132 -6q37 65 77 124q4 6 8.5 10t7.5 4q4 0 4 -4q0 -7 -8 -18q-40 -60 -72 -117q63 -5 112 -5
q66 0 110.5 8.5t76.5 35.5q13 11 22 11q4 0 4 -4q0 -3 -3.5 -7.5t-8.5 -8.5q-45 -32 -90.5 -40t-122.5 -8q-35 0 -107 4q-53 -96 -86 -183t-33 -137q0 -38 30 -38q23 0 57 21t73 60q8 8 14 8q7 0 4 -8q-2 -4 -6 -8q-43 -44 -80 -66.5t-64 -22.5q-23 0 -35 14.5z" />
    <glyph glyph-name="u" unicode="u" horiz-adv-x="275" 
d="M31 0q-26 0 -26 37q0 33 19 82.5t49 94.5q8 9 14 9q4 0 5.5 -4.5t-1.5 -9.5q-29 -44 -49 -92.5t-20 -75.5t23 -21q27 7 66.5 50.5t74.5 100.5q5 11 17 31q6 10 14 10t8 -6q0 -5 -4 -9q-25 -42 -42 -83.5t-17 -66.5q0 -28 23 -28q20 0 48.5 23t56.5 55q7 7 11 7q5 0 5 -6
q0 -5 -4 -9q-30 -37 -63 -62.5t-58 -25.5q-38 0 -38 42q0 20 12 58q-28 -39 -59.5 -67t-53.5 -33q-4 -1 -11 -1z" />
    <glyph glyph-name="v" unicode="v" horiz-adv-x="209" 
d="M17.5 13.5q-9.5 12.5 -9.5 35.5q0 32 17 76.5t45 88.5q5 5 11 5q4 0 6 -3t-1 -7q-27 -42 -44.5 -86t-17.5 -72q0 -33 27 -33q21 0 54 27t58.5 85.5t25.5 147.5q0 10 7 10q5 0 9.5 -5t3.5 -13q-5 -92 -34 -152.5t-65.5 -88.5t-62.5 -28q-20 0 -29.5 12.5z" />
    <glyph glyph-name="w" unicode="w" horiz-adv-x="280" 
d="M15.5 11.5q-9.5 12.5 -9.5 35.5q0 31 18.5 74t58.5 93q5 5 11 5q5 0 7.5 -3t-1.5 -7q-39 -48 -58 -89.5t-19 -69.5q0 -34 21 -34q17 0 41.5 26.5t47.5 76.5q5 12 14 12q5 0 7.5 -3.5t-0.5 -9.5q-24 -52 -24 -69q0 -15 6 -22.5t16 -7.5q21 0 48 31t46 90t18 138v1
q0 10 7 10q4 0 6.5 -5t2.5 -14q0 -83 -21.5 -144t-52.5 -92.5t-58 -31.5q-17 0 -26.5 12t-8.5 35q-19 -25 -37.5 -37.5t-34.5 -12.5t-25.5 12.5z" />
    <glyph glyph-name="x" unicode="x" horiz-adv-x="235" 
d="M-69 -88q0 5 4 10q56 71 92 110q-14 21 -14 55q0 32 9.5 67.5t19.5 54.5q5 10 15 10q5 0 7 -2.5t0 -6.5q-10 -15 -20.5 -49t-10.5 -63q0 -33 7 -51q90 100 183 178q3 2 8 2t5.5 -4.5t-1.5 -6.5l-34 -31q-67 -61 -96 -89t-58 -62q15 -21 53 -21q33 0 72.5 22.5t75.5 61.5
q6 6 13 6q5 0 5 -4q0 -2 -6 -10q-43 -46 -86 -68.5t-80 -22.5q-38 0 -58 23q-47 -57 -88 -109q-4 -5 -11 -5q-6 0 -6 5z" />
    <glyph glyph-name="y" unicode="y" horiz-adv-x="275" 
d="M-270.5 -450.5q-13.5 13.5 -13.5 38.5q0 29 19 67q28 55 91 115t141.5 111.5t150.5 81.5q11 27 30 80.5t32 97.5v1q-34 -59 -75 -100.5t-72 -41.5q-27 0 -27 39q0 33 18.5 81.5t48.5 93.5q8 9 14 9q4 0 5.5 -4.5t-1.5 -9.5q-28 -44 -48 -91.5t-20 -74.5t22 -23
q57 13 156 190q2 7 7.5 11.5t9.5 4.5q8 0 4 -14q-61 -189 -83 -241q42 21 81.5 55t69.5 71q6 8 11 8t5 -6q0 -5 -4 -10q-31 -41 -76 -78.5t-94 -62.5q-60 -137 -136.5 -237t-148.5 -146q-46 -29 -81 -29q-23 0 -36.5 13.5zM-160 -419q67 43 140.5 138.5t127.5 220.5
q-66 -29 -140.5 -78.5t-134 -106t-81.5 -105.5q-16 -35 -16 -59q0 -18 9 -27t25 -9q30 0 70 26z" />
    <glyph glyph-name="z" unicode="z" horiz-adv-x="297" 
d="M-248.5 -450.5q-13.5 13.5 -13.5 38.5q0 29 19 67q28 55 91 115t141.5 111.5t150.5 81.5q10 35 10 50q0 28 -22 28q-16 0 -42 -13q-8 -3 -11 -3q-10 0 -8 7q0 4 4 9q56 54 78 102q7 15 7 30q0 12 -6 19.5t-16 7.5q-18 0 -45.5 -26.5t-59.5 -82.5q-3 -6 -8 -6
q-4 0 -5.5 4.5t0.5 8.5q34 62 66.5 91t57.5 29q16 0 25.5 -11t9.5 -28q0 -16 -7 -31q-9 -24 -20 -40t-14 -20l-13 -18q-8 -10 -9 -14q12 2 16 2q20 0 30.5 -11.5t10.5 -32.5q0 -17 -8 -43q42 21 81.5 55t69.5 71q6 8 11 8t5 -6q0 -5 -4 -10q-31 -41 -75.5 -78.5t-93.5 -62.5
q-51 -133 -130.5 -234t-155.5 -149q-46 -29 -81 -29q-23 0 -36.5 13.5zM-138 -419q71 46 147 141.5t122 217.5q-66 -29 -140.5 -78.5t-134.5 -106t-82 -105.5q-16 -35 -16 -59q0 -18 9 -27t25 -9q30 0 70 26z" />
    <glyph glyph-name="braceleft" unicode="{" horiz-adv-x="379" 
d="M281 -126q-59 0 -104 22q-32 16 -51 48q-34 54 -30 104q1 29 7 82q1 10 2.5 19.5t2.5 19.5q2 19 -2 24.5t-25 12.5q-5 2 -8 5q-5 7 -2 10q12 14 19 19q39 28 39 77q0 25 -11 69q-2 15 -8 35l-5 23q-6 40 -7 60q4 102 99 154q10 5 32 7q14 0 23 -10.5t8 -26.5v-1
q0 -2 -2 -4t-4 -2q-2 -1 -4.5 -0.5t-4.5 2.5q-1 2 -1.5 5.5t-1.5 5.5q-9 19 -26 13q-4 -1 -20 -8q-61 -39 -79 -108q-3 -12 -3 -24q0 -9 1 -14q2 -18 10 -61l4 -20l14 -70q3 -13 3 -26q0 -40 -25 -72q-4 -5 -5.5 -8l-2.5 -5q7 -17 10 -28.5t3 -20.5t-3 -32q-2 -9 -4.5 -22.5
t-4.5 -31.5q-3 -19 -3 -39q0 -48 21 -89q27 -55 81 -69q5 -1 25.5 -6t38.5 -4q34 0 57 16q1 1 2 0l2 -2q2 -2 0 -5q-3 -17 -21 -22q-24 -2 -36 -2z" />
    <glyph glyph-name="bar" unicode="|" horiz-adv-x="389" 
d="M72 -179q0 3 -1.5 9.5t-0.5 12.5q4 44 9 67q11 55 39 167q20 85 66 257l6 23q7 30 18 60q32 105 54 167l23 74q16 56 22 73q2 5 7 23q4 10 10 30q3 7 8.5 12t9.5 3q10 -2 6 -15q-2 -7 -4.5 -15.5t-5.5 -18.5q-24 -88 -74 -245l-36 -114q-43 -138 -74 -258l-15 -58
q-9 -39 -13 -52q-29 -109 -38 -193l-2 -7l-5 -5q-7 0 -9 3z" />
    <glyph glyph-name="braceright" unicode="}" horiz-adv-x="379" 
d="M71 -102q-2 3 0 5l2 2t2 0q23 -16 57 -16q18 -1 38.5 4t25.5 6q54 14 81 69q21 41 21 89q0 20 -3 39q-2 18 -4.5 31.5t-4.5 22.5q-3 23 -3 32t3 20.5t10 28.5l-2.5 5t-5.5 8q-25 32 -25 72q0 13 3 26l14 70l4 20q8 43 10 61q1 5 1 14q0 12 -3 24q-18 69 -79 108
q-16 7 -20 8q-3 1 -8 1q-10 0 -18 -14q-1 -2 -1.5 -5.5t-1.5 -5.5q-2 -2 -4.5 -2.5t-4.5 0.5q-2 0 -4.5 2.5t-1.5 4.5q-1 16 8 26.5t23 10.5q22 -2 32 -7q95 -52 99 -154q-1 -20 -7 -60l-5 -23q-6 -20 -8 -35q-11 -44 -11 -69q0 -49 39 -77q7 -5 19 -19l1 -2q0 -2 -3 -8
q-3 -3 -8 -5q-17 -5 -22.5 -10t-5.5 -15l1 -12q1 -10 2.5 -19.5t2.5 -19.5q6 -53 7 -82q4 -50 -30 -104q-19 -32 -51 -48q-45 -22 -104 -22q-12 0 -36 2q-18 5 -21 22z" />
    <glyph glyph-name="asciitilde" unicode="~" horiz-adv-x="446" 
d="M268 140q-19 0 -39 19q-22 21 -35 53q-5 13 -17 39q-2 4 -6.5 9t-7.5 9q-17 -11 -30 -25.5t-30 -38.5q-14 -20 -28 -37q-1 3 -3 6t-2 6t2 7.5t3 6.5q8 21 21.5 37.5t37.5 40.5q10 10 21 10q14 0 28 -14q6 -6 11.5 -15.5t6.5 -12.5q5 -10 8.5 -19t6.5 -16q12 -22 22 -36
q10 -16 21 -16q8 0 22 11q21 17 32 31q9 10 25 30l24 29q2 2 10.5 12t20.5 14q4 2 6 2q4 0 7 -5l-19 -25q-28 -38 -43 -55q-26 -30 -42 -43q-17 -14 -34 -14z" />
    <glyph glyph-name="exclamdown" unicode="&#xa1;" horiz-adv-x="317" 
d="M242 238q-6 6 -6 14t6 14t14 6q9 0 15 -6t6 -14t-6 -14t-15 -6q-8 0 -14 6zM78 -281q-5 0 -7 3t1 8q40 65 91.5 208t72.5 242q1 10 8 10q4 0 8 -4.5t2 -8.5q-18 -81 -64 -213t-86 -208q-3 -7 -20 -34q-1 -3 -6 -3z" />
    <glyph glyph-name="cent" unicode="&#xa2;" horiz-adv-x="332" 
d="M106 -107q-4 0 -8 4.5t-2 8.5q14 57 25 95q-26 1 -38.5 14.5t-12.5 36.5q0 29 18 65.5t48 66t63 40.5q27 65 47 103q3 7 20 34q2 3 6 3q5 0 7 -3t-1 -8q-27 -44 -60 -125q4 1 12 1q16 0 25.5 -10t9.5 -26q0 -8 -1 -12q0 -4 -2 -8l-8 -19q-5 -6 -10 -6q-2 0 -4 1.5t-1 3.5
q1 7 4.5 18t3.5 17q0 10 -7 16.5t-18 6.5q-7 0 -11 -1q-35 -86 -66 -189q33 5 69 25t60 51q6 8 12 8q3 0 4.5 -2t0.5 -6q0 -1 -5 -8q-29 -34 -69.5 -58t-76.5 -29q-17 -56 -26 -99q-1 -10 -8 -10zM191 204q-26 -11 -49.5 -36t-38 -55t-14.5 -53q0 -39 38 -40q28 90 64 184z
" />
    <glyph glyph-name="sterling" unicode="&#xa3;" horiz-adv-x="585" 
d="M75 -1q-3 3 -4 7t0 7q1 4 4.5 7.5t8.5 5.5q7 4 24 6q6 1 17 1q7 0 11 -1q3 -1 9 -1q22 0 43 23q35 31 54 66q24 40 41.5 88t26.5 93l-22 -4l-24 -8q-37 -10 -60 -24q-1 -1 -8 -5t-15 -4q-3 0 -9 2l6 8q6 3 15 7t21 8q25 9 32 11q7 3 15 5.5t17 5.5q5 2 17 5.5t16 11.5
t5 27q2 20 11 92q5 28 7 38q2 9 7 34q7 20 20 36q25 23 50 23q13 0 22.5 -7t13.5 -19q3 -12 3 -23q0 -25 -16 -50q-4 -5 -9 -5q-4 0 -4 7q0 8 6 18q4 13 4 28q0 12 -3 22q-3 9 -10 16q-3 4 -9 4q-9 0 -15 -6q-13 -13 -20 -24q-13 -25 -16 -44l-6 -51q-9 -88 -15 -115
q70 10 88 11q32 3 62 3q3 0 8 -2t9 -3l-21 1q-36 0 -78 -6t-71 -16q-13 -81 -38 -133q-33 -78 -94 -130l-13 -14q3 -5 4 -5q66 -19 120 -19q62 0 148 21q46 9 74 28l6 2h3q1 -2 1 -4t-1 -3q-4 -2 -8 -5t-8 -5l-20 -7q-6 -2 -20 -7t-24 -7q-47 -13 -124 -20q-20 -2 -29 -2
q-28 0 -57 5t-35 6l-26 4q-12 2 -17 2q-16 0 -35 -10q-19 -12 -52 -12q-9 0 -14 5zM134 19q-9 6 -18 6q-8 0 -15 -4q-3 -1 -9 -10v-1q0 -4 3.5 -6.5t7.5 -2.5q19 4 31 18z" />
    <glyph glyph-name="currency" unicode="&#xa4;" horiz-adv-x="403" 
d="M70 -69q0 7 4 12q3 5 14 19.5t31 44.5q-15 11 -15 37q0 37 22.5 75t57.5 66q-7 22 -8 29l-19 62q-1 2 -1 6q0 9 7 11h1q8 0 12 -15l21 -82q38 27 71 27q18 0 27 -4q34 54 49 75q6 8 12 8q7 0 7 -7t-5 -15l-49 -70q11 -11 11 -29q0 -29 -24.5 -67.5t-59.5 -69.5l22 -82
l1 -2q2 -4 2 -6q0 -5 -5 -7q-3 0 -7 3.5t-5 9.5l-19 74q-45 -35 -82 -35q-5 0 -13 2l-46 -67v-2q0 -6 -5 -7t-8 1q-1 1 -1 5zM215 47.5q36 28.5 61.5 67t25.5 64.5q0 27 -31 27q-29 0 -64 -24.5t-59 -61t-24 -71.5q0 -30 27 -30q28 0 64 28.5z" />
    <glyph glyph-name="yen" unicode="&#xa5;" horiz-adv-x="473" 
d="M188 -16q-5 0 -9.5 6t-4.5 12q0 33 1 50l1 51l1 28q0 6 -2 22h-7q-8 0 -11 -2l-28 -11l-28 -12q-1 -1 -3.5 0.5t-4.5 2.5q3 5 4 6l40 19q11 4 20.5 7.5t17.5 6.5l4 29q3 28 8 48q-27 -5 -49.5 -13.5t-26.5 -10.5q-4 -1 -31 -11q-4 -2 -8 -2q-3 0 -2 4t3 5q19 9 48 19
q35 14 34 13l28 10q-36 50 -36 137q0 74 24 156q4 14 10 21t11 7q4 0 7 -3.5t3 -8.5t-3 -10q-6 -6 -7 -9q-10 -34 -16.5 -79.5t-6.5 -86.5q0 -66 17 -96q2 -5 11 -14q13 4 18 3q4 -1 10 -1q10 0 18.5 5.5t19.5 16.5q39 43 70 105q9 18 25 54q20 48 38 80q4 6 10 18l9 18
q1 4 9 8q5 3 7 1q1 -1 2 -3t0 -3l-21 -51q-6 -15 -20 -45q-14 -27 -23 -50q-29 -69 -81 -132q-3 -3 17 -0.5t54 10.5t73 20v-7q-16 -6 -62 -19t-106 -29q-11 -9 -21.5 -13t-13.5 -5q-18 -34 -17 -73q14 0 46 6q35 7 49 7l13 -1l-46 -9l-24 -6q-11 -4 -21 -6q-16 -4 -21 -9.5
t-6 -19.5q-3 -51 -7 -151q-1 -10 -7 -10z" />
    <glyph glyph-name="brokenbar" unicode="&#xa6;" horiz-adv-x="339" 
d="M189 278.5q-5 -4.5 -10 -4.5q-10 0 -10 13q0 6 1 9l25 76l17 51l23 74q16 56 22 73l6 20q3 11 11 33q3 7 8.5 12t9.5 3q10 -2 6 -15q-2 -7 -4.5 -15.5t-5.5 -18.5q-18 -71 -43 -149.5t-30 -93.5l-18 -54q-3 -9 -8 -13.5zM72 -179q0 3 -1.5 9.5t-0.5 12.5q4 44 9 67
q11 55 39 167q10 43 32 129q3 10 9 16t11 6q7 0 7 -8q0 -4 -3 -12q-14 -50 -20 -75l-15 -58q-9 -39 -13 -52q-29 -109 -38 -193l-2 -7l-5 -5q-7 0 -9 3z" />
    <glyph glyph-name="section" unicode="&#xa7;" horiz-adv-x="391" 
d="M75 -231q22 15 41 50q21 38 34 88q5 22 5 38q0 24 -9 47q-21 50 -27 71q-14 46 -22 80q-2 9 -2 29q0 16 1 24q4 41 46 70q9 6 17.5 10t13.5 7q-5 12 -15 32q-11 22 -11 42q0 32 24 64q41 55 103 67q14 3 26 3q7 0 19 -2q32 -9 32 -38q0 -12 -4 -24q-2 -6 -10 -16l-12 -2
l10 30q2 8 2 12q0 11 -6 18q-10 12 -19 12q-14 0 -21 -3q-69 -20 -106 -80q-12 -19 -12 -43q0 -13 2 -19q11 -45 37 -64q14 -10 17 -28q1 -9 9 -25q9 -18 9 -38q0 -23 -12 -46q-36 -64 -52 -88q-5 -8 -9.5 -14t-7 -11t-2.5 -9q0 -10 8 -31q6 -20 6 -38t-4 -33
q-19 -65 -40 -102q-7 -12 -25 -32q-8 -9 -14 -11.5t-25 -4.5q4 7 5 8zM158 48q3 1 4 3q43 57 56 110q3 12 3 24q0 19 -7 34q-12 26 -20 37q-6 10 -14 10q-4 0 -12 -4q-48 -25 -48 -89q0 -27 9.5 -63.5t23.5 -64.5q2 2 5 3z" />
    <glyph glyph-name="dieresis" unicode="&#xa8;" horiz-adv-x="299" 
d="M80.5 599.5q-10.5 10.5 -10.5 24.5t10.5 24t24.5 10t24 -10t10 -24t-10 -24.5t-24 -10.5t-24.5 10.5zM200.5 599.5q-10.5 10.5 -10.5 24.5t10.5 24t24.5 10t24 -10t10 -24t-10 -24.5t-24 -10.5t-24.5 10.5z" />
    <glyph glyph-name="copyright" unicode="&#xa9;" horiz-adv-x="520" 
d="M202 29q-53 14 -86 49t-41 89q-3 15 -3 32l-2 21q1 135 102 229q28 27 68 46q29 14 61 14q49 0 90.5 -34t65 -87.5t23.5 -107.5q0 -52 -22 -115q-22 -59 -73 -99q-54 -43 -130 -43q-31 0 -53 6zM257 30q68 0 119 48q83 76 83 201q0 11 -2 37q-4 43 -27.5 85.5t-59 69
t-72.5 26.5q-19 0 -34 -7q-21 -8 -35 -17t-31 -23q-102 -93 -102 -244q0 -60 29 -108q30 -49 82 -62q26 -6 50 -6zM168 173q-5 23 -5 40q0 21 6 40q13 45 42 70q19 16 39 16q15 0 24.5 -7.5t10.5 -21.5q2 -29 -14 -42q-3 -2 -7 0q-2 0 -3.5 1.5t-1.5 3.5q4 16 4 25v4
q0 9 -3 18q-1 4 -6.5 6t-9.5 0q-8 -3 -12 -9q-42 -46 -42 -103q0 -22 6 -45q1 -4 8 -16q9 -14 23 -9q6 1 25 8q6 3 25.5 10t33.5 16q1 1 6 4t11 0q-18 -16 -55 -31.5t-56 -15.5q-41 0 -49 38z" />
    <glyph glyph-name="guillemotleft" unicode="&#xab;" horiz-adv-x="470" 
d="M335 66l-188 101l-46 25q-13 8 -22 14t-9 11q0 6 23 19l76 39q22 11 77 39t91 44l4 2q8 0 8 -7q0 -5 -5 -7q-43 -19 -122 -61t-115 -64q-5 -2 -5 -6q0 -3 2.5 -5l2.5 -2l125 -67q59 -34 113 -62q8 -8 8 -13q0 -2 -1.5 -3.5t-4.5 -1.5q-4 0 -12 5zM413 90q-40 23 -119 64
t-76 38q-31 18 -31 24q0 5 6.5 10t16.5 10q15 8 45 22q100 50 155 75q3 1 7 1q3 0 4.5 -1.5t1.5 -3.5q0 -6 -6 -9q-43 -19 -100.5 -49t-92.5 -51q-5 -2 -5 -6q0 -2 5 -7l51 -27q80 -41 148 -78q7 -5 7 -12q0 -4 -6 -4t-11 4z" />
    <glyph glyph-name="registered" unicode="&#xae;" horiz-adv-x="445" 
d="M271 491q46 32 75 78q21 36 33 79q7 30 7 49q0 34 -13 64q-7 17 -17 38l-18 38l-8 14q1 0 2.5 0.5t3.5 2.5q2 -4 9 -14q14 -29 36 -71q18 -40 18 -80q0 -35 -11 -64q-26 -74 -74 -116q-21 -19 -34 -26q-31 -19 -65 -19q-25 0 -53 11q-44 17 -68 52.5t-24 83.5q0 45 17 93
q35 88 104 147q38 34 87 52q34 12 61 12q15 1 39 -7q27 -11 27 -39q0 -23 -16 -34q-4 2 -3.5 4.5t1.5 4.5q7 11 7 23q0 17 -10 29.5t-27 12.5q-17 1 -42 -4q-41 -10 -85 -40q-78 -57 -119 -152q-24 -55 -24 -103q0 -35 14 -68q30 -62 98 -70q34 -4 72 19zM173.5 524.5
q-2.5 1.5 -1.5 4.5q-2 6 -1.5 13t0.5 10q1 9 3.5 25t5.5 28q2 6 2.5 20t3.5 22q4 9 6.5 21t3.5 18l9 41l5 21q-6 2 -9 1t-4 -1q-26 -21 -33 -42q-1 -1 -3 -1.5t-4 0.5q-1 0 -3 4v3q0 12 8 18q20 20 31 29q9 7 17 10q12 7 17 22l13 25q1 2 3 2.5t4 -0.5q1 0 2.5 -2.5
t1.5 -3.5q-1 -5 -3 -12t-4 -13l30 -8q22 -8 22 -26q0 -6 -3 -14q-7 -16 -23 -38t-52 -50q-16 -12 -16 -19q0 -4 4.5 -10.5t5.5 -8.5q12 -16 19 -24q5 -7 11.5 -15t13.5 -18q1 -2 5.5 -5t3.5 -9q-9 3 -15.5 9.5l-8.5 8.5l-20 21q-2 2 -8 10t-14 12q-7 -12 -8.5 -17t-3.5 -24
q-4 -23 -7 -38q-4 -1 -6.5 0.5zM215 669.5q1 -0.5 2 0.5q36 25 56 66q4 9 4 25v1q0 9 -11 13q-11 2 -20 -2t-12 -14l-23 -79q0 -1 2 -11q1 1 2 0.5z" />
    <glyph glyph-name="macron" unicode="&#xaf;" horiz-adv-x="410" 
d="M80.5 621q-10.5 5 -10.5 10q0 7 13 7q32 2 89 2q123 0 198 -15l-262 -8q-17 -1 -27.5 4z" />
    <glyph glyph-name="degree" unicode="&#xb0;" horiz-adv-x="309" 
d="M70 583q0 5 2 17q19 82 92 126q17 7 33 7q32 0 52 -24t20 -59q0 -29 -16 -57q-18 -32 -51 -47q-33 -14 -60 -14q-26 0 -49 12t-23 39zM145 543q17 0 35 8t31 22q16 17 24.5 37t8.5 39q0 26 -14 43t-39 17q-10 0 -22 -3q-10 -1 -20 -11q-27 -27 -46 -74q-6 -15 -6 -31
q0 -17 6 -27t20 -16q9 -4 22 -4z" />
    <glyph glyph-name="plusminus" unicode="&#xb1;" horiz-adv-x="462" 
d="M255 108q-3 3 -4 7q0 5 4 19l18 64l19 61l-2 8q-10 2 -17 1q-19 -4 -26 -5l-79 -17q-10 -2 -21.5 -8t-16.5 -8q-4 0 -6 2q0 8 2 10q17 10 23 12l89 20q20 4 31 5l20 3q11 2 16 12q4 10 16 42q29 78 63 141q7 13 9 14q8 8 15 8q5 0 7 -5t-2 -11q-16 -22 -26 -44.5
t-25 -61.5l-7.5 -20t-10.5 -26l-8 -19q-3 -9 -3 -15t5 -8t17 -3l67 -1q-7 -5 -22 -5q-8 0 -31 -0.5t-44 -7.5q-10 -21 -12 -25q-3 -8 -24 -68q-4 -14 -14 -42l-6 -22q0 -1 -2.5 -5.5t-6.5 -4.5q-2 0 -5 3zM350 56q-68 4 -102 4q-52 0 -160 -6l-18 6q74 9 195 9q87 0 136 -9
h4q6 0 4 -7z" />
    <glyph glyph-name="acute" unicode="&#xb4;" horiz-adv-x="246" 
d="M79 564q-3 0 -6 3.5t-3 7.5q0 5 5 10q6 4 11.5 11t8.5 11l78 100q5 5 10.5 12.5t8.5 11.5q1 2 5 2t7 -3t1 -5l-30 -40l-15 -20l-26 -33q-6 -9 -20 -27q-6 -8 -11.5 -14.5t-9.5 -11.5q-7 -10 -9 -11q-1 -4 -5 -4z" />
    <glyph glyph-name="paragraph" unicode="&#xb6;" horiz-adv-x="574" 
d="M229 -210q-2 15 -1 24q5 40 17 90q40 166 52 215l13 53q34 140 67.5 251t78.5 217l13 31q18 45 36 83q6 12 11.5 19t17.5 14q-5 -21 -14 -43t-12 -30q-50 -129 -81.5 -216t-55.5 -174l-17 -62q-24 -84 -45 -168l-15 -59q-15 -58 -29 -119.5t-22 -111.5q0 -7 -3 -11
q-2 -5 -5 -6q-6 0 -6 3zM77 -246q-7 0 -7 8q2 27 6 40q12 52 30 113q69 235 118 397q1 5 3 11.5t3 15.5q-3 3 -10 8.5t-14 8.5q-37 19 -37 64q0 14 3 27q28 130 149 259q8 9 21 19t21 16q6 5 26 14q8 3 15 3t10 -4q2 -4 2 -6q0 -8 -10 -18q-17 -17 -26 -43q-4 -10 -8 -22
t-9 -25q-61 -166 -93 -267l-5 -16q1 2 -42 -127q-15 -44 -29 -95l-16 -52q-14 -41 -15 -46q-6 -20 -8 -30q-12 -44 -19 -65l-12 -42q-7 -29 -15 -52q-7 -20 -10 -43q-1 -6 -5 -21.5t-9 -28.5q-3 -1 -8 -1z" />
    <glyph glyph-name="periodcentered" unicode="&#xb7;" horiz-adv-x="151" 
d="M76 111q-6 6 -6 14t6 14t15 6q8 0 14 -6t6 -14t-6 -14t-14 -6q-9 0 -15 6z" />
    <glyph glyph-name="cedilla" unicode="&#xb8;" horiz-adv-x="315" 
d="M70.5 -243q-2.5 5 4.5 5q20 -5 40 -5q38 0 73 14.5t52 42.5q11 18 11 35q0 31 -33 40q-11 3 -26 4.5t-21 2.5q-6 2 -9.5 7t-0.5 11q18 46 44 83l7 2q1 -1 2.5 -3.5t0.5 -4.5q-8 -16 -11 -24l-14 -28q-11 -22 -11 -29q0 -6 6.5 -8.5t21.5 -2.5t28 -5q6 -1 18 -7
q22 -15 22 -40q0 -31 -30 -58q-25 -21 -59.5 -30.5t-71.5 -9.5q-12 0 -32 2q-9 1 -11.5 6z" />
    <glyph glyph-name="guillemotright" unicode="&#xbb;" horiz-adv-x="470" 
d="M148.5 62.5q-1.5 1.5 -1.5 3.5q0 5 8 13q54 28 113 62l125 67l2.5 2t2.5 5q0 4 -5 6q-36 22 -115 64t-122 61q-5 2 -5 7q0 7 8 7l4 -2q36 -16 91 -44t77 -39l76 -39q23 -13 23 -19q0 -5 -9 -11t-22 -14l-46 -25l-188 -101q-7 -5 -12 -5q-3 0 -4.5 1.5zM70 90q0 7 7 12
q68 37 148 78l51 27q4 4 5 7t-5 6q-35 21 -92.5 51t-100.5 49q-6 3 -6 9q0 2 1.5 3.5t4.5 1.5q4 0 7 -1q55 -25 155 -75q30 -14 45 -22q10 -5 16.5 -10t6.5 -10q0 -6 -31 -24q3 3 -76 -38t-119 -64q-5 -4 -11 -4t-6 4z" />
    <glyph glyph-name="onequarter" unicode="&#xbc;" horiz-adv-x="641" 
d="M12 464q-2 1 -2 3q0 3 4 7q5 3 14.5 8t14.5 9l45 154q-6 -6 -12 -5t-5 4t4.5 7.5t5.5 7.5q18 27 28.5 45.5t17.5 38.5q20 58 32 58q1 0 2 -1t1 -3l-2 -8q-8 -20 -13 -30q-47 -102 -77 -212l-16 -55q10 2 13 2q11 0 16 -4t-2 -8q-9 -2 -20.5 -4t-16.5 -4t-14 -5.5
t-15 -4.5q-1 -1 -3 0zM92 -188q1 5 2.5 13t3.5 13q32 78 49 116q73 179 129.5 303t122.5 241l39 73q26 49 31 58q5 8 24 30h1l8 -2q1 0 1.5 -1.5t0.5 -2.5t0.5 -3t-0.5 -3q-17 -18 -36 -56l-10 -18l-70 -131q-50 -90 -94.5 -187.5t-96.5 -221.5q-38 -94 -87 -208
q-1 -3 -11 -18q-1 0 -2 -0.5t-2 0.5q-3 1 -3 5zM509 -141q-2 2 1 7l32 108q-19 1 -69 1q-21 0 -30 6.5t-9 20.5q0 13 7 30q6 18 30 64l44 90q1 4 4.5 6.5t4.5 0.5q2 -6 1 -9q-7 -21 -20.5 -46.5t-15.5 -30.5q-13 -23 -24 -46q-19 -38 -19 -54q0 -15 14 -18q16 -2 28 -2
q7 0 58 3l9 28l36 110q19 57 35 67q5 3 5 -4.5t-4.5 -19t-10.5 -17.5q-10 -14 -16 -31q-16 -48 -40.5 -126.5t-41.5 -136.5q-2 -4 -4 -4z" />
    <glyph glyph-name="onehalf" unicode="&#xbd;" horiz-adv-x="579" 
d="M12 464q-2 1 -2 3q0 3 4 7q5 3 14.5 8t14.5 9l45 154q-6 -6 -12 -5t-5 4t4.5 7.5t5.5 7.5q18 27 28.5 45.5t17.5 38.5q20 58 32 58q1 0 2 -1t1 -3l-2 -8q-8 -20 -13 -30q-47 -102 -77 -212l-16 -55q10 2 13 2q11 0 16 -4t-2 -8q-9 -2 -20.5 -4t-16.5 -4t-14 -5.5
t-15 -4.5q-1 -1 -3 0zM92 -188q1 5 2.5 13t3.5 13q32 78 49 116q73 179 129.5 303t122.5 241l39 73q26 49 31 58q5 8 24 30h1l8 -2q1 0 1.5 -1.5t0.5 -2.5t0.5 -3t-0.5 -3q-17 -18 -36 -56l-10 -18l-70 -131q-50 -90 -94.5 -187.5t-96.5 -221.5q-38 -94 -87 -208
q-1 -3 -11 -18q-1 0 -2 -0.5t-2 0.5q-3 1 -3 5zM434 -86q0 7 4 15q7 16 33 64q31 56 67 127q20 40 20 66q0 19 -11 19q-10 0 -28 -19q-18 -20 -32.5 -47t-14.5 -46t17 -23q1 -1 1 -2.5t-1 -3.5q-4 -4 -8 -4q-11 0 -16 9q-4 10 -4 17q0 23 16.5 55.5t38.5 56.5q20 23 35 23
q9 0 13.5 -8.5t4.5 -23.5q0 -32 -17 -66q-27 -56 -59 -112q-22 -38 -38 -71q-4 -7 -6 -16q-1 -3 -1 -7q0 -8 11 -8l20 1q45 3 50 3q21 0 21 -4q0 -6 -4 -9t-12 -2q-13 3 -29 3q-17 0 -35 -3h-19q-17 2 -17 16z" />
    <glyph glyph-name="threequarters" unicode="&#xbe;" horiz-adv-x="648" 
d="M41 459q-14 0 -22 6.5t-8 15.5q0 17 21 25q6 0 6 -4q0 -2 -2 -4t-5 -2q-11 -8 -11 -15q0 -5 6 -8t15 -3q11 0 24 5q37 16 60.5 58.5t23.5 80.5q0 30 -17 41q-10 7 -20 7q-9 0 -17 -4q-9 -4 -16 -5q-4 0 -3.5 3.5t1.5 4.5l17 15q27 27 41 45.5t21 41.5q1 2 1 6
q0 13 -13 13q-5 0 -15 -5q-15 -9 -25 -21t-23 -32q-2 -3 -2 -7q0 -6 7 -11q3 -1 3 -3t-3.5 -4.5t-7.5 -2.5q-6 0 -9 5q-4 6 -4 11t4 13q22 39 46 56q3 2 19 10q7 4 15 4t13.5 -5t6.5 -13q5 -27 -40 -79l-17 -21q8 -1 13 -4q34 -14 34 -60q0 -42 -27 -87t-62 -60
q-15 -7 -29 -7zM99 -188q1 5 2.5 13t3.5 13q32 78 49 116q73 179 129.5 303t122.5 241l39 73q26 49 31 58q5 8 24 30h1l8 -2q1 0 1.5 -1.5t0.5 -2.5t0.5 -3t-0.5 -3q-17 -18 -36 -56l-10 -18l-70 -131q-50 -90 -94.5 -187.5t-96.5 -221.5q-38 -94 -87 -208q-1 -3 -11 -18
q-1 0 -2 -0.5t-2 0.5q-3 1 -3 5zM516 -141q-2 2 1 7l32 108q-19 1 -69 1q-21 0 -30 6.5t-9 20.5q0 13 7 30q6 18 30 64l44 90q1 4 4.5 6.5t4.5 0.5q2 -6 1 -9q-7 -21 -20.5 -46.5t-15.5 -30.5q-13 -23 -24 -46q-19 -38 -19 -54q0 -15 14 -18q16 -2 28 -2q7 0 58 3l9 28
l36 110q19 57 35 67q5 3 5 -4.5t-4.5 -19t-10.5 -17.5q-10 -14 -16 -31q-16 -48 -40.5 -126.5t-41.5 -136.5q-2 -4 -4 -4z" />
    <glyph glyph-name="questiondown" unicode="&#xbf;" horiz-adv-x="306" 
d="M231 205q-6 6 -6 14t6 14t14 6q9 0 15 -6t6 -14t-6 -14t-15 -6q-8 0 -14 6zM115 -267q-20 0 -32.5 15.5t-12.5 41.5q0 23 10 51q16 50 51 109l12 20q43 73 64 117q9 17 16.5 35.5t9.5 34.5q0 9 7 9q4 0 7.5 -4.5t2.5 -9.5q-2 -6 -9.5 -27t-16.5 -37l-72 -133l-13 -23
q-12 -20 -23 -43t-18 -43q-13 -40 -11 -65q2 -14 11 -21.5t21 -7.5q13 0 25 8q26 17 44 48q32 54 32 101q0 22 -8 46v1q0 6 5 8h2q4 0 7 -3q11 -15 11 -44q0 -31 -14 -69.5t-35 -67.5q-15 -20 -40 -36q-19 -11 -33 -11z" />
    <glyph glyph-name="Agrave" unicode="&#xc0;" horiz-adv-x="597" 
d="M499 119q-8 -1 -16.5 -2.5t-12.5 -2.5q-33 -5 -70 -5q-35 0 -72 5q-86 -75 -164 -123.5t-126 -59.5q-3 -1 -9 -1q-9 0 -9 6q0 3 5 7.5t13 5.5q47 11 116 53t151 115q-34 4 -52 4q-44 0 -89 -18l-9 -2q-4 0 -4 3t4.5 7.5t11.5 7.5q51 20 98 20q15 0 33 -2t26 -3
q171 158 330 397q38 82 60 112t42 39q8 3 12 3q7 0 10 -5t2 -12q-5 -25 -30.5 -58t-64.5 -77l-16 -18l-17 -38q-71 -159 -124 -326t-51 -292q0 -11 -6 -11q-3 0 -5.5 3.5t-2.5 7.5q-2 123 36 260zM737.5 620.5q26.5 37.5 16.5 37.5q-9 0 -31 -32.5t-36 -68.5
q24 26 50.5 63.5zM404 127q36 0 72 8q22 6 30 7q35 127 127 336q-120 -195 -286 -347q36 -4 57 -4zM725 737l-21 26l-24 32l-21 28l-46 60v1q0 3 5 5.5t8 -0.5q6 -7 10.5 -13t8.5 -11l79 -100q13 -18 19 -22q5 -5 5 -10q0 -7 -5 -10t-8 3q-3 1 -10 11z" />
    <glyph glyph-name="Aacute" unicode="&#xc1;" horiz-adv-x="671" 
d="M499 119q-8 -1 -16.5 -2.5t-12.5 -2.5q-33 -5 -70 -5q-35 0 -72 5q-86 -75 -164 -123.5t-126 -59.5q-3 -1 -9 -1q-9 0 -9 6q0 3 5 7.5t13 5.5q47 11 116 53t151 115q-34 4 -52 4q-44 0 -89 -18l-9 -2q-4 0 -4 3t4.5 7.5t11.5 7.5q51 20 98 20q15 0 33 -2t26 -3
q171 158 330 397q38 82 60 112t42 39q8 3 12 3q7 0 10 -5t2 -12q-5 -25 -30.5 -58t-64.5 -77l-16 -18l-17 -38q-71 -159 -124 -326t-51 -292q0 -11 -6 -11q-3 0 -5.5 3.5t-2.5 7.5q-2 123 36 260zM737.5 620.5q26.5 37.5 16.5 37.5q-9 0 -31 -32.5t-36 -68.5
q24 26 50.5 63.5zM404 127q36 0 72 8q22 6 30 7q35 127 127 336q-120 -195 -286 -347q36 -4 57 -4zM809 726q-3 0 -6 3.5t-3 7.5q0 5 5 10q6 4 11.5 11t8.5 11l78 100q5 5 10.5 12.5t8.5 11.5q1 2 5 2t7 -3t1 -5l-30 -40l-15 -20l-26 -33q-6 -9 -20 -27q-6 -8 -11.5 -14.5
t-9.5 -11.5q-7 -10 -9 -11q-1 -4 -5 -4z" />
    <glyph glyph-name="Acircumflex" unicode="&#xc2;" horiz-adv-x="636" 
d="M499 119q-8 -1 -16.5 -2.5t-12.5 -2.5q-33 -5 -70 -5q-35 0 -72 5q-86 -75 -164 -123.5t-126 -59.5q-3 -1 -9 -1q-9 0 -9 6q0 3 5 7.5t13 5.5q47 11 116 53t151 115q-34 4 -52 4q-44 0 -89 -18l-9 -2q-4 0 -4 3t4.5 7.5t11.5 7.5q51 20 98 20q15 0 33 -2t26 -3
q171 158 330 397q38 82 60 112t42 39q8 3 12 3q7 0 10 -5t2 -12q-5 -25 -30.5 -58t-64.5 -77l-16 -18l-17 -38q-71 -159 -124 -326t-51 -292q0 -11 -6 -11q-3 0 -5.5 3.5t-2.5 7.5q-2 123 36 260zM737.5 620.5q26.5 37.5 16.5 37.5q-9 0 -31 -32.5t-36 -68.5
q24 26 50.5 63.5zM404 127q36 0 72 8q22 6 30 7q35 127 127 336q-120 -195 -286 -347q36 -4 57 -4zM863 732q-6 12 -10 24l-28 118q-1 4 -2 13t-5 13h-4l-3 -1q-50 -72 -74 -108l-21 -30q-9 -21 -11 -24q-9 -2 -9 4q0 9 4 16q10 20 16 29l74 112q1 1 13 16q8 8 16 8
q9 0 14 -8q2 -2 4 -12q6 -18 8 -32l14 -71l15 -69q-9 -5 -11 2z" />
    <glyph glyph-name="Atilde" unicode="&#xc3;" horiz-adv-x="685" 
d="M499 119q-8 -1 -16.5 -2.5t-12.5 -2.5q-33 -5 -70 -5q-35 0 -72 5q-86 -75 -164 -123.5t-126 -59.5q-3 -1 -9 -1q-9 0 -9 6q0 3 5 7.5t13 5.5q47 11 116 53t151 115q-34 4 -52 4q-44 0 -89 -18l-9 -2q-4 0 -4 3t4.5 7.5t11.5 7.5q51 20 98 20q15 0 33 -2t26 -3
q171 158 330 397q38 82 60 112t42 39q8 3 12 3q7 0 10 -5t2 -12q-5 -25 -30.5 -58t-64.5 -77l-16 -18l-17 -38q-71 -159 -124 -326t-51 -292q0 -11 -6 -11q-3 0 -5.5 3.5t-2.5 7.5q-2 123 36 260zM737.5 620.5q26.5 37.5 16.5 37.5q-9 0 -31 -32.5t-36 -68.5
q24 26 50.5 63.5zM404 127q36 0 72 8q22 6 30 7q35 127 127 336q-120 -195 -286 -347q36 -4 57 -4zM667 760q-4 0 -4 6t6 18q13 30 47 70q12 14 23 14q18 0 37 -38l15 -28q15 -23 23.5 -32.5t16.5 -9.5t17 8.5t28 29.5l37 54q3 4 7 10.5t8.5 10.5t10.5 4q12 0 1 -18t-39 -57
q-15 -21 -33 -39q-16 -15 -33 -15q-32 0 -64 59l-16 31q-9 13 -17 13t-16.5 -11t-21.5 -34q-18 -31 -28 -44q-2 -2 -5 -2z" />
    <glyph glyph-name="Adieresis" unicode="&#xc4;" horiz-adv-x="658" 
d="M499 119q-8 -1 -16.5 -2.5t-12.5 -2.5q-33 -5 -70 -5q-35 0 -72 5q-86 -75 -164 -123.5t-126 -59.5q-3 -1 -9 -1q-9 0 -9 6q0 3 5 7.5t13 5.5q47 11 116 53t151 115q-34 4 -52 4q-44 0 -89 -18l-9 -2q-4 0 -4 3t4.5 7.5t11.5 7.5q51 20 98 20q15 0 33 -2t26 -3
q171 158 330 397q38 82 60 112t42 39q8 3 12 3q7 0 10 -5t2 -12q-5 -25 -30.5 -58t-64.5 -77l-16 -18l-17 -38q-71 -159 -124 -326t-51 -292q0 -11 -6 -11q-3 0 -5.5 3.5t-2.5 7.5q-2 123 36 260zM737.5 620.5q26.5 37.5 16.5 37.5q-9 0 -31 -32.5t-36 -68.5
q24 26 50.5 63.5zM404 127q36 0 72 8q22 6 30 7q35 127 127 336q-120 -195 -286 -347q36 -4 57 -4zM726.5 783.5q-10.5 10.5 -10.5 24.5t10.5 24t24.5 10t24 -10t10 -24t-10 -24.5t-24 -10.5t-24.5 10.5zM846.5 783.5q-10.5 10.5 -10.5 24.5t10.5 24t24.5 10t24 -10t10 -24
t-10 -24.5t-24 -10.5t-24.5 10.5z" />
    <glyph glyph-name="Aring" unicode="&#xc5;" horiz-adv-x="672" 
d="M499 119q-8 -1 -16.5 -2.5t-12.5 -2.5q-33 -5 -70 -5q-35 0 -72 5q-86 -75 -164 -123.5t-126 -59.5q-3 -1 -9 -1q-9 0 -9 6q0 3 5 7.5t13 5.5q47 11 116 53t151 115q-34 4 -52 4q-44 0 -89 -18l-9 -2q-4 0 -4 3t4.5 7.5t11.5 7.5q51 20 98 20q15 0 33 -2t26 -3
q171 158 330 397q38 82 60 112t42 39q8 3 12 3q7 0 10 -5t2 -12q-5 -25 -30.5 -58t-64.5 -77l-16 -18l-17 -38q-71 -159 -124 -326t-51 -292q0 -11 -6 -11q-3 0 -5.5 3.5t-2.5 7.5q-2 123 36 260zM737.5 620.5q26.5 37.5 16.5 37.5q-9 0 -31 -32.5t-36 -68.5
q24 26 50.5 63.5zM404 127q36 0 72 8q22 6 30 7q35 127 127 336q-120 -195 -286 -347q36 -4 57 -4zM746 743q-17 19 -17 47q0 24 12.5 48t36.5 39.5t55 15.5q27 0 45 -16.5t18 -45.5q0 -5 -2 -17q-7 -39 -35 -64.5t-64 -25.5q-32 0 -49 19zM837 752.5q18 14.5 29 35t11 36.5
q0 22 -14 36.5t-34 14.5q-35 0 -58.5 -27.5t-23.5 -59.5q0 -22 13 -36t39 -14q20 0 38 14.5z" />
    <glyph glyph-name="AE" unicode="&#xc6;" horiz-adv-x="912" 
d="M96 -12.5q47 68.5 103 124.5q-32 1 -50 -0.5t-49 -8.5q-3 -1 -7 -1q-6 0 -6 4t4.5 8t11.5 5q45 11 82 11q19 0 30 -1l97 101q102 105 155.5 162t107.5 121q0 6 8 13l7 6q38 81 60 111t42 39q8 3 12 3q7 0 10 -5t2 -12q-8 -36 -76 -113l68 26q11 4 45 20q5 2 12 5t11 3
q14 -1 31 4t21 6q5 2 22 7q58 14 174 46q29 9 68 19q6 1 10.5 0t4.5 -4q0 -10 -35 -19l-29 -8q-110 -28 -219 -60q-10 -3 -37.5 -11t-39.5 -20t-42 -51q-85 -108 -175 -258l-21 -35q20 10 80 34l138 51l9 2q5 0 5 -4q0 -3 -5.5 -8.5t-15.5 -8.5l-62 -23q-77 -29 -94 -36
t-51 -23q-18 -9 -28 -26q-32 -57 -53 -113l-9 -25l-9 -35q-4 -17 -4 -34q0 -56 61 -56q50 0 134.5 32t215.5 94q8 4 46 18q3 0 3 -3q0 -7 -9 -13q-292 -149 -400 -149q-61 0 -70 45l-23 -75q-2 -8 -5 -11q-2 -2 -4.5 -4t-3.5 -2q-6 2 -6 7l10 43q10 37 34 109q14 39 23 70
l7 22l5 14q-4 0 -11 -1t-11 -2q-57 -9 -104 -9q-26 0 -82 4q-56 -52 -104.5 -122.5t-72.5 -145.5q-5 -15 -10.5 -23.5t-8.5 -8.5q-5 0 -5 9q0 6 5 23q25 78 72 146.5zM673.5 620.5q26.5 37.5 16.5 37.5q-9 0 -31 -32.5t-36 -68.5q24 26 50.5 63.5zM559.5 337
q32.5 49 43.5 66q29 42 31 45q9 14 40 54l24 33q3 5 14 17.5t12 16.5q-52 -22 -58 -25l-23 -10l-35 -15l-3 -4l-17 -38q-33 -75 -90 -226l-11 -29q40 66 72.5 115zM310 125q50 0 102 10q17 5 25 6l14 38q-3 0 -3 3q0 2 9 13l9 24q21 54 50 129.5t31 79.5q3 8 10.5 25
t11.5 25q-25 -32 -92 -102t-134 -139l-107 -110q54 -2 74 -2z" />
    <glyph glyph-name="Ccedilla" unicode="&#xc7;" horiz-adv-x="513" 
d="M24 -25q-4 16 -4 40q0 56 24.5 128t66.5 141q96 159 251 293q61 53 129 85.5t116 32.5q31 0 48.5 -14.5t17.5 -44.5q0 -13 -5 -35q-8 -32 -26 -64q-26 -45 -50 -79t-55 -69q-43 -49 -90.5 -93t-120.5 -108q-10 -10 -16 -10q-3 0 -3 3q0 6 11 16q103 90 203 199
q60 66 104 143q28 49 28 86q0 50 -56 50q-25 0 -58 -11t-69 -31q-34 -20 -76 -52q-199 -151 -306 -377q-21 -44 -34.5 -93t-13.5 -91q0 -29 7 -50q19 -64 90 -64q85 0 192.5 54t194.5 138q6 5 12 6.5t7 -1.5q0 -6 -3.5 -10.5t-8.5 -8.5q-88 -85 -197.5 -141t-194.5 -56
q-96 0 -115 88zM4.5 -336q-2.5 5 4.5 5q20 -5 40 -5q38 0 73 14.5t52 42.5q11 18 11 35q0 31 -33 40q-11 3 -26 4.5t-21 2.5q-6 2 -9.5 7t-0.5 11q18 46 44 83l7 2q1 -1 2.5 -3.5t0.5 -4.5q-8 -16 -11 -24l-14 -28q-11 -22 -11 -29q0 -6 6.5 -8.5t21.5 -2.5t28 -5
q6 -1 18 -7q22 -15 22 -40q0 -31 -30 -58q-25 -21 -59.5 -30.5t-71.5 -9.5q-12 0 -32 2q-9 1 -11.5 6z" />
    <glyph glyph-name="Egrave" unicode="&#xc8;" horiz-adv-x="542" 
d="M34.5 38.5q14.5 44.5 40.5 103.5q13 31 18 39l-10 -2q-10 0 0 11.5t29 22.5q38 64 65.5 106t61.5 92l25 37q9 14 40 54l24 33q3 5 14 17.5t12 16.5q-52 -22 -58 -25l-40 -17l-41 -18q-2 -1 -5 -1q-5 0 -5 5q0 6 8 13q7 7 31.5 18t93.5 37q11 4 45 20q5 2 12 5t11 3
q14 -1 31 4t21 6q5 2 22 7q58 14 174 46q29 9 68 19q6 1 10.5 0t4.5 -4q0 -10 -35 -19l-29 -8q-110 -29 -219 -60q-10 -3 -37.5 -11t-39.5 -20t-42 -51q-85 -108 -175 -258l-21 -35q20 10 80 34l138 51l9 2q5 0 5 -4q0 -3 -5.5 -8.5t-15.5 -8.5l-62 -23q-77 -29 -94 -36
t-51 -23q-18 -9 -28 -26q-54 -96 -71 -173q-4 -17 -4 -34q0 -56 61 -56q50 0 134.5 32t215.5 94q8 4 46 18q3 0 3 -3q0 -7 -9 -13q-290 -148 -399 -148q-72 0 -72 61q0 33 14.5 77.5zM455 680l-21 26l-24 32l-21 28l-46 60v1q0 3 5 5.5t8 -0.5q6 -7 10.5 -13t8.5 -11
l79 -100q13 -18 19 -22q5 -5 5 -10q0 -7 -5 -10t-8 3q-3 1 -10 11z" />
    <glyph glyph-name="Eacute" unicode="&#xc9;" horiz-adv-x="542" 
d="M34.5 38.5q14.5 44.5 40.5 103.5q13 31 18 39l-10 -2q-10 0 0 11.5t29 22.5q38 64 65.5 106t61.5 92l25 37q9 14 40 54l24 33q3 5 14 17.5t12 16.5q-52 -22 -58 -25l-40 -17l-41 -18q-2 -1 -5 -1q-5 0 -5 5q0 6 8 13q7 7 31.5 18t93.5 37q11 4 45 20q5 2 12 5t11 3
q14 -1 31 4t21 6q5 2 22 7q58 14 174 46q29 9 68 19q6 1 10.5 0t4.5 -4q0 -10 -35 -19l-29 -8q-110 -29 -219 -60q-10 -3 -37.5 -11t-39.5 -20t-42 -51q-85 -108 -175 -258l-21 -35q20 10 80 34l138 51l9 2q5 0 5 -4q0 -3 -5.5 -8.5t-15.5 -8.5l-62 -23q-77 -29 -94 -36
t-51 -23q-18 -9 -28 -26q-54 -96 -71 -173q-4 -17 -4 -34q0 -56 61 -56q50 0 134.5 32t215.5 94q8 4 46 18q3 0 3 -3q0 -7 -9 -13q-290 -148 -399 -148q-72 0 -72 61q0 33 14.5 77.5zM495 691q-3 0 -6 3.5t-3 7.5q0 5 5 10q6 4 11.5 11t8.5 11l78 100q5 5 10.5 12.5
t8.5 11.5q1 2 5 2t7 -3t1 -5l-30 -40l-15 -20l-26 -33q-6 -9 -20 -27q-6 -8 -11.5 -14.5t-9.5 -11.5q-7 -10 -9 -11q-1 -4 -5 -4z" />
    <glyph glyph-name="Ecircumflex" unicode="&#xca;" horiz-adv-x="542" 
d="M34.5 38.5q14.5 44.5 40.5 103.5q13 31 18 39l-10 -2q-10 0 0 11.5t29 22.5q38 64 65.5 106t61.5 92l25 37q9 14 40 54l24 33q3 5 14 17.5t12 16.5q-52 -22 -58 -25l-40 -17l-41 -18q-2 -1 -5 -1q-5 0 -5 5q0 6 8 13q7 7 31.5 18t93.5 37q11 4 45 20q5 2 12 5t11 3
q14 -1 31 4t21 6q5 2 22 7q58 14 174 46q29 9 68 19q6 1 10.5 0t4.5 -4q0 -10 -35 -19l-29 -8q-110 -29 -219 -60q-10 -3 -37.5 -11t-39.5 -20t-42 -51q-85 -108 -175 -258l-21 -35q20 10 80 34l138 51l9 2q5 0 5 -4q0 -3 -5.5 -8.5t-15.5 -8.5l-62 -23q-77 -29 -94 -36
t-51 -23q-18 -9 -28 -26q-54 -96 -71 -173q-4 -17 -4 -34q0 -56 61 -56q50 0 134.5 32t215.5 94q8 4 46 18q3 0 3 -3q0 -7 -9 -13q-290 -148 -399 -148q-72 0 -72 61q0 33 14.5 77.5zM581 703q-6 12 -10 24l-28 118q-1 4 -2 13t-5 13h-4l-3 -1q-50 -72 -74 -108l-21 -30
q-9 -21 -11 -24q-9 -2 -9 4q0 9 4 16q10 20 16 29l74 112q1 1 13 16q8 8 16 8q9 0 14 -8q2 -2 4 -12q6 -18 8 -32l14 -71l15 -69q-9 -5 -11 2z" />
    <glyph glyph-name="Edieresis" unicode="&#xcb;" horiz-adv-x="542" 
d="M34.5 38.5q14.5 44.5 40.5 103.5q13 31 18 39l-10 -2q-10 0 0 11.5t29 22.5q38 64 65.5 106t61.5 92l25 37q9 14 40 54l24 33q3 5 14 17.5t12 16.5q-52 -22 -58 -25l-40 -17l-41 -18q-2 -1 -5 -1q-5 0 -5 5q0 6 8 13q7 7 31.5 18t93.5 37q11 4 45 20q5 2 12 5t11 3
q14 -1 31 4t21 6q5 2 22 7q58 14 174 46q29 9 68 19q6 1 10.5 0t4.5 -4q0 -10 -35 -19l-29 -8q-110 -29 -219 -60q-10 -3 -37.5 -11t-39.5 -20t-42 -51q-85 -108 -175 -258l-21 -35q20 10 80 34l138 51l9 2q5 0 5 -4q0 -3 -5.5 -8.5t-15.5 -8.5l-62 -23q-77 -29 -94 -36
t-51 -23q-18 -9 -28 -26q-54 -96 -71 -173q-4 -17 -4 -34q0 -56 61 -56q50 0 134.5 32t215.5 94q8 4 46 18q3 0 3 -3q0 -7 -9 -13q-290 -148 -399 -148q-72 0 -72 61q0 33 14.5 77.5zM430.573 691.883q-12.8604 7.42383 -16.4844 20.9463t3.92969 25.8994t21.0752 16.001
q13.5225 3.62402 25.7705 -3.44629q12.2471 -7.07031 15.8711 -20.5928t-3.31738 -26.2529q-6.94043 -12.7305 -20.4629 -16.3545t-26.3818 3.7998zM546.479 722.945q-12.8594 7.42383 -16.4834 20.9463t3.92969 25.8994q7.55273 12.376 21.0752 16t25.7695 -3.44629
t15.8711 -20.5928t-3.31641 -26.252q-6.94141 -12.7305 -20.4639 -16.3545t-26.3818 3.7998z" />
    <glyph glyph-name="Igrave" unicode="&#xcc;" horiz-adv-x="387" 
d="M20 -120q1 1 1 3t1 1q11 11 17 13q29 7 87 19l42 7q20 105 78 263q35 98 95.5 229.5t135.5 255.5l-102 -19q-14 -3 -27 -9l-20 -7l-10 -2q-1 2 -6 7q0 2 -0.5 3.5t0.5 1.5q3 2 8.5 6.5t9.5 5.5q51 13 86 19q13 2 25.5 4.5t25.5 4.5l21 4q2 2 4 6q17 23 19 25q5 8 11 8
q2 0 4 -2t2 -5t-3 -8l-12 -19q88 14 123 14q2 0 4.5 -2t2.5 -3l-6 -9q-2 -2 -6 -2q-21 0 -131 -18q-85 -140 -165.5 -313.5t-125.5 -343.5q-8 -31 -22 -93l158 23q1 1 4 -1.5t3 -4.5l-6 -8q-2 -2 -3.5 -2.5t-2.5 -0.5l-36 -5l-120 -17q-3 -16 -11 -19q-5 -1 -8 4v12l-80 -15
q-13 -3 -25 -9q-18 -7 -23 -8l-9 -1zM504 783l-21 26l-24 32l-21 28l-46 60v1q0 3 5 5.5t8 -0.5q6 -7 10.5 -13t8.5 -11l79 -100q13 -18 19 -22q5 -5 5 -10q0 -7 -5 -10t-8 3q-3 1 -10 11z" />
    <glyph glyph-name="Iacute" unicode="&#xcd;" horiz-adv-x="446" 
d="M20 -120q1 1 1 3t1 1q11 11 17 13q29 7 87 19l42 7q20 105 78 263q35 98 95.5 229.5t135.5 255.5l-102 -19q-14 -3 -27 -9l-20 -7l-10 -2q-1 2 -6 7q0 2 -0.5 3.5t0.5 1.5q3 2 8.5 6.5t9.5 5.5q51 13 86 19q13 2 25.5 4.5t25.5 4.5l21 4q2 2 4 6q17 23 19 25q5 8 11 8
q2 0 4 -2t2 -5t-3 -8l-12 -19q88 14 123 14q2 0 4.5 -2t2.5 -3l-6 -9q-2 -2 -6 -2q-21 0 -131 -18q-85 -140 -165.5 -313.5t-125.5 -343.5q-8 -31 -22 -93l158 23q1 1 4 -1.5t3 -4.5l-6 -8q-2 -2 -3.5 -2.5t-2.5 -0.5l-36 -5l-120 -17q-3 -16 -11 -19q-5 -1 -8 4v12l-80 -15
q-13 -3 -25 -9q-18 -7 -23 -8l-9 -1zM575 773q-3 0 -6 3.5t-3 7.5q0 5 5 10q6 4 11.5 11t8.5 11l78 100q5 5 10.5 12.5t8.5 11.5q1 2 5 2t7 -3t1 -5l-30 -40l-15 -20l-26 -33q-6 -9 -20 -27q-6 -8 -11.5 -14.5t-9.5 -11.5q-7 -10 -9 -11q-1 -4 -5 -4z" />
    <glyph glyph-name="Icircumflex" unicode="&#xce;" horiz-adv-x="401" 
d="M20 -120q1 1 1 3t1 1q11 11 17 13q29 7 87 19l42 7q20 105 78 263q35 98 95.5 229.5t135.5 255.5l-102 -19q-14 -3 -27 -9l-20 -7l-10 -2q-1 2 -6 7q0 2 -0.5 3.5t0.5 1.5q3 2 8.5 6.5t9.5 5.5q51 13 86 19q13 2 25.5 4.5t25.5 4.5l21 4q2 2 4 6q17 23 19 25q5 8 11 8
q2 0 4 -2t2 -5t-3 -8l-12 -19q88 14 123 14q2 0 4.5 -2t2.5 -3l-6 -9q-2 -2 -6 -2q-21 0 -131 -18q-85 -140 -165.5 -313.5t-125.5 -343.5q-8 -31 -22 -93l158 23q1 1 4 -1.5t3 -4.5l-6 -8q-2 -2 -3.5 -2.5t-2.5 -0.5l-36 -5l-120 -17q-3 -16 -11 -19q-5 -1 -8 4v12l-80 -15
q-13 -3 -25 -9q-18 -7 -23 -8l-9 -1zM646 784q-6 12 -10 24l-28 118q-1 4 -2 13t-5 13h-4l-3 -1q-50 -72 -74 -108l-21 -30q-9 -21 -11 -24q-9 -2 -9 4q0 9 4 16q10 20 16 29l74 112q1 1 13 16q8 8 16 8q9 0 14 -8q2 -2 4 -12q6 -18 8 -32l14 -71l15 -69q-9 -5 -11 2z" />
    <glyph glyph-name="Idieresis" unicode="&#xcf;" horiz-adv-x="387" 
d="M20 -120q1 1 1 3t1 1q11 11 17 13q29 7 87 19l42 7q20 105 78 263q35 98 95.5 229.5t135.5 255.5l-102 -19q-14 -3 -27 -9l-20 -7l-10 -2q-1 2 -6 7q0 2 -0.5 3.5t0.5 1.5q3 2 8.5 6.5t9.5 5.5q51 13 86 19q13 2 25.5 4.5t25.5 4.5l21 4q2 2 4 6q17 23 19 25q5 8 11 8
q2 0 4 -2t2 -5t-3 -8l-12 -19q88 14 123 14q2 0 4.5 -2t2.5 -3l-6 -9q-2 -2 -6 -2q-21 0 -131 -18q-85 -140 -165.5 -313.5t-125.5 -343.5q-8 -31 -22 -93l158 23q1 1 4 -1.5t3 -4.5l-6 -8q-2 -2 -3.5 -2.5t-2.5 -0.5l-36 -5l-120 -17q-3 -16 -11 -19q-5 -1 -8 4v12l-80 -15
q-13 -3 -25 -9q-18 -7 -23 -8l-9 -1zM462.5 800.5q-10.5 10.5 -10.5 24.5t10.5 24t24.5 10t24 -10t10 -24t-10 -24.5t-24 -10.5t-24.5 10.5zM582.5 800.5q-10.5 10.5 -10.5 24.5t10.5 24t24.5 10t24 -10t10 -24t-10 -24.5t-24 -10.5t-24.5 10.5z" />
    <glyph glyph-name="Eth" unicode="&#xd0;" horiz-adv-x="707" 
d="M645 186q-3 -4 -16 -21.5t-23 -28.5q51 11 88 17q5 0 5 -7q0 -8 -8 -9q-35 -7 -67 -15l-40 -9q-61 -68 -100.5 -106.5t-95.5 -80.5q-177 -130 -297 -130l-17 1q-27 2 -40.5 14.5t-13.5 31.5q0 21 16.5 47t47.5 51q13 11 64 47q8 6 21 13l6 25q19 83 37 142q-15 0 -47 -2
q-13 -1 -29 -6l-20 -4h-10l-6 8q1 1 1 3t1 1q13 9 19 10q58 6 88 7h8q31 103 64 178q24 54 37 81q36 78 52 117t28 39q4 0 4 -6l-2 -8q-31 -62 -89 -198t-57 -147q58 103 95 157.5t105 125.5q46 48 99.5 86.5t99.5 51.5q24 6 43 6q48 0 73 -34.5t25 -92.5q0 -57 -25 -126
q-45 -123 -124 -229zM763 458q13 46 13 80q0 50 -22 81t-64 31q-16 0 -36 -6q-87 -27 -168 -110q-158 -161 -235 -348q40 1 120 1q2 0 4 -2.5t2 -4.5l-7 -7q-2 -2 -6 -2h-46q-45 0 -74 -1q-11 -27 -29 -83q-16 -51 -18 -68l55 24q120 52 332 92l21 26q112 141 158 297z
M561 112q-38 -5 -115 -26t-150 -47t-105 -48q-16 -67 -18 -67q-2 -4 -8 -4q-4 0 -7 4q-2 5 0 11q0 12 6 42q-11 -5 -24.5 -15t-17.5 -13q-24 -16 -49 -41q-33 -33 -33 -60q0 -34 57 -34q43 0 91 18t103 50q105 61 218 174z" />
    <glyph glyph-name="Ntilde" unicode="&#xd1;" horiz-adv-x="556" 
d="M28 -84q-5 0 -7.5 5.5t0.5 13.5q31 124 70 233t96 218q33 63 101 189l63 116q1 3 5.5 6.5t8.5 3.5t4 -4q0 -5 -10 -22l-54 -102q-17 -31 -37.5 -70t-45.5 -85q-39 -72 -72 -152t-70 -183q40 87 103 177t140.5 164.5t157.5 114.5q26 12 42 12q39 0 39 -56t-42 -168
l-13 -34q-38 -96 -56.5 -153.5t-18.5 -94.5q0 -24 10 -37q6 -7 6 -15q0 -10 -8 -10t-17 13q-11 14 -11 43q0 44 22 109t65 172q44 113 44 165q0 44 -31 44q-13 0 -33 -9q-103 -46 -207 -173t-177 -274q-15 -30 -47 -112l-15 -40q-2 -5 -5 -5zM371 717q-4 0 -4 6t6 18
q13 30 47 70q12 14 23 14q18 0 37 -38l15 -28q15 -23 23.5 -32.5t16.5 -9.5t17 8.5t28 29.5l37 54q3 4 7 10.5t8.5 10.5t10.5 4q12 0 1 -18t-39 -57q-15 -21 -33 -39q-16 -15 -33 -15q-32 0 -64 59l-16 31q-9 13 -17 13t-16.5 -11t-21.5 -34q-18 -31 -28 -44q-2 -2 -5 -2z
" />
    <glyph glyph-name="Ograve" unicode="&#xd2;" horiz-adv-x="510" 
d="M120 -47q-47 0 -73.5 33.5t-26.5 87.5q0 66 37 136q-1 66 19.5 132t55.5 119q82 124 210 182q56 26 106 26q64 0 101 -42t37 -114q0 -34 -9 -73q-22 -93 -85.5 -195t-150.5 -180.5t-176 -104.5q-22 -7 -45 -7zM372 115.5q70 73.5 119 159t68 166.5q8 32 8 67
q0 64 -33 102.5t-92 38.5q-29 0 -57 -8q-47 -13 -91 -43q-64 -43 -114 -104.5t-77 -128t-25 -124.5q24 39 76.5 92.5t89.5 69.5q1 1 4 1q4 0 4 -4.5t-2 -6.5q-40 -24 -90.5 -77t-80.5 -99q-1 -26 2.5 -40.5t7.5 -23t5 -12.5q0 -5 -5 -10t-8 0q-15 30 -18 51
q-12 -21 -19.5 -49t-7.5 -57q0 -47 21 -78t64 -31q41 0 101 32q80 43 150 116.5zM464 730l-21 26l-24 32l-21 28l-46 60v1q0 3 5 5.5t8 -0.5q6 -7 10.5 -13t8.5 -11l79 -100q13 -18 19 -22q5 -5 5 -10q0 -7 -5 -10t-8 3q-3 1 -10 11z" />
    <glyph glyph-name="Oacute" unicode="&#xd3;" horiz-adv-x="510" 
d="M120 -47q-47 0 -73.5 33.5t-26.5 87.5q0 66 37 136q-1 66 19.5 132t55.5 119q82 124 210 182q56 26 106 26q64 0 101 -42t37 -114q0 -34 -9 -73q-22 -93 -85.5 -195t-150.5 -180.5t-176 -104.5q-22 -7 -45 -7zM372 115.5q70 73.5 119 159t68 166.5q8 32 8 67
q0 64 -33 102.5t-92 38.5q-29 0 -57 -8q-47 -13 -91 -43q-64 -43 -114 -104.5t-77 -128t-25 -124.5q24 39 76.5 92.5t89.5 69.5q1 1 4 1q4 0 4 -4.5t-2 -6.5q-40 -24 -90.5 -77t-80.5 -99q-1 -26 2.5 -40.5t7.5 -23t5 -12.5q0 -5 -5 -10t-8 0q-15 30 -18 51
q-12 -21 -19.5 -49t-7.5 -57q0 -47 21 -78t64 -31q41 0 101 32q80 43 150 116.5zM491 721q-3 0 -6 3.5t-3 7.5q0 5 5 10q6 4 11.5 11t8.5 11l78 100q5 5 10.5 12.5t8.5 11.5q1 2 5 2t7 -3t1 -5l-30 -40l-15 -20l-26 -33q-6 -9 -20 -27q-6 -8 -11.5 -14.5t-9.5 -11.5
q-7 -10 -9 -11q-1 -4 -5 -4z" />
    <glyph glyph-name="Ocircumflex" unicode="&#xd4;" horiz-adv-x="510" 
d="M120 -47q-47 0 -73.5 33.5t-26.5 87.5q0 66 37 136q-1 66 19.5 132t55.5 119q82 124 210 182q56 26 106 26q64 0 101 -42t37 -114q0 -34 -9 -73q-22 -93 -85.5 -195t-150.5 -180.5t-176 -104.5q-22 -7 -45 -7zM372 115.5q70 73.5 119 159t68 166.5q8 32 8 67
q0 64 -33 102.5t-92 38.5q-29 0 -57 -8q-47 -13 -91 -43q-64 -43 -114 -104.5t-77 -128t-25 -124.5q24 39 76.5 92.5t89.5 69.5q1 1 4 1q4 0 4 -4.5t-2 -6.5q-40 -24 -90.5 -77t-80.5 -99q-1 -26 2.5 -40.5t7.5 -23t5 -12.5q0 -5 -5 -10t-8 0q-15 30 -18 51
q-12 -21 -19.5 -49t-7.5 -57q0 -47 21 -78t64 -31q41 0 101 32q80 43 150 116.5zM554 726q-6 12 -10 24l-28 118q-1 4 -2 13t-5 13h-4l-3 -1q-50 -72 -74 -108l-21 -30q-9 -21 -11 -24q-9 -2 -9 4q0 9 4 16q10 20 16 29l74 112q1 1 13 16q8 8 16 8q9 0 14 -8q2 -2 4 -12
q6 -18 8 -32l14 -71l15 -69q-9 -5 -11 2z" />
    <glyph glyph-name="Otilde" unicode="&#xd5;" horiz-adv-x="510" 
d="M120 -47q-47 0 -73.5 33.5t-26.5 87.5q0 66 37 136q-1 66 19.5 132t55.5 119q82 124 210 182q56 26 106 26q64 0 101 -42t37 -114q0 -34 -9 -73q-22 -93 -85.5 -195t-150.5 -180.5t-176 -104.5q-22 -7 -45 -7zM372 115.5q70 73.5 119 159t68 166.5q8 32 8 67
q0 64 -33 102.5t-92 38.5q-29 0 -57 -8q-47 -13 -91 -43q-64 -43 -114 -104.5t-77 -128t-25 -124.5q24 39 76.5 92.5t89.5 69.5q1 1 4 1q4 0 4 -4.5t-2 -6.5q-40 -24 -90.5 -77t-80.5 -99q-1 -26 2.5 -40.5t7.5 -23t5 -12.5q0 -5 -5 -10t-8 0q-15 30 -18 51
q-12 -21 -19.5 -49t-7.5 -57q0 -47 21 -78t64 -31q41 0 101 32q80 43 150 116.5zM368 730q-4 0 -4 6t6 18q13 30 47 70q12 14 23 14q18 0 37 -38l15 -28q15 -23 23.5 -32.5t16.5 -9.5t17 8.5t28 29.5l37 54q3 4 7 10.5t8.5 10.5t10.5 4q12 0 1 -18t-39 -57q-15 -21 -33 -39
q-16 -15 -33 -15q-32 0 -64 59l-16 31q-9 13 -17 13t-16.5 -11t-21.5 -34q-18 -31 -28 -44q-2 -2 -5 -2z" />
    <glyph glyph-name="Odieresis" unicode="&#xd6;" horiz-adv-x="510" 
d="M120 -47q-47 0 -73.5 33.5t-26.5 87.5q0 66 37 136q-1 66 19.5 132t55.5 119q82 124 210 182q56 26 106 26q64 0 101 -42t37 -114q0 -34 -9 -73q-22 -93 -85.5 -195t-150.5 -180.5t-176 -104.5q-22 -7 -45 -7zM372 115.5q70 73.5 119 159t68 166.5q8 32 8 67
q0 64 -33 102.5t-92 38.5q-29 0 -57 -8q-47 -13 -91 -43q-64 -43 -114 -104.5t-77 -128t-25 -124.5q24 39 76.5 92.5t89.5 69.5q1 1 4 1q4 0 4 -4.5t-2 -6.5q-40 -24 -90.5 -77t-80.5 -99q-1 -26 2.5 -40.5t7.5 -23t5 -12.5q0 -5 -5 -10t-8 0q-15 30 -18 51
q-12 -21 -19.5 -49t-7.5 -57q0 -47 21 -78t64 -31q41 0 101 32q80 43 150 116.5zM405.5 732.5q-10.5 10.5 -10.5 24.5t10.5 24t24.5 10t24 -10t10 -24t-10 -24.5t-24 -10.5t-24.5 10.5zM525.5 732.5q-10.5 10.5 -10.5 24.5t10.5 24t24.5 10t24 -10t10 -24t-10 -24.5
t-24 -10.5t-24.5 10.5z" />
    <glyph glyph-name="multiply" unicode="&#xd7;" horiz-adv-x="392" 
d="M321 100q-2 0 -10 5q-10 7 -20 17q-76 61 -104 84q-5 4 -13.5 8.5t-13.5 6.5q-14 -7 -24.5 -16t-24.5 -24l-18 -17q-5 -5 -10.5 -9.5t-12.5 -5.5l28 30l28 30q13 14 13 24q0 9 -16 21q-6 5 -18 13q-30 20 -30 35q0 8 10 8q15 0 36 -18q15 -13 40 -30q4 -3 10 -3q7 0 11 4
l23 18l25 18l87 59q7 4 27 8q3 -1 8 -9q1 -1 -0.5 -4t-2.5 -4q-6 -2 -20 -6t-22 -10q-45 -30 -102 -71q-5 -2 -8.5 -8t-4.5 -8q3 -8 4 -9l56 -49l21 -18l37 -33q10 -9 16 -17q4 -10 1 -16q-3 -4 -6 -4z" />
    <glyph glyph-name="Oslash" unicode="&#xd8;" horiz-adv-x="510" 
d="M571 591.5q15 -33.5 15 -78.5q0 -34 -9 -73q-22 -93 -85.5 -195t-150.5 -180.5t-176 -104.5q-22 -7 -44 -7q-39 0 -64 22l-16 -25q-3 -5 -7 -8.5t-7 -7.5q-1 1 -2 0.5t-2 0.5q-2 1 -2.5 2.5t0.5 3.5q2 4 4 10.5t6 13.5l14 22q-26 34 -26 87q0 65 38 136q-1 66 19.5 132
t55.5 119q82 124 210 182q56 26 106 26q37 0 66 -15l20 26q10 11 29 25q1 1 8 -3q2 -2 2 -5q-1 -2 -0.5 -3.5t-0.5 -2.5q-12 -8 -23 -20.5t-21 -25.5q28 -20 43 -53.5zM43.5 133q-7.5 -28 -7.5 -57q0 -45 19 -74q24 38 37 57q110 172 186.5 284.5t163.5 219.5q-3 -3 38 47
l21 27q-28 13 -58 13q-26 0 -58 -9q-47 -13 -91 -43q-64 -43 -114 -104.5t-77 -128t-25 -124.5q24 39 76.5 92.5t89.5 69.5q1 1 4 1q4 0 4 -4.5t-2 -6.5q-40 -24 -90.5 -77t-80.5 -99q-1 -26 2.5 -40.5t7.5 -23t5 -12.5q0 -5 -5 -10t-8 0q-15 30 -18 51q-12 -21 -19.5 -49z
M567 508q0 83 -52 121l-2 -3l-36 -46q-28 -37 -55 -70q-119 -148 -259 -370l-97 -152q20 -20 55 -20q42 0 101 31q80 43 150 116.5t119 159t68 166.5q8 32 8 67z" />
    <glyph glyph-name="Ugrave" unicode="&#xd9;" horiz-adv-x="525" 
d="M391.5 -63q-1.5 6 -0.5 16l1 23q1 12 4.5 85.5t14.5 142.5q1 6 7 37t9 42q-59 -86 -129 -166.5t-133 -131t-101 -50.5q-44 0 -44 72q0 73 49.5 225.5t109.5 288.5l53 123q7 13 12 13q4 0 4 -7q0 -6 -2 -9l-94 -231q-41 -101 -77 -224t-36 -176q0 -52 33 -52q32 0 96 54.5
t137.5 140t133.5 173.5q26 79 50.5 137t52.5 96q13 17 23 17q6 0 8.5 -5t0.5 -14q-10 -46 -47 -122t-69 -116q-17 -43 -26 -106q-21 -135 -22 -230q-1 -23 -5.5 -37.5t-8.5 -14.5q-3 0 -4.5 6zM478.5 381.5q2.5 4.5 5.5 10.5q37 69 52 104q9 23 9 28q0 1 -1 1q-2 -1 -6 -7.5
t-9 -17.5q-41 -83 -55 -127q2 4 4.5 8.5zM424 665l-21 26l-24 32l-21 28l-46 60v1q0 3 5 5.5t8 -0.5q6 -7 10.5 -13t8.5 -11l79 -100q13 -18 19 -22q5 -5 5 -10q0 -7 -5 -10t-8 3q-3 1 -10 11z" />
    <glyph glyph-name="Uacute" unicode="&#xda;" horiz-adv-x="525" 
d="M391.5 -63q-1.5 6 -0.5 16l1 23q1 12 4.5 85.5t14.5 142.5q1 6 7 37t9 42q-59 -86 -129 -166.5t-133 -131t-101 -50.5q-44 0 -44 72q0 73 49.5 225.5t109.5 288.5l53 123q7 13 12 13q4 0 4 -7q0 -6 -2 -9l-94 -231q-41 -101 -77 -224t-36 -176q0 -52 33 -52q32 0 96 54.5
t137.5 140t133.5 173.5q26 79 50.5 137t52.5 96q13 17 23 17q6 0 8.5 -5t0.5 -14q-10 -46 -47 -122t-69 -116q-17 -43 -26 -106q-21 -135 -22 -230q-1 -23 -5.5 -37.5t-8.5 -14.5q-3 0 -4.5 6zM478.5 381.5q2.5 4.5 5.5 10.5q37 69 52 104q9 23 9 28q0 1 -1 1q-2 -1 -6 -7.5
t-9 -17.5q-41 -83 -55 -127q2 4 4.5 8.5zM423 635q-3 0 -6 3.5t-3 7.5q0 5 5 10q6 4 11.5 11t8.5 11l78 100q5 5 10.5 12.5t8.5 11.5q1 2 5 2t7 -3t1 -5l-30 -40l-15 -20l-26 -33q-6 -9 -20 -27q-6 -8 -11.5 -14.5t-9.5 -11.5q-7 -10 -9 -11q-1 -4 -5 -4z" />
    <glyph glyph-name="Ucircumflex" unicode="&#xdb;" horiz-adv-x="525" 
d="M391.5 -63q-1.5 6 -0.5 16l1 23q1 12 4.5 85.5t14.5 142.5q1 6 7 37t9 42q-59 -86 -129 -166.5t-133 -131t-101 -50.5q-44 0 -44 72q0 73 49.5 225.5t109.5 288.5l53 123q7 13 12 13q4 0 4 -7q0 -6 -2 -9l-94 -231q-41 -101 -77 -224t-36 -176q0 -52 33 -52q32 0 96 54.5
t137.5 140t133.5 173.5q26 79 50.5 137t52.5 96q13 17 23 17q6 0 8.5 -5t0.5 -14q-10 -46 -47 -122t-69 -116q-17 -43 -26 -106q-21 -135 -22 -230q-1 -23 -5.5 -37.5t-8.5 -14.5q-3 0 -4.5 6zM478.5 381.5q2.5 4.5 5.5 10.5q37 69 52 104q9 23 9 28q0 1 -1 1q-2 -1 -6 -7.5
t-9 -17.5q-41 -83 -55 -127q2 4 4.5 8.5zM494 652q-6 12 -10 24l-28 118q-1 4 -2 13t-5 13h-4l-3 -1q-50 -72 -74 -108l-21 -30q-9 -21 -11 -24q-9 -2 -9 4q0 9 4 16q10 20 16 29l74 112q1 1 13 16q8 8 16 8q9 0 14 -8q2 -2 4 -12q6 -18 8 -32l14 -71l15 -69q-9 -5 -11 2z
" />
    <glyph glyph-name="Udieresis" unicode="&#xdc;" horiz-adv-x="525" 
d="M391.5 -63q-1.5 6 -0.5 16l1 23q1 12 4.5 85.5t14.5 142.5q1 6 7 37t9 42q-59 -86 -129 -166.5t-133 -131t-101 -50.5q-44 0 -44 72q0 73 49.5 225.5t109.5 288.5l53 123q7 13 12 13q4 0 4 -7q0 -6 -2 -9l-94 -231q-41 -101 -77 -224t-36 -176q0 -52 33 -52q32 0 96 54.5
t137.5 140t133.5 173.5q26 79 50.5 137t52.5 96q13 17 23 17q6 0 8.5 -5t0.5 -14q-10 -46 -47 -122t-69 -116q-17 -43 -26 -106q-21 -135 -22 -230q-1 -23 -5.5 -37.5t-8.5 -14.5q-3 0 -4.5 6zM478.5 381.5q2.5 4.5 5.5 10.5q37 69 52 104q9 23 9 28q0 1 -1 1q-2 -1 -6 -7.5
t-9 -17.5q-41 -83 -55 -127q2 4 4.5 8.5zM341.5 677.5q-10.5 10.5 -10.5 24.5t10.5 24t24.5 10t24 -10t10 -24t-10 -24.5t-24 -10.5t-24.5 10.5zM461.5 677.5q-10.5 10.5 -10.5 24.5t10.5 24t24.5 10t24 -10t10 -24t-10 -24.5t-24 -10.5t-24.5 10.5z" />
    <glyph glyph-name="Yacute" unicode="&#xdd;" horiz-adv-x="560" 
d="M80 -170q-28 0 -44 12.5t-16 35.5q0 22 11 45q26 57 88.5 116.5t133.5 97.5q65 36 157 67q32 11 37.5 13.5t13.5 5.5q36 83 70.5 178.5t53.5 174.5q-62 -113 -121 -188t-136 -126q-69 -46 -116 -46q-49 0 -59 52q-4 20 -4 45q0 55 17 117.5t53 167.5l20 57q2 6 6 9.5
t7 3.5q5 0 5 -7q0 -4 -3 -12q-42 -115 -65 -194.5t-23 -140.5q0 -27 6 -48q10 -32 45 -32q43 0 104 42q80 54 143.5 138.5t129.5 207.5q7 10 14 10q5 0 7 -3.5t1 -10.5l-2 -8t-3 -10q-22 -91 -58 -195.5t-70 -177.5l62 13q1 0 2 -1t1 -2q1 -2 -0.5 -5t-3.5 -3q-9 -4 -31 -12
t-40 -13l-26 -51q-54 -106 -151 -205q-51 -53 -105 -84q-62 -34 -111 -34zM270 -55q63 62 103 119t78 135q-66 -19 -116 -39.5t-99 -50.5q-59 -36 -100 -75.5t-79 -95.5q-20 -30 -20 -51q0 -18 13 -27.5t37 -9.5q37 0 92 26q54 32 91 69zM417 659q-3 0 -6 3.5t-3 7.5
q0 5 5 10q6 4 11.5 11t8.5 11l78 100q5 5 10.5 12.5t8.5 11.5q1 2 5 2t7 -3t1 -5l-30 -40l-15 -20l-26 -33q-6 -9 -20 -27q-6 -8 -11.5 -14.5t-9.5 -11.5q-7 -10 -9 -11q-1 -4 -5 -4z" />
    <glyph glyph-name="Thorn" unicode="&#xde;" horiz-adv-x="465" 
d="M134 363q42 91 77 160.5t75 135.5q17 29 88 131.5t111 159.5q1 2 3.5 4t5.5 2q5 0 5 -4q0 -3 -3 -8q-4 -4 -4 -5q-40 -57 -108.5 -159t-86.5 -132q-38 -62 -72 -131q-62 -124 -88.5 -186.5t-59.5 -166.5q46 114 98 202t129 173q92 101 195 157q46 25 86 33q19 4 40 4
q44 0 68.5 -22.5t24.5 -62.5q0 -13 -3 -28q-12 -72 -63 -147t-123 -137q-57 -49 -132.5 -80t-136.5 -31q-59 0 -84 31q-4 4 -4 9q0 4 3 7t8 3t8 -3q25 -28 78 -28q65 0 145.5 37.5t137.5 96.5q58 60 97.5 124t45.5 118q2 16 2 22q0 35 -20.5 54.5t-55.5 19.5q-22 0 -40 -5
q-40 -10 -80 -32q-87 -47 -171 -136q-74 -79 -145 -197q-106 -177 -136 -341l-4 -22q-4 -20 -9.5 -32.5t-9.5 -12.5q-6 0 -6 21q0 12 1 20q22 185 113 384z" />
    <glyph glyph-name="germandbls" unicode="&#xdf;" horiz-adv-x="280" 
d="M6 17q0 63 38.5 164t94 184t103.5 99q9 3 17 3q13 0 21 -7.5t9 -20.5q2 -26 -29 -68.5t-61 -64.5q7 -2 10.5 -3.5t5.5 -2.5q42 -23 42 -77q0 -39 -20.5 -83t-54 -78t-70.5 -45q-15 -5 -33 -5q-21 0 -34.5 9.5t-13.5 22.5q0 10 8.5 19.5t25.5 14.5q7 0 7 -6q0 -3 -3 -6
t-7 -2q-18 -11 -18 -21q0 -7 9.5 -11.5t24.5 -4.5q16 0 29 4q38 12 68.5 45t47.5 74.5t17 75.5q0 33 -18 48q-15 12 -32 12q-8 0 -19 -3l-23 -6q-6 1 -4.5 5.5t2.5 5.5q5 5 15.5 10.5t15.5 9.5q42 31 69 69t27 60q0 15 -14 15q-9 0 -27 -8q-41 -20 -90.5 -98.5t-84 -172
t-34.5 -149.5q0 -13 1 -18v-2q0 -6 -3 -9.5t-7 -3.5q-6 0 -7 9q-1 5 -1 17z" />
    <glyph glyph-name="agrave" unicode="&#xe0;" horiz-adv-x="270" 
d="M12.5 10.5q-10.5 11.5 -10.5 33.5q0 40 27 82t65.5 69.5t71.5 27.5q34 0 50 -23q1 2 3 7t5 9q6 6 12 6q5 0 7.5 -3.5t0.5 -7.5l-13 -26q-29 -55 -51 -108q-8 -24 -8 -36q0 -23 18 -23t45 22.5t50 56.5q6 8 11 8t5 -7q0 -3 -3 -9q-18 -30 -51 -59t-59 -29q-33 0 -33 41
q0 11 3 24q-11 -11 -25.5 -23t-26.5 -19q-21 -12 -33 -18q-17 -7 -32 -7q-18 0 -28.5 11.5zM78 27q42 22 71.5 57.5t55.5 95.5q-10 26 -36 26q-29 0 -64 -24.5t-59 -61t-24 -71.5q0 -30 27 -30q14 0 29 8zM160 282l-21 26l-24 32l-21 28l-46 60v1q0 3 5 5.5t8 -0.5
q6 -7 10.5 -13t8.5 -11l79 -100q13 -18 19 -22q5 -5 5 -10q0 -7 -5 -10t-8 3q-3 1 -10 11z" />
    <glyph glyph-name="aacute" unicode="&#xe1;" horiz-adv-x="270" 
d="M12.5 10.5q-10.5 11.5 -10.5 33.5q0 40 27 82t65.5 69.5t71.5 27.5q34 0 50 -23q1 2 3 7t5 9q6 6 12 6q5 0 7.5 -3.5t0.5 -7.5l-13 -26q-29 -55 -51 -108q-8 -24 -8 -36q0 -23 18 -23t45 22.5t50 56.5q6 8 11 8t5 -7q0 -3 -3 -9q-18 -30 -51 -59t-59 -29q-33 0 -33 41
q0 11 3 24q-11 -11 -25.5 -23t-26.5 -19q-21 -12 -33 -18q-17 -7 -32 -7q-18 0 -28.5 11.5zM78 27q42 22 71.5 57.5t55.5 95.5q-10 26 -36 26q-29 0 -64 -24.5t-59 -61t-24 -71.5q0 -30 27 -30q14 0 29 8zM152 288q-3 0 -6 3.5t-3 7.5q0 5 5 10q6 4 11.5 11t8.5 11l78 100
q5 5 10.5 12.5t8.5 11.5q1 2 5 2t7 -3t1 -5l-30 -40l-15 -20l-26 -33q-6 -9 -20 -27q-6 -8 -11.5 -14.5t-9.5 -11.5q-7 -10 -9 -11q-1 -4 -5 -4z" />
    <glyph glyph-name="acircumflex" unicode="&#xe2;" horiz-adv-x="270" 
d="M12.5 10.5q-10.5 11.5 -10.5 33.5q0 40 27 82t65.5 69.5t71.5 27.5q34 0 50 -23q1 2 3 7t5 9q6 6 12 6q5 0 7.5 -3.5t0.5 -7.5l-13 -26q-29 -55 -51 -108q-8 -24 -8 -36q0 -23 18 -23t45 22.5t50 56.5q6 8 11 8t5 -7q0 -3 -3 -9q-18 -30 -51 -59t-59 -29q-33 0 -33 41
q0 11 3 24q-11 -11 -25.5 -23t-26.5 -19q-21 -12 -33 -18q-17 -7 -32 -7q-18 0 -28.5 11.5zM78 27q42 22 71.5 57.5t55.5 95.5q-10 26 -36 26q-29 0 -64 -24.5t-59 -61t-24 -71.5q0 -30 27 -30q14 0 29 8zM245.86 262.925q-4.95801 9.91699 -8.26367 19.834
l-23.1396 97.5176q-0.826172 3.30566 -1.65332 10.7432q-0.826172 7.4375 -4.13184 10.7432h-3.30566l-2.47949 -0.826172q-41.3203 -59.502 -61.1543 -89.2529l-17.3555 -24.793q-7.4375 -17.3545 -9.08984 -19.834q-7.4375 -1.65234 -7.4375 3.30664
q0 7.4375 3.30469 13.2227q8.26465 16.5273 13.2227 23.9658l61.1553 92.5586q0.826172 0.826172 10.7432 13.2227q6.61133 6.61133 13.2227 6.61133q7.4375 0 11.5703 -6.61133q1.65234 -1.65332 3.30566 -9.91699q4.95801 -14.876 6.61133 -26.4453l11.5693 -58.6758
l12.3965 -57.0225q-7.4375 -4.13184 -9.09082 1.65234z" />
    <glyph glyph-name="atilde" unicode="&#xe3;" horiz-adv-x="270" 
d="M12.5 10.5q-10.5 11.5 -10.5 33.5q0 40 27 82t65.5 69.5t71.5 27.5q34 0 50 -23q1 2 3 7t5 9q6 6 12 6q5 0 7.5 -3.5t0.5 -7.5l-13 -26q-29 -55 -51 -108q-8 -24 -8 -36q0 -23 18 -23t45 22.5t50 56.5q6 8 11 8t5 -7q0 -3 -3 -9q-18 -30 -51 -59t-59 -29q-33 0 -33 41
q0 11 3 24q-11 -11 -25.5 -23t-26.5 -19q-21 -12 -33 -18q-17 -7 -32 -7q-18 0 -28.5 11.5zM78 27q42 22 71.5 57.5t55.5 95.5q-10 26 -36 26q-29 0 -64 -24.5t-59 -61t-24 -71.5q0 -30 27 -30q14 0 29 8zM52 306q-4 0 -4 6t6 18q13 30 47 70q12 14 23 14q18 0 37 -38
l15 -28q15 -23 23.5 -32.5t16.5 -9.5t17 8.5t28 29.5l37 54q3 4 7 10.5t8.5 10.5t10.5 4q12 0 1 -18t-39 -57q-15 -21 -33 -39q-16 -15 -33 -15q-32 0 -64 59l-16 31q-9 13 -17 13t-16.5 -11t-21.5 -34q-18 -31 -28 -44q-2 -2 -5 -2z" />
    <glyph glyph-name="adieresis" unicode="&#xe4;" horiz-adv-x="270" 
d="M12.5 10.5q-10.5 11.5 -10.5 33.5q0 40 27 82t65.5 69.5t71.5 27.5q34 0 50 -23q1 2 3 7t5 9q6 6 12 6q5 0 7.5 -3.5t0.5 -7.5l-13 -26q-29 -55 -51 -108q-8 -24 -8 -36q0 -23 18 -23t45 22.5t50 56.5q6 8 11 8t5 -7q0 -3 -3 -9q-18 -30 -51 -59t-59 -29q-33 0 -33 41
q0 11 3 24q-11 -11 -25.5 -23t-26.5 -19q-21 -12 -33 -18q-17 -7 -32 -7q-18 0 -28.5 11.5zM78 27q42 22 71.5 57.5t55.5 95.5q-10 26 -36 26q-29 0 -64 -24.5t-59 -61t-24 -71.5q0 -30 27 -30q14 0 29 8zM82.5 291.5q-10.5 10.5 -10.5 24.5t10.5 24t24.5 10t24 -10t10 -24
t-10 -24.5t-24 -10.5t-24.5 10.5zM202.5 291.5q-10.5 10.5 -10.5 24.5t10.5 24t24.5 10t24 -10t10 -24t-10 -24.5t-24 -10.5t-24.5 10.5z" />
    <glyph glyph-name="aring" unicode="&#xe5;" horiz-adv-x="270" 
d="M12.5 10.5q-10.5 11.5 -10.5 33.5q0 40 27 82t65.5 69.5t71.5 27.5q34 0 50 -23q1 2 3 7t5 9q6 6 12 6q5 0 7.5 -3.5t0.5 -7.5l-13 -26q-29 -55 -51 -108q-8 -24 -8 -36q0 -23 18 -23t45 22.5t50 56.5q6 8 11 8t5 -7q0 -3 -3 -9q-18 -30 -51 -59t-59 -29q-33 0 -33 41
q0 11 3 24q-11 -11 -25.5 -23t-26.5 -19q-21 -12 -33 -18q-17 -7 -32 -7q-18 0 -28.5 11.5zM78 27q42 22 71.5 57.5t55.5 95.5q-10 26 -36 26q-29 0 -64 -24.5t-59 -61t-24 -71.5q0 -30 27 -30q14 0 29 8zM128.36 306.617q-15.4541 17.2715 -15.4541 42.7256
q0 21.8174 11.3633 43.6348t33.1807 35.9072q21.8174 14.0908 49.998 14.0908q24.5449 0 40.9082 -15q16.3623 -14.999 16.3623 -41.3613q0 -4.5459 -1.81738 -15.4541q-6.36426 -35.4531 -31.8174 -58.6348q-25.4531 -23.1807 -58.1797 -23.1807
q-29.0898 0 -44.5439 17.2725zM211.085 315.253q16.3623 13.1816 26.3623 31.8174q10 18.6348 10 33.1797q0 20 -12.7266 33.1807q-12.7275 13.1816 -30.9082 13.1816q-31.8174 0 -53.1797 -24.999q-21.3633 -24.999 -21.3633 -54.0889q0 -19.999 11.8174 -32.7256
q11.8184 -12.7275 35.4541 -12.7275q18.1807 0 34.5439 13.1816z" />
    <glyph glyph-name="ae" unicode="&#xe6;" horiz-adv-x="338" 
d="M12.5 10.5q-10.5 11.5 -10.5 33.5q0 40 27 82t65.5 69.5t71.5 27.5q34 0 50 -23q1 2 3 7t5 9q6 6 12 6q5 0 7.5 -3.5t0.5 -7.5q-4 -9 -20 -40q20 18 32 26q28 19 50 19q12 0 19.5 -6t7.5 -16q0 -16 -14 -34q-45 -63 -143 -103q-2 -12 -2 -15q0 -27 31 -27t75.5 24.5
t72.5 57.5q6 7 11 7q6 0 6 -6q0 -4 -5 -9q-28 -31 -63 -54q-26 -16 -53 -26t-49 -10q-20 0 -32.5 9.5t-13.5 28.5v5q0 11 3 23q-30 -28 -51 -41q-21 -12 -33 -18q-17 -7 -32 -7q-18 0 -28.5 11.5zM78 27q42 22 71.5 57.5t55.5 95.5q-10 26 -36 26q-29 0 -64 -24.5t-59 -61
t-24 -71.5q0 -30 27 -30q14 0 29 8zM304 166q1 1 7 10q3 6 3 10q0 12 -15 12q-10 0 -21 -6q-52 -30 -84 -83q-4 -9 -7.5 -17t-6.5 -15v-1q89 39 124 90z" />
    <glyph glyph-name="ccedilla" unicode="&#xe7;" horiz-adv-x="195" 
d="M25 16q-17 17 -17 45q0 34 23 74t59.5 67t75.5 27q16 0 25.5 -10t9.5 -26q0 -8 -1 -12q0 -4 -2 -8l-8 -19q-4 -6 -10 -6q-2 0 -4 1.5t-1 3.5q1 7 4.5 18t3.5 17q0 10 -7 16.5t-18 6.5q-30 0 -60.5 -23.5t-50.5 -57.5t-20 -62q0 -22 14 -36t43 -14q36 0 79 22.5t77 56.5
q8 8 12 8q6 0 6 -5q0 -4 -2.5 -7t-3.5 -4q-38 -39 -85.5 -64.5t-88.5 -25.5q-36 0 -53 17zM-65.5 -227q-2.5 5 4.5 5q20 -5 40 -5q38 0 73 14.5t52 42.5q11 18 11 35q0 31 -33 40q-11 3 -26 4.5t-21 2.5q-6 2 -9.5 7t-0.5 11q18 46 44 83l7 2q1 -1 2.5 -3.5t0.5 -4.5
q-8 -16 -11 -24l-14 -28q-11 -22 -11 -29q0 -6 6.5 -8.5t21.5 -2.5t28 -5q6 -1 18 -7q22 -15 22 -40q0 -31 -30 -58q-25 -21 -59.5 -30.5t-71.5 -9.5q-12 0 -32 2q-9 1 -11.5 6z" />
    <glyph glyph-name="egrave" unicode="&#xe8;" horiz-adv-x="184" 
d="M95.5 9q-27.5 -10 -48.5 -10q-22 0 -34.5 10.5t-12.5 31.5t13 52q26 60 89 104q28 19 50 19q12 0 19.5 -6t7.5 -16q0 -16 -14 -34q-45 -63 -143 -103q-2 -12 -2 -15q0 -26 30 -26q29 0 73.5 24t75.5 57q6 7 11 7q6 0 6 -6q0 -4 -5 -9q-24 -27 -63 -54q-25 -16 -52.5 -26z
M93.5 112q33.5 21 56.5 54q1 1 7 10q3 6 3 10q0 12 -15 12q-10 0 -21 -6q-36 -20 -62 -51t-38 -66q36 16 69.5 37zM126 292l-21 26l-24 32l-21 28l-46 60v1q0 3 5 5.5t8 -0.5q6 -7 10.5 -13t8.5 -11l79 -100q13 -18 19 -22q5 -5 5 -10q0 -7 -5 -10t-8 3q-3 1 -10 11z" />
    <glyph glyph-name="eacute" unicode="&#xe9;" horiz-adv-x="184" 
d="M95.5 9q-27.5 -10 -48.5 -10q-22 0 -34.5 10.5t-12.5 31.5t13 52q26 60 89 104q28 19 50 19q12 0 19.5 -6t7.5 -16q0 -16 -14 -34q-45 -63 -143 -103q-2 -12 -2 -15q0 -26 30 -26q29 0 73.5 24t75.5 57q6 7 11 7q6 0 6 -6q0 -4 -5 -9q-24 -27 -63 -54q-25 -16 -52.5 -26z
M93.5 112q33.5 21 56.5 54q1 1 7 10q3 6 3 10q0 12 -15 12q-10 0 -21 -6q-36 -20 -62 -51t-38 -66q36 16 69.5 37zM118 266q-3 0 -6 3.5t-3 7.5q0 5 5 10q6 4 11.5 11t8.5 11l78 100q5 5 10.5 12.5t8.5 11.5q1 2 5 2t7 -3t1 -5l-30 -40l-15 -20l-26 -33q-6 -9 -20 -27
q-6 -8 -11.5 -14.5t-9.5 -11.5q-7 -10 -9 -11q-1 -4 -5 -4z" />
    <glyph glyph-name="ecircumflex" unicode="&#xea;" horiz-adv-x="184" 
d="M95.5 9q-27.5 -10 -48.5 -10q-22 0 -34.5 10.5t-12.5 31.5t13 52q26 60 89 104q28 19 50 19q12 0 19.5 -6t7.5 -16q0 -16 -14 -34q-45 -63 -143 -103q-2 -12 -2 -15q0 -26 30 -26q29 0 73.5 24t75.5 57q6 7 11 7q6 0 6 -6q0 -4 -5 -9q-24 -27 -63 -54q-25 -16 -52.5 -26z
M93.5 112q33.5 21 56.5 54q1 1 7 10q3 6 3 10q0 12 -15 12q-10 0 -21 -6q-36 -20 -62 -51t-38 -66q36 16 69.5 37zM212 251q-6 12 -10 24l-28 118q-1 4 -2 13t-5 13h-4l-3 -1q-50 -72 -74 -108l-21 -30q-9 -21 -11 -24q-9 -2 -9 4q0 9 4 16q10 20 16 29l74 112q1 1 13 16
q8 8 16 8q9 0 14 -8q2 -2 4 -12q6 -18 8 -32l14 -71l15 -69q-9 -5 -11 2z" />
    <glyph glyph-name="edieresis" unicode="&#xeb;" horiz-adv-x="184" 
d="M95.5 9q-27.5 -10 -48.5 -10q-22 0 -34.5 10.5t-12.5 31.5t13 52q26 60 89 104q28 19 50 19q12 0 19.5 -6t7.5 -16q0 -16 -14 -34q-45 -63 -143 -103q-2 -12 -2 -15q0 -26 30 -26q29 0 73.5 24t75.5 57q6 7 11 7q6 0 6 -6q0 -4 -5 -9q-24 -27 -63 -54q-25 -16 -52.5 -26z
M93.5 112q33.5 21 56.5 54q1 1 7 10q3 6 3 10q0 12 -15 12q-10 0 -21 -6q-36 -20 -62 -51t-38 -66q36 16 69.5 37zM62.5 283.5q-10.5 10.5 -10.5 24.5t10.5 24t24.5 10t24 -10t10 -24t-10 -24.5t-24 -10.5t-24.5 10.5zM182.5 283.5q-10.5 10.5 -10.5 24.5t10.5 24t24.5 10
t24 -10t10 -24t-10 -24.5t-24 -10.5t-24.5 10.5z" />
    <glyph glyph-name="igrave" unicode="&#xec;" horiz-adv-x="158" 
d="M7 45q0 33 19.5 81.5t50.5 95.5q5 5 10 5t6.5 -3t-1.5 -7q-28 -43 -48 -90t-20 -76q0 -33 27 -33q26 0 64 24.5t58 54.5q7 7 11 7q5 0 5 -6q0 -5 -4 -9q-28 -36 -69.5 -62t-71.5 -26q-37 0 -37 44zM83 292l-21 26l-24 32l-21 28l-46 60v1q0 3 5 5.5t8 -0.5q6 -7 10.5 -13
t8.5 -11l79 -100q13 -18 19 -22q5 -5 5 -10q0 -7 -5 -10t-8 3q-3 1 -10 11z" />
    <glyph glyph-name="iacute" unicode="&#xed;" horiz-adv-x="158" 
d="M7 45q0 33 19.5 81.5t50.5 95.5q5 5 10 5t6.5 -3t-1.5 -7q-28 -43 -48 -90t-20 -76q0 -33 27 -33q26 0 64 24.5t58 54.5q7 7 11 7q5 0 5 -6q0 -5 -4 -9q-28 -36 -69.5 -62t-71.5 -26q-37 0 -37 44zM121 260q-3 0 -6 3.5t-3 7.5q0 5 5 10q6 4 11.5 11t8.5 11l78 100
q5 5 10.5 12.5t8.5 11.5q1 2 5 2t7 -3t1 -5l-30 -40l-15 -20l-26 -33q-6 -9 -20 -27q-6 -8 -11.5 -14.5t-9.5 -11.5q-7 -10 -9 -11q-1 -4 -5 -4z" />
    <glyph glyph-name="icircumflex" unicode="&#xee;" horiz-adv-x="158" 
d="M7 45q0 33 19.5 81.5t50.5 95.5q5 5 10 5t6.5 -3t-1.5 -7q-28 -43 -48 -90t-20 -76q0 -33 27 -33q26 0 64 24.5t58 54.5q7 7 11 7q5 0 5 -6q0 -5 -4 -9q-28 -36 -69.5 -62t-71.5 -26q-37 0 -37 44zM170 245q-6 12 -10 24l-28 118q-1 4 -2 13t-5 13h-4l-3 -1
q-50 -72 -74 -108l-21 -30q-9 -21 -11 -24q-9 -2 -9 4q0 9 4 16q10 20 16 29l74 112q1 1 13 16q8 8 16 8q9 0 14 -8q2 -2 4 -12q6 -18 8 -32l14 -71l15 -69q-9 -5 -11 2z" />
    <glyph glyph-name="idieresis" unicode="&#xef;" horiz-adv-x="158" 
d="M7 45q0 33 19.5 81.5t50.5 95.5q5 5 10 5t6.5 -3t-1.5 -7q-28 -43 -48 -90t-20 -76q0 -33 27 -33q26 0 64 24.5t58 54.5q7 7 11 7q5 0 5 -6q0 -5 -4 -9q-28 -36 -69.5 -62t-71.5 -26q-37 0 -37 44zM20.5 263.5q-10.5 10.5 -10.5 24.5t10.5 24t24.5 10t24 -10t10 -24
t-10 -24.5t-24 -10.5t-24.5 10.5zM140.5 263.5q-10.5 10.5 -10.5 24.5t10.5 24t24.5 10t24 -10t10 -24t-10 -24.5t-24 -10.5t-24.5 10.5z" />
    <glyph glyph-name="eth" unicode="&#xf0;" horiz-adv-x="230" 
d="M294 407.5q3 -1.5 4 -2.5q0 -3 -1.5 -6t-1.5 -4q-1 -2 -5 -4q-39 -17 -103 -50q1 -14 1 -43q0 -75 -17 -140.5t-52 -113.5q-31 -42 -66 -42q-22 0 -37 16t-15 39q0 20 13.5 39t41.5 33q12 6 33 13q3 1 8 1q8 0 8 -3q0 -5 -15 -13q-28 -13 -37 -19q-17 -11 -25.5 -25
t-8.5 -28q0 -16 9.5 -26.5t24.5 -10.5q24 0 46 30q35 49 52 114.5t17 138.5l-1 30q-16 -7 -55 -29q-5 -2 -23 -16q-5 -5 -17 -13l-9 -5q-2 2 -4.5 3t-4.5 2q0 1 -0.5 3t0.5 2q8 13 13 17q45 27 77 43l22 11q-4 65 -23 124q-4 13 -4 24t5 11q4 0 10.5 -10.5t12.5 -32.5
q13 -51 18 -106q50 25 105 49q1 1 4 -0.5z" />
    <glyph glyph-name="ntilde" unicode="&#xf1;" horiz-adv-x="284" 
d="M151 32q0 22 18 78q6 19 11 38t5 30q0 22 -17 22q-19 0 -50 -25.5t-60 -69.5t-44 -95q-6 -9 -14 -9q-9 0 -7 9q9 53 23 95q16 49 44 103q8 14 17 14q3 0 4 -3t-1 -8q-1 -1 -1 -3t-2 -4q-15 -29 -30 -66.5t-19 -56.5q22 47 66.5 90.5t78.5 43.5q31 0 31 -32q0 -21 -19 -78
q-1 -4 -8.5 -28t-7.5 -38q0 -20 18 -20q20 0 51 21t60 57q6 7 12 7q3 0 4.5 -2.5t-0.5 -6.5t-4 -6q-28 -40 -65.5 -65t-63.5 -25q-30 0 -30 33zM74 292q-4 0 -4 6t6 18q13 30 47 70q12 14 23 14q18 0 37 -38l15 -28q15 -23 23.5 -32.5t16.5 -9.5t17 8.5t28 29.5l37 54
q3 4 7 10.5t8.5 10.5t10.5 4q12 0 1 -18t-39 -57q-15 -21 -33 -39q-16 -15 -33 -15q-32 0 -64 59l-16 31q-9 13 -17 13t-16.5 -11t-21.5 -34q-18 -31 -28 -44q-2 -2 -5 -2z" />
    <glyph glyph-name="ograve" unicode="&#xf2;" horiz-adv-x="221" 
d="M67 1q-26 0 -42 15.5t-16 44.5q0 23 10 49q18 51 41 82q6 7 12 9t6 -5q17 17 37 26t38 9q25 0 40.5 -15.5t15.5 -44.5q0 -23 -10 -50q-14 -39 -38 -68q42 12 81 45q4 4 7 3.5t3 -3.5q0 -10 -17 -23q-51 -36 -95 -44q-36 -30 -73 -30zM178 116q13 30 13 53q0 22 -11.5 34
t-29.5 12q-25 0 -49.5 -19t-35.5 -50q-6 -18 -6 -36q0 -28 15.5 -45.5t45.5 -17.5q10 0 15 1q24 23 43 68zM58.5 57q-19.5 25 -17.5 59l-5 -10q-10 -24 -10 -45q0 -22 12 -33.5t31 -11.5q21 0 44 14q-35 2 -54.5 27zM141 297l-21 26l-24 32l-21 28l-46 60v1q0 3 5 5.5
t8 -0.5q6 -7 10.5 -13t8.5 -11l79 -100q13 -18 19 -22q5 -5 5 -10q0 -7 -5 -10t-8 3q-3 1 -10 11z" />
    <glyph glyph-name="oacute" unicode="&#xf3;" horiz-adv-x="221" 
d="M67 1q-26 0 -42 15.5t-16 44.5q0 23 10 49q18 51 41 82q6 7 12 9t6 -5q17 17 37 26t38 9q25 0 40.5 -15.5t15.5 -44.5q0 -23 -10 -50q-14 -39 -38 -68q42 12 81 45q4 4 7 3.5t3 -3.5q0 -10 -17 -23q-51 -36 -95 -44q-36 -30 -73 -30zM178 116q13 30 13 53q0 22 -11.5 34
t-29.5 12q-25 0 -49.5 -19t-35.5 -50q-6 -18 -6 -36q0 -28 15.5 -45.5t45.5 -17.5q10 0 15 1q24 23 43 68zM58.5 57q-19.5 25 -17.5 59l-5 -10q-10 -24 -10 -45q0 -22 12 -33.5t31 -11.5q21 0 44 14q-35 2 -54.5 27zM140 276q-3 0 -6 3.5t-3 7.5q0 5 5 10q6 4 11.5 11
t8.5 11l78 100q5 5 10.5 12.5t8.5 11.5q1 2 5 2t7 -3t1 -5l-30 -40l-15 -20l-26 -33q-6 -9 -20 -27q-6 -8 -11.5 -14.5t-9.5 -11.5q-7 -10 -9 -11q-1 -4 -5 -4z" />
    <glyph glyph-name="ocircumflex" unicode="&#xf4;" horiz-adv-x="221" 
d="M67 1q-26 0 -42 15.5t-16 44.5q0 23 10 49q18 51 41 82q6 7 12 9t6 -5q17 17 37 26t38 9q25 0 40.5 -15.5t15.5 -44.5q0 -23 -10 -50q-14 -39 -38 -68q42 12 81 45q4 4 7 3.5t3 -3.5q0 -10 -17 -23q-51 -36 -95 -44q-36 -30 -73 -30zM178 116q13 30 13 53q0 22 -11.5 34
t-29.5 12q-25 0 -49.5 -19t-35.5 -50q-6 -18 -6 -36q0 -28 15.5 -45.5t45.5 -17.5q10 0 15 1q24 23 43 68zM58.5 57q-19.5 25 -17.5 59l-5 -10q-10 -24 -10 -45q0 -22 12 -33.5t31 -11.5q21 0 44 14q-35 2 -54.5 27zM229 274q-6 12 -10 24l-28 118q-1 4 -2 13t-5 13h-4
l-3 -1q-50 -72 -74 -108l-21 -30q-9 -21 -11 -24q-9 -2 -9 4q0 9 4 16q10 20 16 29l74 112q1 1 13 16q8 8 16 8q9 0 14 -8q2 -2 4 -12q6 -18 8 -32l14 -71l15 -69q-9 -5 -11 2z" />
    <glyph glyph-name="otilde" unicode="&#xf5;" horiz-adv-x="221" 
d="M67 1q-26 0 -42 15.5t-16 44.5q0 23 10 49q18 51 41 82q6 7 12 9t6 -5q17 17 37 26t38 9q25 0 40.5 -15.5t15.5 -44.5q0 -23 -10 -50q-14 -39 -38 -68q42 12 81 45q4 4 7 3.5t3 -3.5q0 -10 -17 -23q-51 -36 -95 -44q-36 -30 -73 -30zM178 116q13 30 13 53q0 22 -11.5 34
t-29.5 12q-25 0 -49.5 -19t-35.5 -50q-6 -18 -6 -36q0 -28 15.5 -45.5t45.5 -17.5q10 0 15 1q24 23 43 68zM58.5 57q-19.5 25 -17.5 59l-5 -10q-10 -24 -10 -45q0 -22 12 -33.5t31 -11.5q21 0 44 14q-35 2 -54.5 27zM56 280q-4 0 -4 6t6 18q13 30 47 70q12 14 23 14
q18 0 37 -38l15 -28q15 -23 23.5 -32.5t16.5 -9.5t17 8.5t28 29.5l37 54q3 4 7 10.5t8.5 10.5t10.5 4q12 0 1 -18t-39 -57q-15 -21 -33 -39q-16 -15 -33 -15q-32 0 -64 59l-16 31q-9 13 -17 13t-16.5 -11t-21.5 -34q-18 -31 -28 -44q-2 -2 -5 -2z" />
    <glyph glyph-name="odieresis" unicode="&#xf6;" horiz-adv-x="221" 
d="M67 1q-26 0 -42 15.5t-16 44.5q0 23 10 49q18 51 41 82q6 7 12 9t6 -5q17 17 37 26t38 9q25 0 40.5 -15.5t15.5 -44.5q0 -23 -10 -50q-14 -39 -38 -68q42 12 81 45q4 4 7 3.5t3 -3.5q0 -10 -17 -23q-51 -36 -95 -44q-36 -30 -73 -30zM178 116q13 30 13 53q0 22 -11.5 34
t-29.5 12q-25 0 -49.5 -19t-35.5 -50q-6 -18 -6 -36q0 -28 15.5 -45.5t45.5 -17.5q10 0 15 1q24 23 43 68zM58.5 57q-19.5 25 -17.5 59l-5 -10q-10 -24 -10 -45q0 -22 12 -33.5t31 -11.5q21 0 44 14q-35 2 -54.5 27zM72.5 301.5q-10.5 10.5 -10.5 24.5t10.5 24t24.5 10
t24 -10t10 -24t-10 -24.5t-24 -10.5t-24.5 10.5zM192.5 301.5q-10.5 10.5 -10.5 24.5t10.5 24t24.5 10t24 -10t10 -24t-10 -24.5t-24 -10.5t-24.5 10.5z" />
    <glyph glyph-name="divide" unicode="&#xf7;" horiz-adv-x="387" 
d="M202.5 308q-5.5 6 -5.5 12q0 7 5.5 12t12.5 5q8 0 15 -4.5t7 -11.5t-7 -13t-15 -6q-7 0 -12.5 6zM70 236q1 1 1 3t1 1q13 9 19 10q57 6 88 7q58 2 162 2q2 0 4 -2.5t2 -4.5l-7 -7q-2 -2 -6 -2q-116 0 -199 -5q-13 -1 -29 -6l-20 -4h-10zM193.5 173q-5.5 6 -5.5 12
q0 7 5.5 12t12.5 5q8 0 15 -4.5t7 -11.5t-7 -13t-15 -6q-7 0 -12.5 6z" />
    <glyph glyph-name="oslash" unicode="&#xf8;" horiz-adv-x="221" 
d="M302 507q5 0 -2.5 -24t-20.5 -47q-54 -98 -105 -208q35 -13 35 -57q0 -21 -10 -50q-14 -39 -38 -68q42 12 81 45q4 4 7 3.5t3 -3.5q0 -10 -17 -23q-51 -36 -95 -44q-30 -25 -62 -30l-77 -182q-1 -3 -11 -18q-1 0 -2 -0.5t-2 0.5q-3 1 -3 5q1 5 2.5 13t3.5 13l71 169
q-23 2 -36.5 17.5t-13.5 43.5q0 21 9 48q18 51 41 82q6 7 12 9t6 -5q18 18 40 27.5t42 7.5q66 146 130 261q8 15 12 15zM59 110q0 -36 24 -53l15 35q8 18 24.5 56t29.5 66q-25 2 -50.5 -17t-36.5 -51q-6 -18 -6 -36zM191 170q0 31 -24 41q-34 -75 -69 -161q9 -3 22 -3
q10 0 15 1q24 23 43 68q13 32 13 54zM26 61q0 -21 11 -32.5t29 -12.5l11 25q-18 11 -27.5 31t-8.5 44l-5 -10q-10 -26 -10 -45zM113 30q-8 0 -22 4l-3 -7q-2 -6 -4 -9q14 3 29 12z" />
    <glyph glyph-name="ugrave" unicode="&#xf9;" horiz-adv-x="275" 
d="M31 0q-26 0 -26 37q0 33 19 82.5t49 94.5q8 9 14 9q4 0 5.5 -4.5t-1.5 -9.5q-29 -44 -49 -92.5t-20 -75.5t23 -21q27 7 66.5 50.5t74.5 100.5q5 11 17 31q6 10 14 10t8 -6q0 -5 -4 -9q-25 -42 -42 -83.5t-17 -66.5q0 -28 23 -28q20 0 48.5 23t56.5 55q7 7 11 7q5 0 5 -6
q0 -5 -4 -9q-30 -37 -63 -62.5t-58 -25.5q-38 0 -38 42q0 20 12 58q-28 -39 -59.5 -67t-53.5 -33q-4 -1 -11 -1zM155 270l-21 26l-24 32l-21 28l-46 60v1q0 3 5 5.5t8 -0.5q6 -7 10.5 -13t8.5 -11l79 -100q13 -18 19 -22q5 -5 5 -10q0 -7 -5 -10t-8 3q-3 1 -10 11z" />
    <glyph glyph-name="uacute" unicode="&#xfa;" horiz-adv-x="275" 
d="M31 0q-26 0 -26 37q0 33 19 82.5t49 94.5q8 9 14 9q4 0 5.5 -4.5t-1.5 -9.5q-29 -44 -49 -92.5t-20 -75.5t23 -21q27 7 66.5 50.5t74.5 100.5q5 11 17 31q6 10 14 10t8 -6q0 -5 -4 -9q-25 -42 -42 -83.5t-17 -66.5q0 -28 23 -28q20 0 48.5 23t56.5 55q7 7 11 7q5 0 5 -6
q0 -5 -4 -9q-30 -37 -63 -62.5t-58 -25.5q-38 0 -38 42q0 20 12 58q-28 -39 -59.5 -67t-53.5 -33q-4 -1 -11 -1zM147 259q-3 0 -6 3.5t-3 7.5q0 5 5 10q6 4 11.5 11t8.5 11l78 100q5 5 10.5 12.5t8.5 11.5q1 2 5 2t7 -3t1 -5l-30 -40l-15 -20l-26 -33q-6 -9 -20 -27
q-6 -8 -11.5 -14.5t-9.5 -11.5q-7 -10 -9 -11q-1 -4 -5 -4z" />
    <glyph glyph-name="ucircumflex" unicode="&#xfb;" horiz-adv-x="275" 
d="M31 0q-26 0 -26 37q0 33 19 82.5t49 94.5q8 9 14 9q4 0 5.5 -4.5t-1.5 -9.5q-29 -44 -49 -92.5t-20 -75.5t23 -21q27 7 66.5 50.5t74.5 100.5q5 11 17 31q6 10 14 10t8 -6q0 -5 -4 -9q-25 -42 -42 -83.5t-17 -66.5q0 -28 23 -28q20 0 48.5 23t56.5 55q7 7 11 7q5 0 5 -6
q0 -5 -4 -9q-30 -37 -63 -62.5t-58 -25.5q-38 0 -38 42q0 20 12 58q-28 -39 -59.5 -67t-53.5 -33q-4 -1 -11 -1zM242 255q-6 12 -10 24l-28 118q-1 4 -2 13t-5 13h-4l-3 -1q-50 -72 -74 -108l-21 -30q-9 -21 -11 -24q-9 -2 -9 4q0 9 4 16q10 20 16 29l74 112q1 1 13 16
q8 8 16 8q9 0 14 -8q2 -2 4 -12q6 -18 8 -32l14 -71l15 -69q-9 -5 -11 2z" />
    <glyph glyph-name="udieresis" unicode="&#xfc;" horiz-adv-x="275" 
d="M31 0q-26 0 -26 37q0 33 19 82.5t49 94.5q8 9 14 9q4 0 5.5 -4.5t-1.5 -9.5q-29 -44 -49 -92.5t-20 -75.5t23 -21q27 7 66.5 50.5t74.5 100.5q5 11 17 31q6 10 14 10t8 -6q0 -5 -4 -9q-25 -42 -42 -83.5t-17 -66.5q0 -28 23 -28q20 0 48.5 23t56.5 55q7 7 11 7q5 0 5 -6
q0 -5 -4 -9q-30 -37 -63 -62.5t-58 -25.5q-38 0 -38 42q0 20 12 58q-28 -39 -59.5 -67t-53.5 -33q-4 -1 -11 -1zM85.5 253.5q-10.5 10.5 -10.5 24.5t10.5 24t24.5 10t24 -10t10 -24t-10 -24.5t-24 -10.5t-24.5 10.5zM205.5 253.5q-10.5 10.5 -10.5 24.5t10.5 24t24.5 10
t24 -10t10 -24t-10 -24.5t-24 -10.5t-24.5 10.5z" />
    <glyph glyph-name="yacute" unicode="&#xfd;" horiz-adv-x="275" 
d="M-270.5 -450.5q-13.5 13.5 -13.5 38.5q0 29 19 67q28 55 91 115t141.5 111.5t150.5 81.5q11 27 30 80.5t32 97.5v1q-34 -59 -75 -100.5t-72 -41.5q-27 0 -27 39q0 33 18.5 81.5t48.5 93.5q8 9 14 9q4 0 5.5 -4.5t-1.5 -9.5q-28 -44 -48 -91.5t-20 -74.5t22 -23
q57 13 156 190q2 7 7.5 11.5t9.5 4.5q8 0 4 -14q-61 -189 -83 -241q42 21 81.5 55t69.5 71q6 8 11 8t5 -6q0 -5 -4 -10q-31 -41 -76 -78.5t-94 -62.5q-60 -137 -136.5 -237t-148.5 -146q-46 -29 -81 -29q-23 0 -36.5 13.5zM-160 -419q67 43 140.5 138.5t127.5 220.5
q-66 -29 -140.5 -78.5t-134 -106t-81.5 -105.5q-16 -35 -16 -59q0 -18 9 -27t25 -9q30 0 70 26zM143 249q-3 0 -6 3.5t-3 7.5q0 5 5 10q6 4 11.5 11t8.5 11l78 100q5 5 10.5 12.5t8.5 11.5q1 2 5 2t7 -3t1 -5l-30 -40l-15 -20l-26 -33q-6 -9 -20 -27q-6 -8 -11.5 -14.5
t-9.5 -11.5q-7 -10 -9 -11q-1 -4 -5 -4z" />
    <glyph glyph-name="thorn" unicode="&#xfe;" horiz-adv-x="237" 
d="M-105 -332q0 16 12 66q9 32 19 77q5 18 13 49.5t14 53.5q34 123 78 221q25 57 77 158t82 147q4 4 6 4q6 0 6 -7q0 -5 -5 -15q-21 -33 -72 -132.5t-76 -155.5q-54 -120 -69 -187q33 76 70.5 132t71.5 84.5t57 28.5q28 0 28 -41q0 -21 -7 -48q18 3 29 3q5 0 31 -2q8 0 8 -7
q0 -4 -4.5 -7.5t-10.5 -2.5q-14 2 -26 2q-17 0 -32 -4q-22 -58 -57.5 -86.5t-64.5 -28.5q-12 0 -17 5q-8 10 -8 20q0 28 36 58.5t97 45.5q8 27 8 47q0 27 -17 27q-23 0 -64.5 -47t-84.5 -129q-64 -123 -92 -258l-19 -81q-3 -7 -9 -7q-3 0 -5.5 2t-1.5 5q-1 3 -1 10zM77 -12
q22 0 51.5 23t46.5 70q-31 -6 -56 -20.5t-39.5 -31.5t-14.5 -30q0 -4 2 -8q2 -3 10 -3z" />
    <glyph glyph-name="ydieresis" unicode="&#xff;" horiz-adv-x="275" 
d="M-270.5 -450.5q-13.5 13.5 -13.5 38.5q0 29 19 67q28 55 91 115t141.5 111.5t150.5 81.5q11 27 30 80.5t32 97.5v1q-34 -59 -75 -100.5t-72 -41.5q-27 0 -27 39q0 33 18.5 81.5t48.5 93.5q8 9 14 9q4 0 5.5 -4.5t-1.5 -9.5q-28 -44 -48 -91.5t-20 -74.5t22 -23
q57 13 156 190q2 7 7.5 11.5t9.5 4.5q8 0 4 -14q-61 -189 -83 -241q42 21 81.5 55t69.5 71q6 8 11 8t5 -6q0 -5 -4 -10q-31 -41 -76 -78.5t-94 -62.5q-60 -137 -136.5 -237t-148.5 -146q-46 -29 -81 -29q-23 0 -36.5 13.5zM-160 -419q67 43 140.5 138.5t127.5 220.5
q-66 -29 -140.5 -78.5t-134 -106t-81.5 -105.5q-16 -35 -16 -59q0 -18 9 -27t25 -9q30 0 70 26zM91.5 269.5q-10.5 10.5 -10.5 24.5t10.5 24t24.5 10t24 -10t10 -24t-10 -24.5t-24 -10.5t-24.5 10.5zM211.5 269.5q-10.5 10.5 -10.5 24.5t10.5 24t24.5 10t24 -10t10 -24
t-10 -24.5t-24 -10.5t-24.5 10.5z" />
    <glyph glyph-name="Amacron" unicode="&#x100;" horiz-adv-x="685" 
d="M499 119q-8 -1 -16.5 -2.5t-12.5 -2.5q-33 -5 -70 -5q-35 0 -72 5q-86 -75 -164 -123.5t-126 -59.5q-3 -1 -9 -1q-9 0 -9 6q0 3 5 7.5t13 5.5q47 11 116 53t151 115q-34 4 -52 4q-44 0 -89 -18l-9 -2q-4 0 -4 3t4.5 7.5t11.5 7.5q51 20 98 20q15 0 33 -2t26 -3
q171 158 330 397q38 82 60 112t42 39q8 3 12 3q7 0 10 -5t2 -12q-5 -25 -30.5 -58t-64.5 -77l-16 -18l-17 -38q-71 -159 -124 -326t-51 -292q0 -11 -6 -11q-3 0 -5.5 3.5t-2.5 7.5q-2 123 36 260zM737.5 620.5q26.5 37.5 16.5 37.5q-9 0 -31 -32.5t-36 -68.5
q24 26 50.5 63.5zM404 127q36 0 72 8q22 6 30 7q35 127 127 336q-120 -195 -286 -347q36 -4 57 -4zM651.5 760q-10.5 5 -10.5 10q0 7 13 7q32 2 89 2q123 0 198 -15l-262 -8q-17 -1 -27.5 4z" />
    <glyph glyph-name="amacron" unicode="&#x101;" horiz-adv-x="270" 
d="M12.5 10.5q-10.5 11.5 -10.5 33.5q0 40 27 82t65.5 69.5t71.5 27.5q34 0 50 -23q1 2 3 7t5 9q6 6 12 6q5 0 7.5 -3.5t0.5 -7.5l-13 -26q-29 -55 -51 -108q-8 -24 -8 -36q0 -23 18 -23t45 22.5t50 56.5q6 8 11 8t5 -7q0 -3 -3 -9q-18 -30 -51 -59t-59 -29q-33 0 -33 41
q0 11 3 24q-11 -11 -25.5 -23t-26.5 -19q-21 -12 -33 -18q-17 -7 -32 -7q-18 0 -28.5 11.5zM78 27q42 22 71.5 57.5t55.5 95.5q-10 26 -36 26q-29 0 -64 -24.5t-59 -61t-24 -71.5q0 -30 27 -30q14 0 29 8zM40.5 306q-10.5 5 -10.5 10q0 7 13 7q32 2 89 2q123 0 198 -15
l-262 -8q-17 -1 -27.5 4z" />
    <glyph glyph-name="Abreve" unicode="&#x102;" horiz-adv-x="719" 
d="M499 119q-8 -1 -16.5 -2.5t-12.5 -2.5q-33 -5 -70 -5q-35 0 -72 5q-86 -75 -164 -123.5t-126 -59.5q-3 -1 -9 -1q-9 0 -9 6q0 3 5 7.5t13 5.5q47 11 116 53t151 115q-34 4 -52 4q-44 0 -89 -18l-9 -2q-4 0 -4 3t4.5 7.5t11.5 7.5q51 20 98 20q15 0 33 -2t26 -3
q171 158 330 397q38 82 60 112t42 39q8 3 12 3q7 0 10 -5t2 -12q-5 -25 -30.5 -58t-64.5 -77l-16 -18l-17 -38q-71 -159 -124 -326t-51 -292q0 -11 -6 -11q-3 0 -5.5 3.5t-2.5 7.5q-2 123 36 260zM737.5 620.5q26.5 37.5 16.5 37.5q-9 0 -31 -32.5t-36 -68.5
q24 26 50.5 63.5zM404 127q36 0 72 8q22 6 30 7q35 127 127 336q-120 -195 -286 -347q36 -4 57 -4zM742 813q0 -25 18 -39t47 -14q43 0 86 29.5t64 83.5q-15 -65 -57.5 -98.5t-91.5 -33.5q-37 0 -62.5 19t-25.5 52q0 11 5 28q10 34 17 34q5 0 5 -16q0 -15 -4 -32
q-1 -4 -1 -13z" />
    <glyph glyph-name="abreve" unicode="&#x103;" horiz-adv-x="270" 
d="M12.5 10.5q-10.5 11.5 -10.5 33.5q0 40 27 82t65.5 69.5t71.5 27.5q34 0 50 -23q1 2 3 7t5 9q6 6 12 6q5 0 7.5 -3.5t0.5 -7.5l-13 -26q-29 -55 -51 -108q-8 -24 -8 -36q0 -23 18 -23t45 22.5t50 56.5q6 8 11 8t5 -7q0 -3 -3 -9q-18 -30 -51 -59t-59 -29q-33 0 -33 41
q0 11 3 24q-11 -11 -25.5 -23t-26.5 -19q-21 -12 -33 -18q-17 -7 -32 -7q-18 0 -28.5 11.5zM78 27q42 22 71.5 57.5t55.5 95.5q-10 26 -36 26q-29 0 -64 -24.5t-59 -61t-24 -71.5q0 -30 27 -30q14 0 29 8zM92.9141 366.827q0.873047 -24.9854 19.3506 -38.3486
q18.4775 -13.3623 47.46 -12.3496q42.9746 1.50098 84.918 32.4844q41.9434 30.9824 61.0459 85.6826q-12.7217 -65.4834 -54.0264 -100.447q-41.3047 -34.9629 -90.2744 -36.6738q-36.9775 -1.29199 -63.125 16.8066q-26.1475 18.0977 -27.2998 51.0781
q-0.384766 10.9932 4.01953 28.1572q8.80664 34.3281 15.8027 34.5723q4.99609 0.174805 5.55469 -15.8154q0.524414 -14.9902 -2.87988 -32.1201q-0.860352 -4.03223 -0.545898 -13.0264z" />
    <glyph glyph-name="Aogonek" unicode="&#x104;" horiz-adv-x="597" 
d="M499 119q-8 -1 -16.5 -2.5t-12.5 -2.5q-33 -5 -70 -5q-35 0 -72 5q-86 -75 -164 -123.5t-126 -59.5q-3 -1 -9 -1q-9 0 -9 6q0 3 5 7.5t13 5.5q47 11 116 53t151 115q-34 4 -52 4q-44 0 -89 -18l-9 -2q-4 0 -4 3t4.5 7.5t11.5 7.5q51 20 98 20q15 0 33 -2t26 -3
q171 158 330 397q38 82 60 112t42 39q8 3 12 3q7 0 10 -5t2 -12q-5 -25 -30.5 -58t-64.5 -77l-16 -18l-17 -38q-71 -159 -124 -326t-51 -292q0 -11 -6 -11q-3 0 -5.5 3.5t-2.5 7.5q-2 123 36 260zM737.5 620.5q26.5 37.5 16.5 37.5q-9 0 -31 -32.5t-36 -68.5
q24 26 50.5 63.5zM404 127q36 0 72 8q22 6 30 7q35 127 127 336q-120 -195 -286 -347q36 -4 57 -4zM405 -382q-70 0 -70 45q0 16 11 44q40 84 107 150q10 10 18 10q4 0 4 -3q0 -6 -10 -17q-43 -45 -78 -111q-12 -22 -17 -39q-6 -17 -6 -29q0 -21 17.5 -30.5t51.5 -9.5
q14 0 54 4q4 1 3 -1.5t-5 -3.5q-54 -9 -80 -9z" />
    <glyph glyph-name="aogonek" unicode="&#x105;" horiz-adv-x="270" 
d="M12.5 10.5q-10.5 11.5 -10.5 33.5q0 40 27 82t65.5 69.5t71.5 27.5q34 0 50 -23q1 2 3 7t5 9q6 6 12 6q5 0 7.5 -3.5t0.5 -7.5l-13 -26q-29 -55 -51 -108q-8 -24 -8 -36q0 -23 18 -23t45 22.5t50 56.5q6 8 11 8t5 -7q0 -3 -3 -9q-18 -30 -51 -59t-59 -29q-33 0 -33 41
q0 11 3 24q-11 -11 -25.5 -23t-26.5 -19q-21 -12 -33 -18q-17 -7 -32 -7q-18 0 -28.5 11.5zM78 27q42 22 71.5 57.5t55.5 95.5q-10 26 -36 26q-29 0 -64 -24.5t-59 -61t-24 -71.5q0 -30 27 -30q14 0 29 8zM142 -233q-70 0 -70 45q0 16 11 44q40 84 107 150q10 10 18 10
q4 0 4 -3q0 -6 -10 -17q-43 -45 -78 -111q-12 -22 -17 -39q-6 -17 -6 -29q0 -21 17.5 -30.5t51.5 -9.5q14 0 54 4q4 1 3 -1.5t-5 -3.5q-54 -9 -80 -9z" />
    <glyph glyph-name="Cacute" unicode="&#x106;" horiz-adv-x="594" 
d="M24 -25q-4 16 -4 40q0 56 24.5 128t66.5 141q96 159 251 293q61 53 129 85.5t116 32.5q31 0 48.5 -14.5t17.5 -44.5q0 -13 -5 -35q-8 -32 -26 -64q-26 -45 -50 -79t-55 -69q-43 -49 -90.5 -93t-120.5 -108q-10 -10 -16 -10q-3 0 -3 3q0 6 11 16q103 90 203 199
q60 66 104 143q28 49 28 86q0 50 -56 50q-25 0 -58 -11t-69 -31q-34 -20 -76 -52q-199 -151 -306 -377q-21 -44 -34.5 -93t-13.5 -91q0 -29 7 -50q19 -64 90 -64q85 0 192.5 54t194.5 138q6 5 12 6.5t7 -1.5q0 -6 -3.5 -10.5t-8.5 -8.5q-88 -85 -197.5 -141t-194.5 -56
q-96 0 -115 88zM627 741q-3 0 -5.5 3.5t-2.5 7.5q0 5 5 10q6 4 19 22l79 100q4 5 8.5 11t10.5 13q1 2 5 2q3 0 6 -3t2 -5l-46 -60l-21 -28l-24 -32l-21 -26q-7 -10 -10 -11q-1 -4 -5 -4z" />
    <glyph glyph-name="cacute" unicode="&#x107;" horiz-adv-x="195" 
d="M25 16q-17 17 -17 45q0 34 23 74t59.5 67t75.5 27q16 0 25.5 -10t9.5 -26q0 -8 -1 -12q0 -4 -2 -8l-8 -19q-4 -6 -10 -6q-2 0 -4 1.5t-1 3.5q1 7 4.5 18t3.5 17q0 10 -7 16.5t-18 6.5q-30 0 -60.5 -23.5t-50.5 -57.5t-20 -62q0 -22 14 -36t43 -14q36 0 79 22.5t77 56.5
q8 8 12 8q6 0 6 -5q0 -4 -2.5 -7t-3.5 -4q-38 -39 -85.5 -64.5t-88.5 -25.5q-36 0 -53 17zM149 271q-3 0 -5.5 3.5t-2.5 7.5q0 5 5 10q6 4 19 22l79 100q4 5 8.5 11t10.5 13q1 2 5 2q3 0 6 -3t2 -5l-46 -60l-21 -28l-24 -32l-21 -26q-7 -10 -10 -11q-1 -4 -5 -4z" />
    <glyph glyph-name="Cdotaccent" unicode="&#x10a;" horiz-adv-x="522" 
d="M24 -25q-4 16 -4 40q0 56 24.5 128t66.5 141q96 159 251 293q61 53 129 85.5t116 32.5q31 0 48.5 -14.5t17.5 -44.5q0 -13 -5 -35q-8 -32 -26 -64q-26 -45 -50 -79t-55 -69q-43 -49 -90.5 -93t-120.5 -108q-10 -10 -16 -10q-3 0 -3 3q0 6 11 16q103 90 203 199
q60 66 104 143q28 49 28 86q0 50 -56 50q-25 0 -58 -11t-69 -31q-34 -20 -76 -52q-199 -151 -306 -377q-21 -44 -34.5 -93t-13.5 -91q0 -29 7 -50q19 -64 90 -64q85 0 192.5 54t194.5 138q6 5 12 6.5t7 -1.5q0 -6 -3.5 -10.5t-8.5 -8.5q-88 -85 -197.5 -141t-194.5 -56
q-96 0 -115 88zM623.5 765.5q-10.5 10.5 -10.5 24.5t10.5 24t24.5 10q13 0 23.5 -10t10.5 -24t-10 -24.5t-24 -10.5t-24.5 10.5z" />
    <glyph glyph-name="cdotaccent" unicode="&#x10b;" horiz-adv-x="195" 
d="M25 16q-17 17 -17 45q0 34 23 74t59.5 67t75.5 27q16 0 25.5 -10t9.5 -26q0 -8 -1 -12q0 -4 -2 -8l-8 -19q-4 -6 -10 -6q-2 0 -4 1.5t-1 3.5q1 7 4.5 18t3.5 17q0 10 -7 16.5t-18 6.5q-30 0 -60.5 -23.5t-50.5 -57.5t-20 -62q0 -22 14 -36t43 -14q36 0 79 22.5t77 56.5
q8 8 12 8q6 0 6 -5q0 -4 -2.5 -7t-3.5 -4q-38 -39 -85.5 -64.5t-88.5 -25.5q-36 0 -53 17zM140.5 316.5q-10.5 10.5 -10.5 24.5t10.5 24t24.5 10q13 0 23.5 -10t10.5 -24t-10 -24.5t-24 -10.5t-24.5 10.5z" />
    <glyph glyph-name="Ccaron" unicode="&#x10c;" horiz-adv-x="581" 
d="M24 -25q-4 16 -4 40q0 56 24.5 128t66.5 141q96 159 251 293q61 53 129 85.5t116 32.5q31 0 48.5 -14.5t17.5 -44.5q0 -13 -5 -35q-8 -32 -26 -64q-26 -45 -50 -79t-55 -69q-43 -49 -90.5 -93t-120.5 -108q-10 -10 -16 -10q-3 0 -3 3q0 6 11 16q103 90 203 199
q60 66 104 143q28 49 28 86q0 50 -56 50q-25 0 -58 -11t-69 -31q-34 -20 -76 -52q-199 -151 -306 -377q-21 -44 -34.5 -93t-13.5 -91q0 -29 7 -50q19 -64 90 -64q85 0 192.5 54t194.5 138q6 5 12 6.5t7 -1.5q0 -6 -3.5 -10.5t-8.5 -8.5q-88 -85 -197.5 -141t-194.5 -56
q-96 0 -115 88zM600 756q-6 18 -8 32l-14 71l-15 69q9 5 11 -2q6 -12 10 -24l28 -118q1 -4 2 -13t5 -13h4l3 1q50 72 74 108l21 30q10 21 11 24q9 2 9 -4q0 -9 -4 -16q-10 -20 -16 -29l-74 -112q-1 -1 -13 -16q-6 -7 -16 -7t-14 7q-2 2 -4 12z" />
    <glyph glyph-name="ccaron" unicode="&#x10d;" horiz-adv-x="195" 
d="M25 16q-17 17 -17 45q0 34 23 74t59.5 67t75.5 27q16 0 25.5 -10t9.5 -26q0 -8 -1 -12q0 -4 -2 -8l-8 -19q-4 -6 -10 -6q-2 0 -4 1.5t-1 3.5q1 7 4.5 18t3.5 17q0 10 -7 16.5t-18 6.5q-30 0 -60.5 -23.5t-50.5 -57.5t-20 -62q0 -22 14 -36t43 -14q36 0 79 22.5t77 56.5
q8 8 12 8q6 0 6 -5q0 -4 -2.5 -7t-3.5 -4q-38 -39 -85.5 -64.5t-88.5 -25.5q-36 0 -53 17zM148 294q-6 18 -8 32l-14 71l-15 69q9 5 11 -2q6 -12 10 -24l28 -118q1 -4 2 -13t5 -13h4l3 1q50 72 74 108l21 30q10 21 11 24q9 2 9 -4q0 -9 -4 -16q-10 -20 -16 -29l-74 -112
q-1 -1 -13 -16q-6 -7 -16 -7t-14 7q-2 2 -4 12z" />
    <glyph glyph-name="Dcaron" unicode="&#x10e;" horiz-adv-x="707" 
d="M37.5 -191.5q-17.5 12.5 -17.5 34.5q0 21 16.5 47t47.5 51q13 11 64 47q8 6 21 13l6 25q25 102 49 182t57 155q24 54 37 81q36 78 52 117t28 39q4 0 4 -6l-2 -8q-31 -62 -89 -198t-57 -147q58 103 95 157.5t105 125.5q46 48 99.5 86.5t99.5 51.5q24 6 43 6q48 0 73 -34.5
t25 -92.5q0 -57 -25 -126q-45 -123 -124 -229q-3 -4 -16 -21.5t-23 -28.5q51 11 88 17q5 0 5 -7q0 -8 -8 -9q-35 -7 -67 -15l-40 -9q-61 -68 -100.5 -106.5t-95.5 -80.5q-177 -130 -297 -130q-36 0 -53.5 12.5zM252 43q120 52 332 92l21 26q112 141 158 297q13 46 13 80
q0 50 -22 81t-64 31q-16 0 -36 -6q-87 -27 -168 -110q-195 -198 -271 -447q-16 -51 -18 -68zM180 -171q51 18 111 53q105 61 218 174l52 56q-38 -5 -115 -26t-150 -47t-105 -48q-16 -67 -18 -67q-2 -4 -8 -4q-4 0 -7 4q-2 5 0 11q0 12 6 42q-11 -5 -24.5 -15t-17.5 -13
q-24 -16 -49 -41q-33 -33 -33 -60q0 -30 43 -33q46 -4 97 14zM575 759q-6 18 -8 32l-14 71l-15 69q9 5 11 -2q6 -12 10 -24l28 -118q1 -4 2 -13t5 -13h4l3 1q50 72 74 108l21 30q10 21 11 24q9 2 9 -4q0 -9 -4 -16q-10 -20 -16 -29l-74 -112q-1 -1 -13 -16q-6 -7 -16 -7
t-14 7q-2 2 -4 12z" />
    <glyph glyph-name="dcaron" unicode="&#x10f;" horiz-adv-x="328" 
d="M40 -2q-18 0 -28.5 11.5t-10.5 32.5q0 38 31 84t78 74q26 16 49 16q26 0 37 -20q36 105 101 224t135 212q32 43 48 43q11 0 11 -21q0 -42 -40 -133q-43 -97 -106.5 -204t-128.5 -182q-3 -3 -10.5 -11.5t-11.5 -15.5t-6 -15q-4 -16 -4 -32q0 -41 33 -41q22 0 55 20t70 57
q8 8 14 8q3 0 3.5 -2.5t0.5 -5.5t-5 -8q-44 -44 -81.5 -66t-64.5 -22q-22 0 -33.5 14.5t-11.5 41.5q0 12 1 18l-8 -9q-11 -11 -25.5 -23t-26.5 -19q-21 -12 -33 -18q-18 -8 -32 -8zM342.5 344.5q75.5 126.5 110.5 223.5q19 54 19 68t-14.5 -0.5t-42.5 -56.5
q-39 -53 -87 -138t-85 -169t-46 -137q70 83 145.5 209.5zM131 64.5q24 22.5 40 46.5q2 8 5 18.5l7 24.5q2 19 -6 32t-25 13q-11 0 -21 -5q-42 -19 -73 -59t-37 -80q-2 -17 5.5 -27t21.5 -10t29 8q30 16 54 38.5zM463.863 452.146q-2.9541 -0.521484 -6.5166 2.40527
q-3.56152 2.92578 -4.25684 6.86426q-0.868164 4.9248 3.1875 10.7168q5.21484 4.98047 9.41602 12.8301q4.2002 7.84863 6.45996 12.3086l59.4502 112.024q4.05566 5.79199 8.16992 14.1328q4.11426 8.3418 6.37402 12.8018q0.637695 2.14258 4.57715 2.83789
q3.93848 0.694336 7.41406 -1.73926t1.85352 -4.75l-22.5986 -44.6016l-11.2988 -22.3008l-19.875 -37.0137q-4.3457 -9.9043 -15.0078 -30.0625q-4.51953 -8.91992 -8.80664 -16.2764q-4.28809 -7.35645 -7.35938 -12.9746q-5.15723 -11.0635 -6.95312 -12.3955
q-0.290039 -4.11328 -4.22949 -4.80762z" />
    <glyph glyph-name="Dcroat" unicode="&#x110;" horiz-adv-x="707" 
d="M645 186q-3 -4 -16 -21.5t-23 -28.5q51 11 88 17q5 0 5 -7q0 -8 -8 -9q-35 -7 -67 -15l-40 -9q-61 -68 -100.5 -106.5t-95.5 -80.5q-177 -130 -297 -130l-17 1q-27 2 -40.5 14.5t-13.5 31.5q0 21 16.5 47t47.5 51q13 11 64 47q8 6 21 13l6 25q19 83 37 142q-15 0 -47 -2
q-13 -1 -29 -6l-20 -4h-10l-6 8q1 1 1 3t1 1q13 9 19 10q58 6 88 7h8q31 103 64 178q24 54 37 81q36 78 52 117t28 39q4 0 4 -6l-2 -8q-31 -62 -89 -198t-57 -147q58 103 95 157.5t105 125.5q46 48 99.5 86.5t99.5 51.5q24 6 43 6q48 0 73 -34.5t25 -92.5q0 -57 -25 -126
q-45 -123 -124 -229zM763 458q13 46 13 80q0 50 -22 81t-64 31q-16 0 -36 -6q-87 -27 -168 -110q-158 -161 -235 -348q40 1 120 1q2 0 4 -2.5t2 -4.5l-7 -7q-2 -2 -6 -2h-46q-45 0 -74 -1q-11 -27 -29 -83q-16 -51 -18 -68l55 24q120 52 332 92l21 26q112 141 158 297z
M561 112q-38 -5 -115 -26t-150 -47t-105 -48q-16 -67 -18 -67q-2 -4 -8 -4q-4 0 -7 4q-2 5 0 11q0 12 6 42q-11 -5 -24.5 -15t-17.5 -13q-24 -16 -49 -41q-33 -33 -33 -60q0 -34 57 -34q43 0 91 18t103 50q105 61 218 174z" />
    <glyph glyph-name="dcroat" unicode="&#x111;" horiz-adv-x="328" 
d="M40 -2q-18 0 -28.5 11.5t-10.5 32.5q0 38 31 84t78 74q26 16 49 16q26 0 37 -20q36 105 101 224t135 212q32 43 48 43q11 0 11 -21q0 -42 -40 -133q-43 -97 -106.5 -204t-128.5 -182q-3 -3 -10.5 -11.5t-11.5 -15.5t-6 -15q-4 -16 -4 -32q0 -41 33 -41q22 0 55 20t70 57
q8 8 14 8q3 0 3.5 -2.5t0.5 -5.5t-5 -8q-44 -44 -81.5 -66t-64.5 -22q-22 0 -33.5 14.5t-11.5 41.5q0 12 1 18l-8 -9q-11 -11 -25.5 -23t-26.5 -19q-21 -12 -33 -18q-18 -8 -32 -8zM342.5 344.5q75.5 126.5 110.5 223.5q19 54 19 68t-14.5 -0.5t-42.5 -56.5
q-39 -53 -87 -138t-85 -169t-46 -137q70 83 145.5 209.5zM131 64.5q24 22.5 40 46.5q2 8 5 18.5l7 24.5q2 19 -6 32t-25 13q-11 0 -21 -5q-42 -19 -73 -59t-37 -80q-2 -17 5.5 -27t21.5 -10t29 8q30 16 54 38.5zM176 371q1 1 1 3t1 1q13 9 19 10q57 6 88 7q58 2 162 2
q2 0 4 -2.5t2 -4.5l-7 -7q-2 -2 -6 -2q-116 0 -199 -5q-14 -1 -29 -6l-20 -4h-10z" />
    <glyph glyph-name="Emacron" unicode="&#x112;" horiz-adv-x="542" 
d="M34.5 38.5q14.5 44.5 40.5 103.5q13 31 18 39l-10 -2q-10 0 0 11.5t29 22.5q38 64 65.5 106t61.5 92l25 37q9 14 40 54l24 33q3 5 14 17.5t12 16.5q-52 -22 -58 -25l-40 -17l-41 -18q-2 -1 -5 -1q-5 0 -5 5q0 6 8 13q7 7 31.5 18t93.5 37q11 4 45 20q5 2 12 5t11 3
q14 -1 31 4t21 6q5 2 22 7q58 14 174 46q29 9 68 19q6 1 10.5 0t4.5 -4q0 -10 -35 -19l-29 -8q-110 -29 -219 -60q-10 -3 -37.5 -11t-39.5 -20t-42 -51q-85 -108 -175 -258l-21 -35q20 10 80 34l138 51l9 2q5 0 5 -4q0 -3 -5.5 -8.5t-15.5 -8.5l-62 -23q-77 -29 -94 -36
t-51 -23q-18 -9 -28 -26q-54 -96 -71 -173q-4 -17 -4 -34q0 -56 61 -56q50 0 134.5 32t215.5 94q8 4 46 18q3 0 3 -3q0 -7 -9 -13q-290 -148 -399 -148q-72 0 -72 61q0 33 14.5 77.5zM306.008 677.649q-11.4365 2.1123 -12.7305 6.94141q-1.8125 6.76074 10.7441 10.126
q30.3906 10.2148 85.4463 24.9697q118.803 31.8379 195.127 36.7637l-250.99 -75.5459q-16.1611 -5.36621 -27.5967 -3.25488z" />
    <glyph glyph-name="emacron" unicode="&#x113;" horiz-adv-x="184" 
d="M95.5 9q-27.5 -10 -48.5 -10q-22 0 -34.5 10.5t-12.5 31.5t13 52q26 60 89 104q28 19 50 19q12 0 19.5 -6t7.5 -16q0 -16 -14 -34q-45 -63 -143 -103q-2 -12 -2 -15q0 -26 30 -26q29 0 73.5 24t75.5 57q6 7 11 7q6 0 6 -6q0 -4 -5 -9q-24 -27 -63 -54q-25 -16 -52.5 -26z
M93.5 112q33.5 21 56.5 54q1 1 7 10q3 6 3 10q0 12 -15 12q-10 0 -21 -6q-36 -20 -62 -51t-38 -66q36 16 69.5 37zM23.5 316q-10.5 5 -10.5 10q0 7 13 7q32 2 89 2q123 0 198 -15l-262 -8q-17 -1 -27.5 4z" />
    <glyph glyph-name="Edotaccent" unicode="&#x116;" horiz-adv-x="542" 
d="M34.5 38.5q14.5 44.5 40.5 103.5q13 31 18 39l-10 -2q-10 0 0 11.5t29 22.5q38 64 65.5 106t61.5 92l25 37q9 14 40 54l24 33q3 5 14 17.5t12 16.5q-52 -22 -58 -25l-40 -17l-41 -18q-2 -1 -5 -1q-5 0 -5 5q0 6 8 13q7 7 31.5 18t93.5 37q11 4 45 20q5 2 12 5t11 3
q14 -1 31 4t21 6q5 2 22 7q58 14 174 46q29 9 68 19q6 1 10.5 0t4.5 -4q0 -10 -35 -19l-29 -8q-110 -29 -219 -60q-10 -3 -37.5 -11t-39.5 -20t-42 -51q-85 -108 -175 -258l-21 -35q20 10 80 34l138 51l9 2q5 0 5 -4q0 -3 -5.5 -8.5t-15.5 -8.5l-62 -23q-77 -29 -94 -36
t-51 -23q-18 -9 -28 -26q-54 -96 -71 -173q-4 -17 -4 -34q0 -56 61 -56q50 0 134.5 32t215.5 94q8 4 46 18q3 0 3 -3q0 -7 -9 -13q-290 -148 -399 -148q-72 0 -72 61q0 33 14.5 77.5zM469.5 688.5q-10.5 10.5 -10.5 24.5t10.5 24t24.5 10q13 0 23.5 -10t10.5 -24t-10 -24.5
t-24 -10.5t-24.5 10.5z" />
    <glyph glyph-name="edotaccent" unicode="&#x117;" horiz-adv-x="184" 
d="M95.5 9q-27.5 -10 -48.5 -10q-22 0 -34.5 10.5t-12.5 31.5t13 52q26 60 89 104q28 19 50 19q12 0 19.5 -6t7.5 -16q0 -16 -14 -34q-45 -63 -143 -103q-2 -12 -2 -15q0 -26 30 -26q29 0 73.5 24t75.5 57q6 7 11 7q6 0 6 -6q0 -4 -5 -9q-24 -27 -63 -54q-25 -16 -52.5 -26z
M93.5 112q33.5 21 56.5 54q1 1 7 10q3 6 3 10q0 12 -15 12q-10 0 -21 -6q-36 -20 -62 -51t-38 -66q36 16 69.5 37zM110.5 293.5q-10.5 10.5 -10.5 24.5t10.5 24t24.5 10q13 0 23.5 -10t10.5 -24t-10 -24.5t-24 -10.5t-24.5 10.5z" />
    <glyph glyph-name="Eogonek" unicode="&#x118;" horiz-adv-x="542" 
d="M34.5 38.5q14.5 44.5 40.5 103.5q13 31 18 39l-10 -2q-10 0 0 11.5t29 22.5q38 64 65.5 106t61.5 92l25 37q9 14 40 54l24 33q3 5 14 17.5t12 16.5q-52 -22 -58 -25l-40 -17l-41 -18q-2 -1 -5 -1q-5 0 -5 5q0 6 8 13q7 7 31.5 18t93.5 37q11 4 45 20q5 2 12 5t11 3
q14 -1 31 4t21 6q5 2 22 7q58 14 174 46q29 9 68 19q6 1 10.5 0t4.5 -4q0 -10 -35 -19l-29 -8q-110 -29 -219 -60q-10 -3 -37.5 -11t-39.5 -20t-42 -51q-85 -108 -175 -258l-21 -35q20 10 80 34l138 51l9 2q5 0 5 -4q0 -3 -5.5 -8.5t-15.5 -8.5l-62 -23q-77 -29 -94 -36
t-51 -23q-18 -9 -28 -26q-54 -96 -71 -173q-4 -17 -4 -34q0 -56 61 -56q50 0 134.5 32t215.5 94q8 4 46 18q3 0 3 -3q0 -7 -9 -13q-290 -148 -399 -148q-72 0 -72 61q0 33 14.5 77.5zM85 -322q-70 0 -70 45q0 16 11 44q40 84 107 150q10 10 18 10q4 0 4 -3q0 -6 -10 -17
q-43 -45 -78 -111q-12 -22 -17 -39q-6 -17 -6 -29q0 -21 17.5 -30.5t51.5 -9.5q14 0 54 4q4 1 3 -1.5t-5 -3.5q-54 -9 -80 -9z" />
    <glyph glyph-name="eogonek" unicode="&#x119;" horiz-adv-x="184" 
d="M95.5 9q-27.5 -10 -48.5 -10q-22 0 -34.5 10.5t-12.5 31.5t13 52q26 60 89 104q28 19 50 19q12 0 19.5 -6t7.5 -16q0 -16 -14 -34q-45 -63 -143 -103q-2 -12 -2 -15q0 -26 30 -26q29 0 73.5 24t75.5 57q6 7 11 7q6 0 6 -6q0 -4 -5 -9q-24 -27 -63 -54q-25 -16 -52.5 -26z
M93.5 112q33.5 21 56.5 54q1 1 7 10q3 6 3 10q0 12 -15 12q-10 0 -21 -6q-36 -20 -62 -51t-38 -66q36 16 69.5 37zM37 -224q-70 0 -70 45q0 16 11 44q40 84 107 150q10 10 18 10q4 0 4 -3q0 -6 -10 -17q-43 -45 -78 -111q-12 -22 -17 -39q-6 -17 -6 -29q0 -21 17.5 -30.5
t51.5 -9.5q14 0 54 4q4 1 3 -1.5t-5 -3.5q-54 -9 -80 -9z" />
    <glyph glyph-name="Ecaron" unicode="&#x11a;" horiz-adv-x="542" 
d="M34.5 38.5q14.5 44.5 40.5 103.5q13 31 18 39l-10 -2q-10 0 0 11.5t29 22.5q38 64 65.5 106t61.5 92l25 37q9 14 40 54l24 33q3 5 14 17.5t12 16.5q-52 -22 -58 -25l-40 -17l-41 -18q-2 -1 -5 -1q-5 0 -5 5q0 6 8 13q7 7 31.5 18t93.5 37q11 4 45 20q5 2 12 5t11 3
q14 -1 31 4t21 6q5 2 22 7q58 14 174 46q29 9 68 19q6 1 10.5 0t4.5 -4q0 -10 -35 -19l-29 -8q-110 -29 -219 -60q-10 -3 -37.5 -11t-39.5 -20t-42 -51q-85 -108 -175 -258l-21 -35q20 10 80 34l138 51l9 2q5 0 5 -4q0 -3 -5.5 -8.5t-15.5 -8.5l-62 -23q-77 -29 -94 -36
t-51 -23q-18 -9 -28 -26q-54 -96 -71 -173q-4 -17 -4 -34q0 -56 61 -56q50 0 134.5 32t215.5 94q8 4 46 18q3 0 3 -3q0 -7 -9 -13q-290 -148 -399 -148q-72 0 -72 61q0 33 14.5 77.5zM461 708q-6 18 -8 32l-14 71l-15 69q9 5 11 -2q6 -12 10 -24l28 -118q1 -4 2 -13t5 -13h4
l3 1q50 72 74 108l21 30q10 21 11 24q9 2 9 -4q0 -9 -4 -16q-10 -20 -16 -29l-74 -112q-1 -1 -13 -16q-6 -7 -16 -7t-14 7q-2 2 -4 12z" />
    <glyph glyph-name="ecaron" unicode="&#x11b;" horiz-adv-x="184" 
d="M95.5 9q-27.5 -10 -48.5 -10q-22 0 -34.5 10.5t-12.5 31.5t13 52q26 60 89 104q28 19 50 19q12 0 19.5 -6t7.5 -16q0 -16 -14 -34q-45 -63 -143 -103q-2 -12 -2 -15q0 -26 30 -26q29 0 73.5 24t75.5 57q6 7 11 7q6 0 6 -6q0 -4 -5 -9q-24 -27 -63 -54q-25 -16 -52.5 -26z
M93.5 112q33.5 21 56.5 54q1 1 7 10q3 6 3 10q0 12 -15 12q-10 0 -21 -6q-36 -20 -62 -51t-38 -66q36 16 69.5 37zM131 287q-6 18 -8 32l-14 71l-15 69q9 5 11 -2q6 -12 10 -24l28 -118q1 -4 2 -13t5 -13h4l3 1q50 72 74 108l21 30q10 21 11 24q9 2 9 -4q0 -9 -4 -16
q-10 -20 -16 -29l-74 -112q-1 -1 -13 -16q-6 -7 -16 -7t-14 7q-2 2 -4 12z" />
    <glyph glyph-name="Gbreve" unicode="&#x11e;" horiz-adv-x="661" 
d="M356 -131q107 260 132 309l-53 -42l-26 -21q-28 -24 -56 -43q-55 -37 -112.5 -65t-107.5 -36q-9 -2 -27 -2q-34 0 -55.5 16.5t-27.5 47.5q-3 15 -3 33q0 57 27 131t69 134q166 239 419 346q74 31 126 31q48 0 72 -19.5t24 -57.5q0 -16 -7 -44q-5 -18 -21 -54
q-4 -9 -9 -15t-8 -6t-3 5t3 15l9 25q9 23 15 46q3 14 3 24q0 30 -20.5 46t-59.5 16q-67 0 -153 -44q-268 -134 -407 -375q-26 -45 -43 -100.5t-17 -97.5q0 -27 7 -44q16 -41 66 -41q10 0 16 1q61 7 134.5 47t140.5 96q29 23 83 73q32 30 59 73q31 51 62 81q8 8 18 8t10 -10
q0 -8 -8 -16q-36 -46 -65 -79q-28 -31 -45 -66q-25 -48 -52 -108q-34 -77 -80 -191l-21 -43q-4 -4 -8.5 -5.5t-5.5 5.5q0 2 6 16zM630 843q0 -25 18 -39t47 -14q42 0 85.5 29.5t64.5 84.5q-15 -65 -58 -99t-91 -34q-37 0 -62.5 19t-25.5 52q0 11 5 28q10 34 17 34q5 0 5 -16
q0 -15 -4 -32q-1 -4 -1 -13z" />
    <glyph glyph-name="gbreve" unicode="&#x11f;" horiz-adv-x="281" 
d="M-228 -465q-23 0 -35.5 13.5t-12.5 38.5q0 31 17 68q27 55 90 115.5t142 111.5t151 81q8 21 40 118q-27 -35 -57.5 -58.5t-56.5 -23.5q-21 0 -33.5 13.5t-12.5 35.5q0 38 22.5 75t59 61t74.5 24q13 0 25 -3q11 -1 11 -9q0 -5 -5 -8t-11 0q-11 3 -22 3q-31 0 -63 -22
t-52.5 -54.5t-20.5 -62.5q0 -35 32 -35q23 0 51.5 23.5t52.5 57.5t32 61l17 51q3 7 8 11.5t9 4.5q8 0 4 -14q-61 -189 -83 -241q42 21 81.5 55t69.5 71q6 8 11 8t5 -6q0 -5 -4 -10q-31 -41 -76 -78.5t-94 -62.5q-60 -137 -136.5 -237.5t-148.5 -145.5q-48 -30 -81 -30z
M-14 -281.5q73 95.5 128 221.5q-66 -29 -140 -78.5t-133.5 -106t-82.5 -105.5q-16 -35 -16 -59q0 -18 9 -27.5t25 -9.5q28 0 70 27q67 42 140 137.5zM74 339q0 -25 18 -39t47 -14q42 0 85.5 29.5t64.5 84.5q-15 -65 -58 -99t-91 -34q-37 0 -62.5 19t-25.5 52q0 11 5 28
q10 34 17 34q5 0 5 -16q0 -15 -4 -32q-1 -4 -1 -13z" />
    <glyph glyph-name="Gdotaccent" unicode="&#x120;" horiz-adv-x="573" 
d="M356 -131q107 260 132 309l-53 -42l-26 -21q-28 -24 -56 -43q-55 -37 -112.5 -65t-107.5 -36q-9 -2 -27 -2q-34 0 -55.5 16.5t-27.5 47.5q-3 15 -3 33q0 57 27 131t69 134q166 239 419 346q74 31 126 31q48 0 72 -19.5t24 -57.5q0 -16 -7 -44q-5 -18 -21 -54
q-4 -9 -9 -15t-8 -6t-3 5t3 15l9 25q9 23 15 46q3 14 3 24q0 30 -20.5 46t-59.5 16q-67 0 -153 -44q-268 -134 -407 -375q-26 -45 -43 -100.5t-17 -97.5q0 -27 7 -44q16 -41 66 -41q10 0 16 1q61 7 134.5 47t140.5 96q29 23 83 73q32 30 59 73q31 51 62 81q8 8 18 8t10 -10
q0 -8 -8 -16q-36 -46 -65 -79q-28 -31 -45 -66q-25 -48 -52 -108q-34 -77 -80 -191l-21 -43q-4 -4 -8.5 -5.5t-5.5 5.5q0 2 6 16zM684.5 789.5q-10.5 10.5 -10.5 24.5t10.5 24t24.5 10q13 0 23.5 -10t10.5 -24t-10 -24.5t-24 -10.5t-24.5 10.5z" />
    <glyph glyph-name="gdotaccent" unicode="&#x121;" horiz-adv-x="281" 
d="M-228 -465q-23 0 -35.5 13.5t-12.5 38.5q0 31 17 68q27 55 90 115.5t142 111.5t151 81q8 21 40 118q-27 -35 -57.5 -58.5t-56.5 -23.5q-21 0 -33.5 13.5t-12.5 35.5q0 38 22.5 75t59 61t74.5 24q13 0 25 -3q11 -1 11 -9q0 -5 -5 -8t-11 0q-11 3 -22 3q-31 0 -63 -22
t-52.5 -54.5t-20.5 -62.5q0 -35 32 -35q23 0 51.5 23.5t52.5 57.5t32 61l17 51q3 7 8 11.5t9 4.5q8 0 4 -14q-61 -189 -83 -241q42 21 81.5 55t69.5 71q6 8 11 8t5 -6q0 -5 -4 -10q-31 -41 -76 -78.5t-94 -62.5q-60 -137 -136.5 -237.5t-148.5 -145.5q-48 -30 -81 -30z
M-14 -281.5q73 95.5 128 221.5q-66 -29 -140 -78.5t-133.5 -106t-82.5 -105.5q-16 -35 -16 -59q0 -18 9 -27.5t25 -9.5q28 0 70 27q67 42 140 137.5zM125.5 301.5q-10.5 10.5 -10.5 24.5t10.5 24t24.5 10q13 0 23.5 -10t10.5 -24t-10 -24.5t-24 -10.5t-24.5 10.5z" />
    <glyph glyph-name="Gcommaaccent" unicode="&#x122;" horiz-adv-x="573" 
d="M356 -131q107 260 132 309l-53 -42l-26 -21q-28 -24 -56 -43q-55 -37 -112.5 -65t-107.5 -36q-9 -2 -27 -2q-34 0 -55.5 16.5t-27.5 47.5q-3 15 -3 33q0 57 27 131t69 134q166 239 419 346q74 31 126 31q48 0 72 -19.5t24 -57.5q0 -16 -7 -44q-5 -18 -21 -54
q-4 -9 -9 -15t-8 -6t-3 5t3 15l9 25q9 23 15 46q3 14 3 24q0 30 -20.5 46t-59.5 16q-67 0 -153 -44q-268 -134 -407 -375q-26 -45 -43 -100.5t-17 -97.5q0 -27 7 -44q16 -41 66 -41q10 0 16 1q61 7 134.5 47t140.5 96q29 23 83 73q32 30 59 73q31 51 62 81q8 8 18 8t10 -10
q0 -8 -8 -16q-36 -46 -65 -79q-28 -31 -45 -66q-25 -48 -52 -108q-34 -77 -80 -191l-21 -43q-4 -4 -8.5 -5.5t-5.5 5.5q0 2 6 16zM185 -169q0 4 -2 14q-2 5 -2 13q0 17 15 22q8 2 10 2q8 0 12.5 -6.5t4.5 -17.5q0 -19 -12 -43q-10 -16 -21 -24t-18 -8q-4 0 -5 2t1 5
q17 23 17 41z" />
    <glyph glyph-name="gcommaaccent" unicode="&#x123;" horiz-adv-x="281" 
d="M147 280q-8 0 -12.5 6.5t-4.5 17.5q0 19 12 43q10 16 21 24t18 8q4 0 5 -2t-1 -5q-17 -23 -17 -41q0 -4 2 -14q2 -5 2 -13q0 -17 -15 -22q-8 -2 -10 -2zM-228 -465q-23 0 -35.5 13.5t-12.5 38.5q0 31 17 68q27 55 90 115.5t142 111.5t151 81q8 21 40 118
q-27 -35 -57.5 -58.5t-56.5 -23.5q-21 0 -33.5 13.5t-12.5 35.5q0 38 22.5 75t59 61t74.5 24q13 0 25 -3q11 -1 11 -9q0 -5 -5 -8t-11 0q-11 3 -22 3q-31 0 -63 -22t-52.5 -54.5t-20.5 -62.5q0 -35 32 -35q23 0 51.5 23.5t52.5 57.5t32 61l17 51q3 7 8 11.5t9 4.5q8 0 4 -14
q-61 -189 -83 -241q42 21 81.5 55t69.5 71q6 8 11 8t5 -6q0 -5 -4 -10q-31 -41 -76 -78.5t-94 -62.5q-60 -137 -136.5 -237.5t-148.5 -145.5q-48 -30 -81 -30zM-14 -281.5q73 95.5 128 221.5q-66 -29 -140 -78.5t-133.5 -106t-82.5 -105.5q-16 -35 -16 -59q0 -18 9 -27.5
t25 -9.5q28 0 70 27q67 42 140 137.5z" />
    <glyph glyph-name="Hbar" unicode="&#x126;" horiz-adv-x="606" 
d="M103 -57q-7 0 -7 13q0 7 3 16q4 17 16 51q4 9 7 20q15 44 24 79t9 67q0 65 -46 95q-18 11 -33 11q-6 0 -10 -1q-7 -1 -17 -1q-14 0 -21.5 4t-7.5 9q0 7 11.5 12t29.5 3q13 -3 27 -3q19 0 39.5 4t51.5 12l71 20l6 19q9 30 21 60q-6 0 -16 -2q-89 -13 -224 -31
q-6 -1 -11.5 -0.5t-9.5 0.5q0 2 -1 2.5t-1 1.5q0 5 3 5q20 7 25 8l241 33l24 65q2 5 29.5 80t43.5 121q3 7 8 7t5 -8q0 -4 -3 -13q-7 -18 -11 -31.5t-7 -22.5l-68 -195q203 26 308 33q37 99 83 184q4 6 10 8q4 0 4 -3l-2 -8l-6 -16q-30 -53 -71 -163h7h5q13 0 13 -7
q0 -6 -13 -9l-18 -1l-27 -79q7 0 11.5 -1t5.5 -4q0 -11 -8 -15q-6 -1 -17 -1q-16 -38 -45.5 -143t-49.5 -189q-5 -21 -19 -65q-1 -2 -3 -3.5t-4 -1.5q-7 0 -7 6q24 106 39 160.5t43 146.5q15 46 27 89h-30q-133 0 -236 -23q-4 -1 -19 -4.5t-20 -5.5l-22 -61
q-14 -41 -44 -121l-9 -26q-13 -34 -24.5 -62.5t-20.5 -50.5l-21 -50q-11 -24 -21 -24zM302 365q105 25 235 25q26 0 42 2l27 78q-163 -13 -308 -34l-6 -17l-20 -60zM166 115q33 87 45 124l7 21t8 25l16 48q-7 -2 -53.5 -14.5t-74.5 -16.5q58 -35 58 -109q0 -52 -29 -142z
" />
    <glyph glyph-name="hbar" unicode="&#x127;" horiz-adv-x="253" 
d="M-31 -42q0 22 19 73q93 259 296 542q33 46 60.5 71.5t42.5 25.5q12 0 12 -17q0 -24 -25 -77q-94 -197 -305 -435q-23 -27 -31.5 -40t-15.5 -29q-4 -10 -13.5 -35.5t-12.5 -36.5q30 55 72.5 100t65.5 45q16 0 16 -24t-14 -65q-4 -12 -4 -22q0 -18 16 -18t47.5 20.5
t71.5 60.5q7 7 13 7q5 0 5 -4q0 -3 -6 -11q-41 -44 -77.5 -66.5t-60.5 -22.5q-27 0 -27 27q0 12 4 24q14 44 14 58t-8 14q-17 0 -60 -52.5t-71 -105.5q-10 -19 -17 -19t-7 12zM355 576q22 44 22 61q0 8 -5 8q-8 0 -26 -18.5t-43 -53.5q-152 -207 -255 -435q193 212 307 438z
M23 337q1 1 1 3t1 1q13 9 19 10q57 6 88 7q58 2 162 2q2 0 4 -2.5t2 -4.5l-7 -7q-2 -2 -6 -2q-116 0 -199 -5q-14 -1 -29 -6l-20 -4h-10z" />
    <glyph glyph-name="Imacron" unicode="&#x12a;" horiz-adv-x="387" 
d="M20 -120q1 1 1 3t1 1q11 11 17 13q29 7 87 19l42 7q20 105 78 263q35 98 95.5 229.5t135.5 255.5l-102 -19q-14 -3 -27 -9l-20 -7l-10 -2q-1 2 -6 7q0 2 -0.5 3.5t0.5 1.5q3 2 8.5 6.5t9.5 5.5q51 13 86 19q13 2 25.5 4.5t25.5 4.5l21 4q2 2 4 6q17 23 19 25q5 8 11 8
q2 0 4 -2t2 -5t-3 -8l-12 -19q88 14 123 14q2 0 4.5 -2t2.5 -3l-6 -9q-2 -2 -6 -2q-21 0 -131 -18q-85 -140 -165.5 -313.5t-125.5 -343.5q-8 -31 -22 -93l158 23q1 1 4 -1.5t3 -4.5l-6 -8q-2 -2 -3.5 -2.5t-2.5 -0.5l-36 -5l-120 -17q-3 -16 -11 -19q-5 -1 -8 4v12l-80 -15
q-13 -3 -25 -9q-18 -7 -23 -8l-9 -1zM400.443 759.541q-11.209 3.10059 -12.0771 8.02441q-1.21582 6.89355 11.5869 9.15137q31.166 7.52539 87.2998 17.4238q121.131 21.3584 197.596 19.6094l-256.629 -53.373q-16.5684 -3.9375 -27.7764 -0.835938z" />
    <glyph glyph-name="imacron" unicode="&#x12b;" horiz-adv-x="158" 
d="M7 45q0 33 19.5 81.5t50.5 95.5q5 5 10 5t6.5 -3t-1.5 -7q-28 -43 -48 -90t-20 -76q0 -33 27 -33q26 0 64 24.5t58 54.5q7 7 11 7q5 0 5 -6q0 -5 -4 -9q-28 -36 -69.5 -62t-71.5 -26q-37 0 -37 44zM4.5 285q-10.5 5 -10.5 10q0 7 13 7q32 2 89 2q123 0 198 -15l-262 -8
q-17 -1 -27.5 4z" />
    <glyph glyph-name="Iogonek" unicode="&#x12e;" horiz-adv-x="387" 
d="M20 -120q1 1 1 3t1 1q11 11 17 13q29 7 87 19l42 7q20 105 78 263q35 98 95.5 229.5t135.5 255.5l-102 -19q-14 -3 -27 -9l-20 -7l-10 -2q-1 2 -6 7q0 2 -0.5 3.5t0.5 1.5q3 2 8.5 6.5t9.5 5.5q51 13 86 19q13 2 25.5 4.5t25.5 4.5l21 4q2 2 4 6q17 23 19 25q5 8 11 8
q2 0 4 -2t2 -5t-3 -8l-12 -19q88 14 123 14q2 0 4.5 -2t2.5 -3l-6 -9q-2 -2 -6 -2q-21 0 -131 -18q-85 -140 -165.5 -313.5t-125.5 -343.5q-8 -31 -22 -93l158 23q1 1 4 -1.5t3 -4.5l-6 -8q-2 -2 -3.5 -2.5t-2.5 -0.5l-36 -5l-120 -17q-3 -16 -11 -19q-5 -1 -8 4v12l-80 -15
q-13 -3 -25 -9q-18 -7 -23 -8l-9 -1zM119 -329q-70 0 -70 45q0 16 11 44q40 84 107 150q10 10 18 10q4 0 4 -3q0 -6 -10 -17q-43 -45 -78 -111q-12 -22 -17 -39q-6 -17 -6 -29q0 -21 17.5 -30.5t51.5 -9.5q14 0 54 4q4 1 3 -1.5t-5 -3.5q-54 -9 -80 -9z" />
    <glyph glyph-name="iogonek" unicode="&#x12f;" horiz-adv-x="158" 
d="M92 269v2q0 10 12.5 22t23.5 12q7 0 11.5 -5t4.5 -12q0 -13 -10 -23.5t-27 -10.5q-14 0 -15 15zM189 98q0 -5 -4 -9q-20 -25 -46.5 -46t-52.5 -32q-1 -2 -5 -6q-43 -45 -78 -111q-12 -22 -17 -39q-6 -17 -6 -29q0 -21 17.5 -30.5t51.5 -9.5q14 0 54 4q5 1 3.5 -1.5
t-5.5 -3.5q-54 -9 -80 -9q-70 0 -70 45q0 16 11 44q37 77 94 137q-4 -1 -12 -1q-37 0 -37 44q0 33 19.5 81.5t50.5 95.5q5 5 10 5t6.5 -3t-1.5 -7q-28 -43 -48 -90t-20 -76q0 -33 27 -33q26 0 64 24.5t58 54.5q7 7 11 7q5 0 5 -6z" />
    <glyph glyph-name="Idotaccent" unicode="&#x130;" horiz-adv-x="387" 
d="M20 -120q1 1 1 3t1 1q11 11 17 13q29 7 87 19l42 7q20 105 78 263q35 98 95.5 229.5t135.5 255.5l-102 -19q-14 -3 -27 -9l-20 -7l-10 -2q-1 2 -6 7q0 2 -0.5 3.5t0.5 1.5q3 2 8.5 6.5t9.5 5.5q51 13 86 19q13 2 25.5 4.5t25.5 4.5l21 4q2 2 4 6q17 23 19 25q5 8 11 8
q2 0 4 -2t2 -5t-3 -8l-12 -19q88 14 123 14q2 0 4.5 -2t2.5 -3l-6 -9q-2 -2 -6 -2q-21 0 -131 -18q-85 -140 -165.5 -313.5t-125.5 -343.5q-8 -31 -22 -93l158 23q1 1 4 -1.5t3 -4.5l-6 -8q-2 -2 -3.5 -2.5t-2.5 -0.5l-36 -5l-120 -17q-3 -16 -11 -19q-5 -1 -8 4v12l-80 -15
q-13 -3 -25 -9q-18 -7 -23 -8l-9 -1zM557.5 797.5q-10.5 10.5 -10.5 24.5t10.5 24t24.5 10q13 0 23.5 -10t10.5 -24t-10 -24.5t-24 -10.5t-24.5 10.5z" />
    <glyph glyph-name="dotlessi" unicode="&#x131;" horiz-adv-x="158" 
d="M7 45q0 33 19.5 81.5t50.5 95.5q5 5 10 5t6.5 -3t-1.5 -7q-28 -43 -48 -90t-20 -76q0 -33 27 -33q26 0 64 24.5t58 54.5q7 7 11 7q5 0 5 -6q0 -5 -4 -9q-28 -36 -69.5 -62t-71.5 -26q-37 0 -37 44z" />
    <glyph glyph-name="Kcommaaccent" unicode="&#x136;" horiz-adv-x="572" 
d="M128 184q-10 15 -10 17q0 3 7.5 5t10.5 3l12 33q29 78 70.5 157t102.5 180q16 26 38 57q12 18 20 18q3 0 3 -3q0 -4 -8 -18q-106 -157 -176 -314q-3 -5 -7 -13.5t-6 -13.5l-10 -27q-9 -21 -18 -48q147 69 266.5 153t249.5 203q16 15 67 68q11 10 17 10q3 0 3 -3
q0 -6 -10 -16q-24 -28 -57 -61q-139 -130 -260.5 -213t-279.5 -165q31 -60 62.5 -102t84 -80t134.5 -65q19 -6 59 -14l26 -5q2 -2 2 -6q0 -11 -13 -10h-5q-95 22 -158 53.5t-110.5 80t-92.5 125.5q-5 -8 -39.5 -116t-55.5 -181q-5 -16 -11.5 -24.5t-10.5 -8.5q-5 0 -5 7
q0 6 6 20q64 203 102 317zM276 -234q0 4 -2 14q-2 5 -2 13q0 17 15 22q8 2 10 2q8 0 12.5 -6.5t4.5 -17.5q0 -19 -12 -43q-10 -16 -21 -24t-18 -8q-4 0 -5 2t1 5q17 23 17 41z" />
    <glyph glyph-name="kcommaaccent" unicode="&#x137;" horiz-adv-x="227" 
d="M-7.5 22q8.5 32 27.5 93q66 211 197 430q22 36 58 87q33 43 49 43q11 0 11 -21t-10.5 -56t-30.5 -77q-41 -87 -111.5 -200t-137.5 -200q-18 -44 -28 -76.5t-13 -40.5q38 89 76.5 130.5t67.5 41.5q12 0 18.5 -7t6.5 -18q0 -23 -27.5 -50.5t-84.5 -46.5q-1 -4 -1 -11
q0 -18 10 -27.5t28 -9.5q29 0 69 24t76 67q5 6 9 6q3 0 3 -5q0 -6 -5 -12q-36 -46 -79.5 -72t-78.5 -26q-24 0 -38.5 14t-14.5 41q-11 -22 -22 -52q-6 -16 -13 -25t-12 -9q-8 0 -8 17q0 16 8.5 48zM189 361q78 129 108 207q17 44 17 67q0 7 -4 7q-10 0 -52 -63
q-54 -81 -119.5 -215t-88.5 -215q61 83 139 212zM65 74q43 16 65 36t22 34q0 5 -3.5 8.5t-9.5 3.5q-15 0 -37.5 -20t-47.5 -63zM56 -152q0 4 -2 14q-2 5 -2 13q0 17 15 22q8 2 10 2q8 0 12.5 -6.5t4.5 -17.5q0 -19 -12 -43q-10 -16 -21 -24t-18 -8q-4 0 -5 2t1 5
q17 23 17 41z" />
    <glyph glyph-name="Lacute" unicode="&#x139;" horiz-adv-x="329" 
d="M55 -121q-18 -5 -25 -5q-10 0 -10 11q0 6 3.5 21t5.5 23l6 23q46 181 132.5 363t208.5 371q4 6 30 40q3 3 6 3t4 -2.5t-1 -5.5q-107 -173 -166 -280t-106 -224.5t-94 -282.5q-2 -9 -4.5 -19t-2.5 -13q0 -7 7 -7t37 8q11 2 63 16q77 20 134 26q19 2 55 2q8 0 8 -5
q0 -3 -4 -6.5t-8 -3.5q-49 0 -90.5 -8t-97.5 -23q-50 -13 -69 -17zM456 762q-3 0 -5.5 3.5t-2.5 7.5q0 5 5 10q6 4 19 22l79 100q4 5 8.5 11t10.5 13q1 2 5 2q3 0 6 -3t2 -5l-46 -60l-21 -28l-24 -32l-21 -26q-7 -10 -10 -11q-1 -4 -5 -4z" />
    <glyph glyph-name="lacute" unicode="&#x13a;" horiz-adv-x="175" 
d="M22 14.5q-12 14.5 -12 42.5q0 6 2 20q10 71 52 176q43 106 86 176q49 84 87 130t55 46q10 0 10 -18q0 -24 -17.5 -74t-52.5 -121q-17 -34 -37.5 -67t-56.5 -86q-45 -66 -76 -105l-25 -32q-8 -25 -8 -48q0 -38 30 -38q23 0 57 21t73 60q8 8 14 8q7 0 4 -8q-2 -4 -6 -8
q-43 -44 -80 -66.5t-64 -22.5q-23 0 -35 14.5zM124 247q63 91 92 151q32 64 50 110t18 62q0 8 -5 8q-10 0 -41.5 -42.5t-73.5 -115.5q-43 -71 -84 -171q-30 -76 -37 -117q46 62 81 115zM321 624q-3 0 -5.5 3.5t-2.5 7.5q0 5 5 10q6 4 19 22l79 100q4 5 8.5 11t10.5 13
q1 2 5 2q3 0 6 -3t2 -5l-46 -60l-21 -28l-24 -32l-21 -26q-7 -10 -10 -11q-1 -4 -5 -4z" />
    <glyph glyph-name="Lcommaaccent" unicode="&#x13b;" horiz-adv-x="329" 
d="M55 -121q-18 -5 -25 -5q-10 0 -10 11q0 6 3.5 21t5.5 23l6 23q46 181 132.5 363t208.5 371q4 6 30 40q3 3 6 3t4 -2.5t-1 -5.5q-107 -173 -166 -280t-106 -224.5t-94 -282.5q-2 -9 -4.5 -19t-2.5 -13q0 -7 7 -7t37 8q11 2 63 16q77 20 134 26q19 2 55 2q8 0 8 -5
q0 -3 -4 -6.5t-8 -3.5q-49 0 -90.5 -8t-97.5 -23q-50 -13 -69 -17zM185 -234q0 4 -2 14q-2 5 -2 13q0 17 15 22q8 2 10 2q8 0 12.5 -6.5t4.5 -17.5q0 -19 -12 -43q-10 -16 -21 -24t-18 -8q-4 0 -5 2t1 5q17 23 17 41z" />
    <glyph glyph-name="lcommaaccent" unicode="&#x13c;" horiz-adv-x="175" 
d="M22 14.5q-12 14.5 -12 42.5q0 6 2 20q10 71 52 176q43 106 86 176q49 84 87 130t55 46q10 0 10 -18q0 -24 -17.5 -74t-52.5 -121q-17 -34 -37.5 -67t-56.5 -86q-45 -66 -76 -105l-25 -32q-8 -25 -8 -48q0 -38 30 -38q23 0 57 21t73 60q8 8 14 8q7 0 4 -8q-2 -4 -6 -8
q-43 -44 -80 -66.5t-64 -22.5q-23 0 -35 14.5zM124 247q63 91 92 151q32 64 50 110t18 62q0 8 -5 8q-10 0 -41.5 -42.5t-73.5 -115.5q-43 -71 -84 -171q-30 -76 -37 -117q46 62 81 115zM58 -103q0 4 -2 14q-2 5 -2 13q0 17 15 22q8 2 10 2q8 0 12.5 -6.5t4.5 -17.5
q0 -19 -12 -43q-10 -16 -21 -24t-18 -8q-4 0 -5 2t1 5q17 23 17 41z" />
    <glyph glyph-name="Lcaron" unicode="&#x13d;" horiz-adv-x="329" 
d="M55 -121q-18 -5 -25 -5q-10 0 -10 11q0 6 3.5 21t5.5 23l6 23q46 181 132.5 363t208.5 371q4 6 30 40q3 3 6 3t4 -2.5t-1 -5.5q-107 -173 -166 -280t-106 -224.5t-94 -282.5q-2 -9 -4.5 -19t-2.5 -13q0 -7 7 -7t37 8q11 2 63 16q77 20 134 26q19 2 55 2q8 0 8 -5
q0 -3 -4 -6.5t-8 -3.5q-49 0 -90.5 -8t-97.5 -23q-50 -13 -69 -17zM362.485 509.275q-2.98926 -0.260742 -5.78418 3.00781q-2.7959 3.26855 -3.14453 7.25293q-0.435547 4.98145 4.10938 10.3975q5.62891 4.50781 17.0098 23.5713l69.9805 106.501
q3.54883 5.33008 7.50879 11.6992q3.95898 6.36914 9.32617 13.8643q0.821289 2.08008 4.80664 2.42871q2.98828 0.261719 6.23828 -2.46582q3.25 -2.72656 2.42773 -4.80664l-40.5938 -63.7783l-18.4785 -29.7227l-21.1182 -33.9688l-18.6533 -27.7305
q-6.10156 -10.5713 -9.00293 -11.8291q-0.647461 -4.07129 -4.63184 -4.4209z" />
    <glyph glyph-name="lcaron" unicode="&#x13e;" horiz-adv-x="175" 
d="M22 14.5q-12 14.5 -12 42.5q0 6 2 20q10 71 52 176q43 106 86 176q49 84 87 130t55 46q10 0 10 -18q0 -24 -17.5 -74t-52.5 -121q-17 -34 -37.5 -67t-56.5 -86q-45 -66 -76 -105l-25 -32q-8 -25 -8 -48q0 -38 30 -38q23 0 57 21t73 60q8 8 14 8q7 0 4 -8q-2 -4 -6 -8
q-43 -44 -80 -66.5t-64 -22.5q-23 0 -35 14.5zM124 247q63 91 92 151q32 64 50 110t18 62q0 8 -5 8q-10 0 -41.5 -42.5t-73.5 -115.5q-43 -71 -84 -171q-30 -76 -37 -117q46 62 81 115zM274.706 375.529q-2.89746 -0.776367 -6.21777 1.95703
q-3.32129 2.7334 -4.35645 6.59668q-1.29395 4.8291 2.24121 10.9531q4.75977 5.41699 12.6572 26.167l50.4189 117.038q2.56934 5.86426 5.36328 12.8242q2.79297 6.96094 6.77637 15.2744q0.448242 2.19141 4.31152 3.22656q2.89746 0.776367 6.57227 -1.34473
q3.67383 -2.12109 3.22559 -4.31152l-28.8994 -69.8604l-13.0352 -32.4805l-14.8984 -37.1201l-13.5537 -30.5488q-4.17285 -11.4707 -6.81152 -13.2139q0.0703125 -4.12207 -3.79395 -5.15723z" />
    <glyph glyph-name="Lslash" unicode="&#x141;" horiz-adv-x="329" 
d="M412 729q3 0 4 -2.5t-1 -5.5q-103 -166 -160.5 -269.5t-102.5 -211.5q76 84 99 107q3 3 5 3q4 0 4 -13q0 -4 -2 -6q-37 -37 -123 -134q-42 -107 -86 -263q-2 -9 -4.5 -19t-2.5 -13q0 -7 7 -7t37 8q11 2 63 16q77 20 134 26q19 2 55 2q8 0 8 -5q0 -3 -4 -6.5t-8 -3.5
q-49 0 -90.5 -8t-97.5 -23q-50 -13 -69 -17l-22 -5q-18 -5 -25 -5q-10 0 -10 11q0 6 3.5 21t5.5 23l6 23q25 97 65 205q-18 -21 -53 -65q-6 -8 -16 -26l-10 -17l-7 -8q-2 1 -10 1q0 1 -1 2.5t0 1.5q0 2 1 9t4 12q43 57 54 70l56 64q89 221 258 485q4 6 30 40q3 3 6 3z" />
    <glyph glyph-name="lslash" unicode="&#x142;" horiz-adv-x="175" 
d="M22 14.5q-12 14.5 -12 42.5q0 6 2 20q10 71 52 176q43 106 86 176q49 84 87 130t55 46q10 0 10 -18q0 -24 -17.5 -74t-52.5 -121q-17 -34 -37.5 -67t-56.5 -86q-45 -66 -76 -105l-25 -32q-8 -25 -8 -48q0 -38 30 -38q23 0 57 21t73 60q8 8 14 8q7 0 4 -8q-2 -4 -6 -8
q-43 -44 -80 -66.5t-64 -22.5q-23 0 -35 14.5zM124 247q63 91 92 151q32 64 50 110t18 62q0 8 -5 8q-10 0 -41.5 -42.5t-73.5 -115.5q-43 -71 -84 -171q-30 -76 -37 -117q46 62 81 115zM-3.03125 172.16q0.366211 1.36621 -0.633789 3.09766q-1 1.73242 0.366211 1.36621
q6.75879 14.2939 11.4551 18.1602q46.3633 33.6963 72.71 50.0625q49.2295 30.7324 139.297 82.7324q1.73145 1 4.71387 -0.165039t3.98242 -2.89746l-2.5625 -9.5625q-0.732422 -2.73145 -4.19629 -4.73145q-100.459 -58 -169.84 -103.83
q-11.624 -7.86621 -22.1143 -19.6963l-15.3213 -13.4648l-8.66016 -5z" />
    <glyph glyph-name="Nacute" unicode="&#x143;" horiz-adv-x="556" 
d="M28 -84q-5 0 -7.5 5.5t0.5 13.5q31 124 70 233t96 218q33 63 101 189l63 116q1 3 5.5 6.5t8.5 3.5t4 -4q0 -5 -10 -22l-54 -102q-17 -31 -37.5 -70t-45.5 -85q-39 -72 -72 -152t-70 -183q40 87 103 177t140.5 164.5t157.5 114.5q26 12 42 12q39 0 39 -56t-42 -168
l-13 -34q-38 -96 -56.5 -153.5t-18.5 -94.5q0 -24 10 -37q6 -7 6 -15q0 -10 -8 -10t-17 13q-11 14 -11 43q0 44 22 109t65 172q44 113 44 165q0 44 -31 44q-13 0 -33 -9q-103 -46 -207 -173t-177 -274q-15 -30 -47 -112l-15 -40q-2 -5 -5 -5zM492 676q-3 0 -5.5 3.5
t-2.5 7.5q0 5 5 10q6 4 19 22l79 100q4 5 8.5 11t10.5 13q1 2 5 2q3 0 6 -3t2 -5l-46 -60l-21 -28l-24 -32l-21 -26q-7 -10 -10 -11q-1 -4 -5 -4z" />
    <glyph glyph-name="nacute" unicode="&#x144;" horiz-adv-x="284" 
d="M151 32q0 22 18 78q6 19 11 38t5 30q0 22 -17 22q-19 0 -50 -25.5t-60 -69.5t-44 -95q-6 -9 -14 -9q-9 0 -7 9q9 53 23 95q16 49 44 103q8 14 17 14q3 0 4 -3t-1 -8q-1 -1 -1 -3t-2 -4q-15 -29 -30 -66.5t-19 -56.5q22 47 66.5 90.5t78.5 43.5q31 0 31 -32q0 -21 -19 -78
q-1 -4 -8.5 -28t-7.5 -38q0 -20 18 -20q20 0 51 21t60 57q6 7 12 7q3 0 4.5 -2.5t-0.5 -6.5t-4 -6q-28 -40 -65.5 -65t-63.5 -25q-30 0 -30 33zM146 262q-3 0 -5.5 3.5t-2.5 7.5q0 5 5 10q6 4 19 22l79 100q4 5 8.5 11t10.5 13q1 2 5 2q3 0 6 -3t2 -5l-46 -60l-21 -28
l-24 -32l-21 -26q-7 -10 -10 -11q-1 -4 -5 -4z" />
    <glyph glyph-name="Ncommaaccent" unicode="&#x145;" horiz-adv-x="556" 
d="M28 -84q-5 0 -7.5 5.5t0.5 13.5q31 124 70 233t96 218q33 63 101 189l63 116q1 3 5.5 6.5t8.5 3.5t4 -4q0 -5 -10 -22l-54 -102q-17 -31 -37.5 -70t-45.5 -85q-39 -72 -72 -152t-70 -183q40 87 103 177t140.5 164.5t157.5 114.5q26 12 42 12q39 0 39 -56t-42 -168
l-13 -34q-38 -96 -56.5 -153.5t-18.5 -94.5q0 -24 10 -37q6 -7 6 -15q0 -10 -8 -10t-17 13q-11 14 -11 43q0 44 22 109t65 172q44 113 44 165q0 44 -31 44q-13 0 -33 -9q-103 -46 -207 -173t-177 -274q-15 -30 -47 -112l-15 -40q-2 -5 -5 -5zM262 -96q0 4 -2 14q-2 5 -2 13
q0 17 15 22q8 2 10 2q8 0 12.5 -6.5t4.5 -17.5q0 -19 -12 -43q-10 -16 -21 -24t-18 -8q-4 0 -5 2t1 5q17 23 17 41z" />
    <glyph glyph-name="ncommaaccent" unicode="&#x146;" horiz-adv-x="284" 
d="M151 32q0 22 18 78q6 19 11 38t5 30q0 22 -17 22q-19 0 -50 -25.5t-60 -69.5t-44 -95q-6 -9 -14 -9q-9 0 -7 9q9 53 23 95q16 49 44 103q8 14 17 14q3 0 4 -3t-1 -8q-1 -1 -1 -3t-2 -4q-15 -29 -30 -66.5t-19 -56.5q22 47 66.5 90.5t78.5 43.5q31 0 31 -32q0 -21 -19 -78
q-1 -4 -8.5 -28t-7.5 -38q0 -20 18 -20q20 0 51 21t60 57q6 7 12 7q3 0 4.5 -2.5t-0.5 -6.5t-4 -6q-28 -40 -65.5 -65t-63.5 -25q-30 0 -30 33zM58 -103q0 4 -2 14q-2 5 -2 13q0 17 15 22q8 2 10 2q8 0 12.5 -6.5t4.5 -17.5q0 -19 -12 -43q-10 -16 -21 -24t-18 -8q-4 0 -5 2
t1 5q17 23 17 41z" />
    <glyph glyph-name="Ncaron" unicode="&#x147;" horiz-adv-x="556" 
d="M28 -84q-5 0 -7.5 5.5t0.5 13.5q31 124 70 233t96 218q33 63 101 189l63 116q1 3 5.5 6.5t8.5 3.5t4 -4q0 -5 -10 -22l-54 -102q-17 -31 -37.5 -70t-45.5 -85q-39 -72 -72 -152t-70 -183q40 87 103 177t140.5 164.5t157.5 114.5q26 12 42 12q39 0 39 -56t-42 -168
l-13 -34q-38 -96 -56.5 -153.5t-18.5 -94.5q0 -24 10 -37q6 -7 6 -15q0 -10 -8 -10t-17 13q-11 14 -11 43q0 44 22 109t65 172q44 113 44 165q0 44 -31 44q-13 0 -33 -9q-103 -46 -207 -173t-177 -274q-15 -30 -47 -112l-15 -40q-2 -5 -5 -5zM503 641q-6 18 -8 32l-14 71
l-15 69q9 5 11 -2q6 -12 10 -24l28 -118q1 -4 2 -13t5 -13h4l3 1q50 72 74 108l21 30q10 21 11 24q9 2 9 -4q0 -9 -4 -16q-10 -20 -16 -29l-74 -112q-1 -1 -13 -16q-6 -7 -16 -7t-14 7q-2 2 -4 12z" />
    <glyph glyph-name="ncaron" unicode="&#x148;" horiz-adv-x="284" 
d="M151 32q0 22 18 78q6 19 11 38t5 30q0 22 -17 22q-19 0 -50 -25.5t-60 -69.5t-44 -95q-6 -9 -14 -9q-9 0 -7 9q9 53 23 95q16 49 44 103q8 14 17 14q3 0 4 -3t-1 -8q-1 -1 -1 -3t-2 -4q-15 -29 -30 -66.5t-19 -56.5q22 47 66.5 90.5t78.5 43.5q31 0 31 -32q0 -21 -19 -78
q-1 -4 -8.5 -28t-7.5 -38q0 -20 18 -20q20 0 51 21t60 57q6 7 12 7q3 0 4.5 -2.5t-0.5 -6.5t-4 -6q-28 -40 -65.5 -65t-63.5 -25q-30 0 -30 33zM155 286q-6 18 -8 32l-14 71l-15 69q9 5 11 -2q6 -12 10 -24l28 -118q1 -4 2 -13t5 -13h4l3 1q50 72 74 108l21 30q10 21 11 24
q9 2 9 -4q0 -9 -4 -16q-10 -20 -16 -29l-74 -112q-1 -1 -13 -16q-6 -7 -16 -7t-14 7q-2 2 -4 12z" />
    <glyph glyph-name="Eng" unicode="&#x14a;" horiz-adv-x="536" 
d="M237 -372q0 73 56.5 216.5t148.5 345.5q49 111 57 130q44 113 44 165q0 44 -31 44q-13 0 -33 -9q-103 -46 -207 -173t-177 -274q-15 -30 -47 -112l-15 -40q-2 -5 -5 -5q-5 0 -7.5 5.5t0.5 13.5q31 124 70 233t96 218q33 63 101 189l63 116q1 3 5.5 6.5t8.5 3.5t4 -4
q0 -5 -10 -22l-54 -102q-17 -31 -37.5 -70t-45.5 -85q-39 -72 -72 -152t-70 -183q40 87 103 177t140.5 164.5t157.5 114.5q26 12 42 12q39 0 39 -56t-42 -168q-18 -47 -64 -145q-92 -205 -145.5 -340.5t-53.5 -204.5q0 -25 9 -37q6 -8 6 -15q0 -10 -8 -10t-17 13
q-10 13 -10 40z" />
    <glyph glyph-name="eng" unicode="&#x14b;" horiz-adv-x="274" 
d="M-271.5 -450.5q-13.5 13.5 -13.5 38.5q0 29 19 67q28 55 91 115t141.5 111.5t150.5 81.5q10 23 22 61l21 57q13 35 19.5 57t6.5 37q0 24 -19 24t-50 -25.5t-59.5 -69t-43.5 -94.5q-6 -9 -14 -9q-9 0 -7 9q9 53 23 95q16 49 44 103q8 14 17 14q3 0 4 -3t-1 -8q-1 -1 -1 -3
t-2 -4q-15 -29 -30 -66.5t-19 -56.5q22 47 66.5 90.5t78.5 43.5q32 0 32 -34q0 -19 -7 -41t-21 -62q-3 -7 -16 -44q-14 -42 -23 -63q42 21 81.5 55t69.5 71q6 8 11 8t5 -6q0 -5 -4 -10q-31 -41 -76 -78.5t-94 -62.5q-60 -137 -136.5 -237t-148.5 -146q-46 -29 -81 -29
q-23 0 -36.5 13.5zM-161 -419q67 43 140.5 138.5t127.5 220.5q-66 -29 -140.5 -78.5t-134 -106t-81.5 -105.5q-16 -35 -16 -59q0 -18 9 -27t25 -9q30 0 70 26z" />
    <glyph glyph-name="Omacron" unicode="&#x14c;" horiz-adv-x="510" 
d="M120 -47q-47 0 -73.5 33.5t-26.5 87.5q0 66 37 136q-1 66 19.5 132t55.5 119q82 124 210 182q56 26 106 26q64 0 101 -42t37 -114q0 -34 -9 -73q-22 -93 -85.5 -195t-150.5 -180.5t-176 -104.5q-22 -7 -45 -7zM372 115.5q70 73.5 119 159t68 166.5q8 32 8 67
q0 64 -33 102.5t-92 38.5q-29 0 -57 -8q-47 -13 -91 -43q-64 -43 -114 -104.5t-77 -128t-25 -124.5q24 39 76.5 92.5t89.5 69.5q1 1 4 1q4 0 4 -4.5t-2 -6.5q-40 -24 -90.5 -77t-80.5 -99q-1 -26 2.5 -40.5t7.5 -23t5 -12.5q0 -5 -5 -10t-8 0q-15 30 -18 51
q-12 -21 -19.5 -49t-7.5 -57q0 -47 21 -78t64 -31q41 0 101 32q80 43 150 116.5zM356.5 743q-10.5 5 -10.5 10q0 7 13 7q32 2 89 2q123 0 198 -15l-262 -8q-17 -1 -27.5 4z" />
    <glyph glyph-name="omacron" unicode="&#x14d;" horiz-adv-x="221" 
d="M67 1q-26 0 -42 15.5t-16 44.5q0 23 10 49q18 51 41 82q6 7 12 9t6 -5q17 17 37 26t38 9q25 0 40.5 -15.5t15.5 -44.5q0 -23 -10 -50q-14 -39 -38 -68q42 12 81 45q4 4 7 3.5t3 -3.5q0 -10 -17 -23q-51 -36 -95 -44q-36 -30 -73 -30zM178 116q13 30 13 53q0 22 -11.5 34
t-29.5 12q-25 0 -49.5 -19t-35.5 -50q-6 -18 -6 -36q0 -28 15.5 -45.5t45.5 -17.5q10 0 15 1q24 23 43 68zM58.5 57q-19.5 25 -17.5 59l-5 -10q-10 -24 -10 -45q0 -22 12 -33.5t31 -11.5q21 0 44 14q-35 2 -54.5 27zM47.5 288q-10.5 5 -10.5 10q0 7 13 7q32 2 89 2
q123 0 198 -15l-262 -8q-17 -1 -27.5 4z" />
    <glyph glyph-name="Ohungarumlaut" unicode="&#x150;" horiz-adv-x="510" 
d="M120 -47q-47 0 -73.5 33.5t-26.5 87.5q0 66 37 136q-1 66 19.5 132t55.5 119q82 124 210 182q56 26 106 26q64 0 101 -42t37 -114q0 -34 -9 -73q-22 -93 -85.5 -195t-150.5 -180.5t-176 -104.5q-22 -7 -45 -7zM372 115.5q70 73.5 119 159t68 166.5q8 32 8 67
q0 64 -33 102.5t-92 38.5q-29 0 -57 -8q-47 -13 -91 -43q-64 -43 -114 -104.5t-77 -128t-25 -124.5q24 39 76.5 92.5t89.5 69.5q1 1 4 1q4 0 4 -4.5t-2 -6.5q-40 -24 -90.5 -77t-80.5 -99q-1 -26 2.5 -40.5t7.5 -23t5 -12.5q0 -5 -5 -10t-8 0q-15 30 -18 51
q-12 -21 -19.5 -49t-7.5 -57q0 -47 21 -78t64 -31q41 0 101 32q80 43 150 116.5zM446 722q-3 0 -5.5 3t-2.5 7q0 7 5 11t10 11t9 11l78 100q5 5 10.5 12.5t8.5 11.5q1 2 5 2t7 -3t2 -5l-46 -60q-9 -11 -30 -40l-15 -20l-22 -26q-4 -8 -9 -11q-1 -4 -5 -4zM529 722
q-3 0 -6 3.5t-3 7.5q0 5 5 10q7 5 12 12t7 10l79 100q5 5 10.5 12.5t8.5 11.5q1 2 5 2t7 -3t1 -5l-30 -40l-15 -20q-21 -25 -46 -60q-5 -7 -10.5 -13t-10.5 -13q-7 -10 -9 -11q-1 -4 -5 -4z" />
    <glyph glyph-name="ohungarumlaut" unicode="&#x151;" horiz-adv-x="221" 
d="M67 1q-26 0 -42 15.5t-16 44.5q0 23 10 49q18 51 41 82q6 7 12 9t6 -5q17 17 37 26t38 9q25 0 40.5 -15.5t15.5 -44.5q0 -23 -10 -50q-14 -39 -38 -68q42 12 81 45q4 4 7 3.5t3 -3.5q0 -10 -17 -23q-51 -36 -95 -44q-36 -30 -73 -30zM178 116q13 30 13 53q0 22 -11.5 34
t-29.5 12q-25 0 -49.5 -19t-35.5 -50q-6 -18 -6 -36q0 -28 15.5 -45.5t45.5 -17.5q10 0 15 1q24 23 43 68zM58.5 57q-19.5 25 -17.5 59l-5 -10q-10 -24 -10 -45q0 -22 12 -33.5t31 -11.5q21 0 44 14q-35 2 -54.5 27zM101 265q-3 0 -5.5 3t-2.5 7q0 7 5 11t10 11t9 11l78 100
q5 5 10.5 12.5t8.5 11.5q1 2 5 2t7 -3t2 -5l-46 -60q-9 -11 -30 -40l-15 -20l-22 -26q-4 -8 -9 -11q-1 -4 -5 -4zM184 265q-3 0 -6 3.5t-3 7.5q0 5 5 10q7 5 12 12t7 10l79 100q5 5 10.5 12.5t8.5 11.5q1 2 5 2t7 -3t1 -5l-30 -40l-15 -20q-21 -25 -46 -60q-5 -7 -10.5 -13
t-10.5 -13q-7 -10 -9 -11q-1 -4 -5 -4z" />
    <glyph glyph-name="OE" unicode="&#x152;" horiz-adv-x="882" 
d="M372.5 33q14.5 46 41.5 107q-56 -66 -120 -113.5t-129 -66.5q-22 -7 -45 -7q-47 0 -73.5 33.5t-26.5 87.5q0 66 37 136q-1 66 19.5 132t55.5 119q82 124 210 182q56 26 106 26q56 0 92 -33.5t44 -91.5q16 7 94 37q11 4 45 20q5 2 12 5t11 3q14 -1 31 4t21 6q5 2 22 7
q58 14 174 46q29 9 68 19q6 1 10.5 0t4.5 -4q0 -10 -35 -19l-29 -8q-109 -29 -219 -60q-10 -3 -37.5 -11t-39.5 -20t-42 -51q-81 -103 -167 -245l-21 -35l-8 -13q20 10 80 34l138 51l9 2q5 0 5 -4q0 -3 -5.5 -8.5t-15.5 -8.5l-62 -23q-77 -29 -94 -36t-51 -23
q-18 -9 -28 -26q-54 -96 -71 -173q-4 -17 -4 -34q0 -56 61 -56q50 0 134.5 32t215.5 94q8 4 46 18q3 0 3 -3q0 -7 -9 -13q-290 -148 -400 -148q-68 0 -71 54q-2 33 12.5 79zM428 180q-9 -3 -9 2q0 4 9.5 13.5t23.5 17.5l50 81q41 79 57 147q9 41 8 73l-12 -5q-2 -1 -5 -1
q-5 0 -5 5q0 6 8 13q4 4 13 9q-7 53 -39 83.5t-85 30.5q-29 0 -57 -8q-47 -13 -91 -43q-64 -43 -114 -104.5t-77 -128t-25 -124.5q24 39 76.5 92.5t89.5 69.5q1 1 4 1q4 0 4 -4.5t-2 -6.5q-40 -24 -90.5 -77t-80.5 -99q-1 -26 2.5 -40.5t7.5 -23t5 -12.5q0 -5 -5 -10t-8 0
q-15 30 -18 51q-12 -21 -19.5 -49t-7.5 -57q0 -47 21 -78t64 -31q41 0 101 32q114 61 206 181zM604 448q9 14 40 54l24 33q3 5 14 17.5t12 16.5q-52 -22 -58 -25l-50 -22q1 -37 -9 -82q-8 -31 -18 -59z" />
    <glyph glyph-name="oe" unicode="&#x153;" horiz-adv-x="338" 
d="M67 1q-26 0 -42 15.5t-16 44.5q0 23 10 49q18 51 41 82q6 7 12 9t6 -5q17 17 37 26t38 9q24 0 39.5 -15t15.5 -44q0 -12 -1 -18q24 26 49 43q28 19 50 19q12 0 19.5 -6t7.5 -16q0 -16 -14 -34q-45 -63 -143 -103q-2 -12 -2 -15q0 -27 31 -27t75.5 24.5t72.5 57.5
q6 7 11 7q6 0 6 -6q0 -4 -5 -9q-28 -31 -63 -54q-26 -16 -53 -26t-49 -10q-20 0 -32.5 9.5t-13.5 28.5v8l-14 -14q-36 -30 -73 -30zM164 86.5q5 8.5 14 29.5q13 30 13 53q0 22 -11.5 34t-29.5 12q-25 0 -49.5 -19t-35.5 -50q-5 -17 -5 -26q0 -24 18.5 -37.5t49.5 -13.5
q14 0 22 1q9 8 14 16.5zM249.5 114q31.5 20 54.5 52q1 1 7 10q3 6 3 10q0 12 -15 12q-10 0 -21 -6q-52 -30 -82 -79q-8 -22 -17 -38q39 19 70.5 39zM64 70q-24 16 -23 46l-5 -10q-9 -22 -9 -40q0 -23 12 -36t30 -13q14 0 29.5 9t29.5 26q-40 2 -64 18z" />
    <glyph glyph-name="Racute" unicode="&#x154;" horiz-adv-x="501" 
d="M34.5 -50q-4.5 -5 -8.5 -5q-6 0 -6 9q0 5 3 14q56 224 135 399t195 341q10 12 12 14q7 5 9 5q4 0 -2 -13.5t-18 -30.5q-41 -58 -76.5 -122t-74.5 -143l-16 -38q37 43 93.5 96.5t105.5 89.5q53 37 100 58t85 21q37 0 58.5 -20t21.5 -58q0 -52 -32 -113
q-36 -69 -98.5 -126.5t-136 -92t-141.5 -36.5l-42 1q19 -57 62 -108.5t96 -77.5q8 -4 18 -7.5t17 -7.5v-2q0 -3 -3.5 -6t-6.5 -2q-14 3 -28 9q-61 27 -110 83.5t-70 119.5q-15 2 -32 9t-23 16l-12 -34q-3 -12 -6.5 -22t-6.5 -18q-4 -12 -8.5 -26.5t-9.5 -31.5l-35 -130
q-4 -9 -8.5 -14zM232 216q71 0 141.5 30.5t129.5 84.5t97 122q31 55 31 102q0 34 -19 52.5t-51 18.5q-33 0 -71 -18q-6 -3 -33 -17.5t-50 -30.5q-117 -82 -234 -233q-8 -11 -18.5 -27t-16.5 -27q19 0 31.5 -14.5t25.5 -40.5q24 -2 37 -2zM160 240q-7 10 -14 13t-7 -7
q0 -9 7 -13.5t21 -8.5q0 6 -7 16zM519 747q-3 0 -5.5 3.5t-2.5 7.5q0 5 5 10q6 4 19 22l79 100q4 5 8.5 11t10.5 13q1 2 5 2q3 0 6 -3t2 -5l-46 -60l-21 -28l-24 -32l-21 -26q-7 -10 -10 -11q-1 -4 -5 -4z" />
    <glyph glyph-name="racute" unicode="&#x155;" horiz-adv-x="229" 
d="M-7 10q9 53 23 95q16 49 44 103q8 14 17 14q3 0 4 -3t-1 -8q-1 -1 -1 -3t-2 -4q-15 -29 -30 -66.5t-19 -56.5q26 56 57.5 96.5t63.5 37.5q11 -1 17 -12t12 -33q6 -26 14 -40t25 -14q13 0 28 8q7 4 13 4t6 -4q0 -5 -9 -10q-26 -13 -43 -13q-22 0 -32.5 16.5t-17.5 46.5
q-5 19 -9 27t-11 8q-16 0 -40 -25.5t-48 -69t-40 -94.5q-6 -9 -14 -9q-9 0 -7 9zM133 242q-3 0 -5.5 3.5t-2.5 7.5q0 5 5 10q6 4 19 22l79 100q4 5 8.5 11t10.5 13q1 2 5 2q3 0 6 -3t2 -5l-46 -60l-21 -28l-24 -32l-21 -26q-7 -10 -10 -11q-1 -4 -5 -4z" />
    <glyph glyph-name="Rcommaaccent" unicode="&#x156;" horiz-adv-x="501" 
d="M34.5 -50q-4.5 -5 -8.5 -5q-6 0 -6 9q0 5 3 14q56 224 135 399t195 341q10 12 12 14q7 5 9 5q4 0 -2 -13.5t-18 -30.5q-41 -58 -76.5 -122t-74.5 -143l-16 -38q37 43 93.5 96.5t105.5 89.5q53 37 100 58t85 21q37 0 58.5 -20t21.5 -58q0 -52 -32 -113
q-36 -69 -98.5 -126.5t-136 -92t-141.5 -36.5l-42 1q19 -57 62 -108.5t96 -77.5q8 -4 18 -7.5t17 -7.5v-2q0 -3 -3.5 -6t-6.5 -2q-14 3 -28 9q-61 27 -110 83.5t-70 119.5q-15 2 -32 9t-23 16l-12 -34q-3 -12 -6.5 -22t-6.5 -18q-4 -12 -8.5 -26.5t-9.5 -31.5l-35 -130
q-4 -9 -8.5 -14zM232 216q71 0 141.5 30.5t129.5 84.5t97 122q31 55 31 102q0 34 -19 52.5t-51 18.5q-33 0 -71 -18q-6 -3 -33 -17.5t-50 -30.5q-117 -82 -234 -233q-8 -11 -18.5 -27t-16.5 -27q19 0 31.5 -14.5t25.5 -40.5q24 -2 37 -2zM160 240q-7 10 -14 13t-7 -7
q0 -9 7 -13.5t21 -8.5q0 6 -7 16zM203 -117q0 4 -2 14q-2 5 -2 13q0 17 15 22q8 2 10 2q8 0 12.5 -6.5t4.5 -17.5q0 -19 -12 -43q-10 -16 -21 -24t-18 -8q-4 0 -5 2t1 5q17 23 17 41z" />
    <glyph glyph-name="rcommaaccent" unicode="&#x157;" horiz-adv-x="225" 
d="M-7 10q9 53 23 95q16 49 44 103q8 14 17 14q3 0 4 -3t-1 -8q-1 -1 -1 -3t-2 -4q-15 -29 -30 -66.5t-19 -56.5q26 56 57.5 96.5t63.5 37.5q11 -1 17 -12t12 -33q6 -26 14 -40t25 -14q13 0 28 8q7 4 13 4t6 -4q0 -5 -9 -10q-26 -13 -43 -13q-22 0 -32.5 16.5t-17.5 46.5
q-5 19 -9 27t-11 8q-16 0 -40 -25.5t-48 -69t-40 -94.5q-6 -9 -14 -9q-9 0 -7 9zM88 -72q0 4 -2 14q-2 5 -2 13q0 17 15 22q8 2 10 2q8 0 12.5 -6.5t4.5 -17.5q0 -19 -12 -43q-10 -16 -21 -24t-18 -8q-4 0 -5 2t1 5q17 23 17 41z" />
    <glyph glyph-name="Rcaron" unicode="&#x158;" horiz-adv-x="501" 
d="M34.5 -50q-4.5 -5 -8.5 -5q-6 0 -6 9q0 5 3 14q56 224 135 399t195 341q10 12 12 14q7 5 9 5q4 0 -2 -13.5t-18 -30.5q-41 -58 -76.5 -122t-74.5 -143l-16 -38q37 43 93.5 96.5t105.5 89.5q53 37 100 58t85 21q37 0 58.5 -20t21.5 -58q0 -52 -32 -113
q-36 -69 -98.5 -126.5t-136 -92t-141.5 -36.5l-42 1q19 -57 62 -108.5t96 -77.5q8 -4 18 -7.5t17 -7.5v-2q0 -3 -3.5 -6t-6.5 -2q-14 3 -28 9q-61 27 -110 83.5t-70 119.5q-15 2 -32 9t-23 16l-12 -34q-3 -12 -6.5 -22t-6.5 -18q-4 -12 -8.5 -26.5t-9.5 -31.5l-35 -130
q-4 -9 -8.5 -14zM232 216q71 0 141.5 30.5t129.5 84.5t97 122q31 55 31 102q0 34 -19 52.5t-51 18.5q-33 0 -71 -18q-6 -3 -33 -17.5t-50 -30.5q-117 -82 -234 -233q-8 -11 -18.5 -27t-16.5 -27q19 0 31.5 -14.5t25.5 -40.5q24 -2 37 -2zM160 240q-7 10 -14 13t-7 -7
q0 -9 7 -13.5t21 -8.5q0 6 -7 16zM477 751q-6 18 -8 32l-14 71l-15 69q9 5 11 -2q6 -12 10 -24l28 -118q1 -4 2 -13t5 -13h4l3 1q50 72 74 108l21 30q10 21 11 24q9 2 9 -4q0 -9 -4 -16q-10 -20 -16 -29l-74 -112q-1 -1 -13 -16q-6 -7 -16 -7t-14 7q-2 2 -4 12z" />
    <glyph glyph-name="rcaron" unicode="&#x159;" horiz-adv-x="229" 
d="M-7 10q9 53 23 95q16 49 44 103q8 14 17 14q3 0 4 -3t-1 -8q-1 -1 -1 -3t-2 -4q-15 -29 -30 -66.5t-19 -56.5q26 56 57.5 96.5t63.5 37.5q11 -1 17 -12t12 -33q6 -26 14 -40t25 -14q13 0 28 8q7 4 13 4t6 -4q0 -5 -9 -10q-26 -13 -43 -13q-22 0 -32.5 16.5t-17.5 46.5
q-5 19 -9 27t-11 8q-16 0 -40 -25.5t-48 -69t-40 -94.5q-6 -9 -14 -9q-9 0 -7 9zM136 279q-6 18 -8 32l-14 71l-15 69q9 5 11 -2q6 -12 10 -24l28 -118q1 -4 2 -13t5 -13h4l3 1q50 72 74 108l21 30q10 21 11 24q9 2 9 -4q0 -9 -4 -16q-10 -20 -16 -29l-74 -112
q-1 -1 -13 -16q-6 -7 -16 -7t-14 7q-2 2 -4 12z" />
    <glyph glyph-name="Sacute" unicode="&#x15a;" horiz-adv-x="569" 
d="M223 -112q-16 0 -25 6t-9 16t9 22q21 27 55 47t87 43q-13 114 -154 197q-15 9 -60 33l-40 22q-32 18 -46 31q-20 19 -20 45q0 41 42 90.5t100 92.5q107 78 239 130t234 52q66 0 108 -23q41 -22 53 -57q6 -18 6 -36q0 -44 -33 -87q-13 -18 -25 -30q-67 -73 -184 -138
q-2 -1 -5 -1q-4 0 -4 2q0 3 5 8q51 29 104 72t85 82q38 47 38 87q0 31 -21 55q-24 29 -80 41q-27 6 -60 6q-99 0 -224 -49.5t-228 -127.5q-55 -41 -92 -83.5t-37 -77.5q0 -25 23 -44q14 -12 48 -30l25 -13q60 -34 74 -42q61 -37 102.5 -89t48.5 -109q16 5 67 25l67 24
q5 2 13 2q7 0 7 -4q0 -7 -16 -13q-23 -9 -76 -30.5t-60 -25.5q-2 -44 -36 -75t-81 -43q-13 -3 -24 -3zM328 -38.5q12 14.5 13 37.5q-72 -24 -111 -57q-21 -17 -21 -27t17 -10q15 0 35.5 8t38.5 22q16 12 28 26.5zM624 767q-3 0 -5.5 3.5t-2.5 7.5q0 5 5 10q6 4 19 22l79 100
q4 5 8.5 11t10.5 13q1 2 5 2q3 0 6 -3t2 -5l-46 -60l-21 -28l-24 -32l-21 -26q-7 -10 -10 -11q-1 -4 -5 -4z" />
    <glyph glyph-name="sacute" unicode="&#x15b;" horiz-adv-x="199" 
d="M-56.5 -182.5q-10.5 10.5 -10.5 27.5q0 31 30 70.5t81 66.5q-13 32 -20 57.5t-7 50.5q0 20 6 39q16 44 48.5 70t63.5 26q24 0 39 -16.5t15 -48.5q0 -8 -7 -8q-2 0 -4 2t-2 6q-1 26 -12.5 38.5t-28.5 12.5q-26 0 -53.5 -24t-40.5 -60q-5 -12 -5 -33q0 -23 6 -45.5
t19 -57.5q38 17 80.5 46.5t72.5 59.5q6 6 11 6t5 -5q0 -4 -4 -9q-20 -23 -66.5 -57t-91.5 -58q6 -24 6 -46q0 -37 -16 -64.5t-39.5 -42t-45.5 -14.5q-19 0 -29.5 10.5zM-24 -176q17 0 35.5 12t31.5 35.5t13 53.5q0 19 -6 40q-45 -22 -71.5 -56t-26.5 -60q0 -20 15 -24
q3 -1 9 -1zM135 259q-3 0 -5.5 3.5t-2.5 7.5q0 5 5 10q6 4 19 22l79 100q4 5 8.5 11t10.5 13q1 2 5 2q3 0 6 -3t2 -5l-46 -60l-21 -28l-24 -32l-21 -26q-7 -10 -10 -11q-1 -4 -5 -4z" />
    <glyph glyph-name="Scedilla" unicode="&#x15e;" horiz-adv-x="569" 
d="M223 -112q-16 0 -25 6t-9 16t9 22q21 27 55 47t87 43q-13 114 -154 197q-15 9 -60 33l-40 22q-32 18 -46 31q-20 19 -20 45q0 41 42 90.5t100 92.5q107 78 239 130t234 52q66 0 108 -23q41 -22 53 -57q6 -18 6 -36q0 -44 -33 -87q-13 -18 -25 -30q-67 -73 -184 -138
q-2 -1 -5 -1q-4 0 -4 2q0 3 5 8q51 29 104 72t85 82q38 47 38 87q0 31 -21 55q-24 29 -80 41q-27 6 -60 6q-99 0 -224 -49.5t-228 -127.5q-55 -41 -92 -83.5t-37 -77.5q0 -25 23 -44q14 -12 48 -30l25 -13q60 -34 74 -42q61 -37 102.5 -89t48.5 -109q16 5 67 25l67 24
q5 2 13 2q7 0 7 -4q0 -7 -16 -13q-23 -9 -76 -30.5t-60 -25.5q-2 -44 -36 -75t-81 -43q-13 -3 -24 -3zM328 -38.5q12 14.5 13 37.5q-72 -24 -111 -57q-21 -17 -21 -27t17 -10q15 0 35.5 8t38.5 22q16 12 28 26.5zM90.5 -341q-2.5 5 4.5 5q20 -5 41 -5q38 0 72.5 14.5
t51.5 42.5q11 18 11 35q0 15 -8.5 25t-24.5 14q-12 4 -27 5.5t-20 2.5q-6 1 -9 6t-1 12q19 47 44 82l7 3q1 -2 2.5 -4t0.5 -4l-11 -25q-3 -7 -7 -13.5t-7 -13.5q-11 -22 -11 -29q0 -6 6 -8.5t22 -3.5h4q10 0 24 -4q8 -1 18 -8q22 -15 22 -39q0 -31 -30 -58
q-25 -21 -59.5 -30.5t-71.5 -9.5q-12 0 -32 2q-9 1 -11.5 6z" />
    <glyph glyph-name="scedilla" unicode="&#x15f;" horiz-adv-x="199" 
d="M-56.5 -182.5q-10.5 10.5 -10.5 27.5q0 31 30 70.5t81 66.5q-13 32 -20 57.5t-7 50.5q0 20 6 39q16 44 48.5 70t63.5 26q24 0 39 -16.5t15 -48.5q0 -8 -7 -8q-2 0 -4 2t-2 6q-1 26 -12.5 38.5t-28.5 12.5q-26 0 -53.5 -24t-40.5 -60q-5 -12 -5 -33q0 -23 6 -45.5
t19 -57.5q38 17 80.5 46.5t72.5 59.5q6 6 11 6t5 -5q0 -4 -4 -9q-20 -23 -66.5 -57t-91.5 -58q6 -24 6 -46q0 -37 -16 -64.5t-39.5 -42t-45.5 -14.5q-19 0 -29.5 10.5zM-24 -176q17 0 35.5 12t31.5 35.5t13 53.5q0 19 -6 40q-45 -22 -71.5 -56t-26.5 -60q0 -20 15 -24
q3 -1 9 -1zM-163.5 -419q-2.5 5 4.5 5q20 -5 41 -5q38 0 72.5 14.5t51.5 42.5q11 18 11 35q0 15 -8.5 25t-24.5 14q-12 4 -27 5.5t-20 2.5q-6 1 -9 6t-1 12q19 47 44 82l7 3q1 -2 2.5 -4t0.5 -4l-11 -25q-3 -7 -7 -13.5t-7 -13.5q-11 -22 -11 -29q0 -6 6 -8.5t22 -3.5h4
q10 0 24 -4q8 -1 18 -8q22 -15 22 -39q0 -31 -30 -58q-25 -21 -59.5 -30.5t-71.5 -9.5q-12 0 -32 2q-9 1 -11.5 6z" />
    <glyph glyph-name="Scaron" unicode="&#x160;" horiz-adv-x="569" 
d="M223 -112q-16 0 -25 6t-9 16t9 22q21 27 55 47t87 43q-13 114 -154 197q-15 9 -60 33l-40 22q-32 18 -46 31q-20 19 -20 45q0 41 42 90.5t100 92.5q107 78 239 130t234 52q66 0 108 -23q41 -22 53 -57q6 -18 6 -36q0 -44 -33 -87q-13 -18 -25 -30q-67 -73 -184 -138
q-2 -1 -5 -1q-4 0 -4 2q0 3 5 8q51 29 104 72t85 82q38 47 38 87q0 31 -21 55q-24 29 -80 41q-27 6 -60 6q-99 0 -224 -49.5t-228 -127.5q-55 -41 -92 -83.5t-37 -77.5q0 -25 23 -44q14 -12 48 -30l25 -13q60 -34 74 -42q61 -37 102.5 -89t48.5 -109q16 5 67 25l67 24
q5 2 13 2q7 0 7 -4q0 -7 -16 -13q-23 -9 -76 -30.5t-60 -25.5q-2 -44 -36 -75t-81 -43q-13 -3 -24 -3zM328 -38.5q12 14.5 13 37.5q-72 -24 -111 -57q-21 -17 -21 -27t17 -10q15 0 35.5 8t38.5 22q16 12 28 26.5zM602 775q-6 18 -8 32l-14 71l-15 69q9 5 11 -2q6 -12 10 -24
l28 -118q1 -4 2 -13t5 -13h4l3 1q50 72 74 108l21 30q10 21 11 24q9 2 9 -4q0 -9 -4 -16q-10 -20 -16 -29l-74 -112q-1 -1 -13 -16q-6 -7 -16 -7t-14 7q-2 2 -4 12z" />
    <glyph glyph-name="scaron" unicode="&#x161;" horiz-adv-x="199" 
d="M-56.5 -182.5q-10.5 10.5 -10.5 27.5q0 31 30 70.5t81 66.5q-13 32 -20 57.5t-7 50.5q0 20 6 39q16 44 48.5 70t63.5 26q24 0 39 -16.5t15 -48.5q0 -8 -7 -8q-2 0 -4 2t-2 6q-1 26 -12.5 38.5t-28.5 12.5q-26 0 -53.5 -24t-40.5 -60q-5 -12 -5 -33q0 -23 6 -45.5
t19 -57.5q38 17 80.5 46.5t72.5 59.5q6 6 11 6t5 -5q0 -4 -4 -9q-20 -23 -66.5 -57t-91.5 -58q6 -24 6 -46q0 -37 -16 -64.5t-39.5 -42t-45.5 -14.5q-19 0 -29.5 10.5zM-24 -176q17 0 35.5 12t31.5 35.5t13 53.5q0 19 -6 40q-45 -22 -71.5 -56t-26.5 -60q0 -20 15 -24
q3 -1 9 -1zM123 278q-6 18 -8 32l-14 71l-15 69q9 5 11 -2q6 -12 10 -24l28 -118q1 -4 2 -13t5 -13h4l3 1q50 72 74 108l21 30q10 21 11 24q9 2 9 -4q0 -9 -4 -16q-10 -20 -16 -29l-74 -112q-1 -1 -13 -16q-6 -7 -16 -7t-14 7q-2 2 -4 12z" />
    <glyph glyph-name="uni0162" unicode="&#x162;" horiz-adv-x="415" 
d="M184 -85q-4 0 -7 4.5t-2 10.5q3 22 13 54q18 54 51 130q43 107 57 154q7 22 14 59q2 10 2 28q0 67 -57 102.5t-164 47.5q-71 7 -71 30q0 22 62 53.5t162 64.5q126 42 271 66q58 10 121 18q144 23 152 24q3 1 9 1q12 0 12 -6q0 -3 -5.5 -7t-13.5 -5q-24 -4 -86 -13
q-121 -17 -159 -27q-89 -142 -142 -247q-54 -108 -98 -222.5t-87 -250.5q-2 -6 -6 -20.5t-9 -25.5t-12 -19q-3 -4 -7 -4zM403.5 497q37.5 72 107.5 184q8 12 10 19q-30 0 -120 -21.5t-146 -39.5q-84 -27 -145 -54t-61 -45q0 -7 12 -10t28 -4.5t21 -2.5q186 -21 218 -123
q6 -14 6 -45q32 70 69.5 142zM94.6191 -252.376q-2.92578 4.7627 4.04688 5.37305q20.3594 -3.2373 41.2783 -1.40723q37.8545 3.3125 70.958 20.7637t47.5977 46.8252q9.38867 18.8896 7.90723 35.8242q-1.30762 14.9424 -10.6465 24.1631t-25.626 11.8105
q-12.3027 2.93848 -27.376 3.125q-15.0723 0.1875 -20.1406 0.748047q-6.06445 0.472656 -9.48828 5.19238q-3.4248 4.71875 -2.04199 11.8662q14.8301 48.4756 36.6836 85.5195l6.71191 3.59863q1.16992 -1.90527 2.83887 -3.7666t0.84668 -3.94141l-8.77832 -25.8623
q-2.37891 -7.23438 -5.79688 -14.0576q-3.41797 -6.82422 -5.79688 -14.0586q-9.04004 -22.874 -8.42969 -29.8477q0.523438 -5.97656 6.71777 -7.94434q6.19434 -1.9668 22.2207 -1.56836l3.98438 0.348633q9.96191 0.871094 24.2568 -1.89355
q8.05566 -0.298828 18.6279 -6.40039q23.2227 -13.0244 25.3145 -36.9326q2.70215 -30.8809 -24.8301 -60.3916q-23.0732 -23.0977 -56.6123 -35.5684t-70.3975 -15.6953q-11.9541 -1.0459 -32.0508 -0.796875q-9.05273 0.211914 -11.9795 4.97461z" />
    <glyph glyph-name="uni0163" unicode="&#x163;" horiz-adv-x="175" 
d="M22 14.5q-12 14.5 -12 42.5q0 6 2 20q9 58 40 136t78 162q-86 6 -123 6q-58 0 -96 -8.5t-58 -32.5q-7 -8 -13 -8q-5 0 -5 5q0 7 10 17q24 24 64 32.5t97 8.5q40 0 132 -6q37 65 77 124q4 6 8.5 10t7.5 4q4 0 4 -4q0 -7 -8 -18q-40 -60 -72 -117q63 -5 112 -5
q66 0 110.5 8.5t76.5 35.5q13 11 22 11q4 0 4 -4q0 -3 -3.5 -7.5t-8.5 -8.5q-45 -32 -90.5 -40t-122.5 -8q-35 0 -107 4q-53 -96 -86 -183t-33 -137q0 -38 30 -38q23 0 57 21t73 60q8 8 14 8q7 0 4 -8q-2 -4 -6 -8q-43 -44 -80 -66.5t-64 -22.5q-23 0 -35 14.5zM-84.5 -231
q-2.5 5 4.5 5q20 -5 41 -5q38 0 72.5 14.5t51.5 42.5q11 18 11 35q0 15 -8.5 25t-24.5 14q-12 4 -27 5.5t-20 2.5q-6 1 -9 6t-1 12q19 47 44 82l7 3q1 -2 2.5 -4t0.5 -4l-11 -25q-3 -7 -7 -13.5t-7 -13.5q-11 -22 -11 -29q0 -6 6 -8.5t22 -3.5h4q10 0 24 -4q8 -1 18 -8
q22 -15 22 -39q0 -31 -30 -58q-25 -21 -59.5 -30.5t-71.5 -9.5q-12 0 -32 2q-9 1 -11.5 6z" />
    <glyph glyph-name="Tcaron" unicode="&#x164;" horiz-adv-x="415" 
d="M184 -85q-4 0 -7 4.5t-2 10.5q3 22 13 54q18 54 51 130q43 107 57 154q7 22 14 59q2 10 2 28q0 67 -57 102.5t-164 47.5q-71 7 -71 30q0 22 62 53.5t162 64.5q126 42 271 66q58 10 121 18q144 23 152 24q3 1 9 1q12 0 12 -6q0 -3 -5.5 -7t-13.5 -5q-24 -4 -86 -13
q-121 -17 -159 -27q-89 -142 -142 -247q-54 -108 -98 -222.5t-87 -250.5q-2 -6 -6 -20.5t-9 -25.5t-12 -19q-3 -4 -7 -4zM403.5 497q37.5 72 107.5 184q8 12 10 19q-30 0 -120 -21.5t-146 -39.5q-84 -27 -145 -54t-61 -45q0 -7 12 -10t28 -4.5t21 -2.5q186 -21 218 -123
q6 -14 6 -45q32 70 69.5 142zM547 788q-6 18 -8 32l-14 71l-15 69q9 5 11 -2q6 -12 10 -24l28 -118q1 -4 2 -13t5 -13h4l3 1q50 72 74 108l21 30q10 21 11 24q9 2 9 -4q0 -9 -4 -16q-10 -20 -16 -29l-74 -112q-1 -1 -13 -16q-6 -7 -16 -7t-14 7q-2 2 -4 12z" />
    <glyph glyph-name="tcaron" unicode="&#x165;" horiz-adv-x="175" 
d="M22 14.5q-12 14.5 -12 42.5q0 6 2 20q9 58 40 136t78 162q-86 6 -123 6q-58 0 -96 -8.5t-58 -32.5q-7 -8 -13 -8q-5 0 -5 5q0 7 10 17q24 24 64 32.5t97 8.5q40 0 132 -6q37 65 77 124q4 6 8.5 10t7.5 4q4 0 4 -4q0 -7 -8 -18q-40 -60 -72 -117q63 -5 112 -5
q66 0 110.5 8.5t76.5 35.5q13 11 22 11q4 0 4 -4q0 -3 -3.5 -7.5t-8.5 -8.5q-45 -32 -90.5 -40t-122.5 -8q-35 0 -107 4q-53 -96 -86 -183t-33 -137q0 -38 30 -38q23 0 57 21t73 60q8 8 14 8q7 0 4 -8q-2 -4 -6 -8q-43 -44 -80 -66.5t-64 -22.5q-23 0 -35 14.5zM219 581
q-6 18 -8 32l-14 71l-15 69q9 5 11 -2q6 -12 10 -24l28 -118q1 -4 2 -13t5 -13h4l3 1q50 72 74 108l21 30q10 21 11 24q9 2 9 -4q0 -9 -4 -16q-10 -20 -16 -29l-74 -112q-1 -1 -13 -16q-6 -7 -16 -7t-14 7q-2 2 -4 12z" />
    <glyph glyph-name="Tbar" unicode="&#x166;" horiz-adv-x="415" 
d="M184 -85q-4 0 -7 4.5t-2 10.5q3 22 13 54q18 54 51 130q43 107 57 154q7 22 14 59q2 10 2 28q0 67 -57 102.5t-164 47.5q-71 7 -71 30q0 22 62 53.5t162 64.5q126 42 271 66q58 10 121 18q144 23 152 24q3 1 9 1q12 0 12 -6q0 -3 -5.5 -7t-13.5 -5q-24 -4 -86 -13
q-121 -17 -159 -27q-89 -142 -142 -247q-54 -108 -98 -222.5t-87 -250.5q-2 -6 -6 -20.5t-9 -25.5t-12 -19q-3 -4 -7 -4zM403.5 497q37.5 72 107.5 184q8 12 10 19q-30 0 -120 -21.5t-146 -39.5q-84 -27 -145 -54t-61 -45q0 -7 12 -10t28 -4.5t21 -2.5q186 -21 218 -123
q6 -14 6 -45q32 70 69.5 142zM184 259q1 1 1 3t1 1q13 9 19 10q57 6 88 7q58 2 162 2q2 0 4 -2.5t2 -4.5l-7 -7q-2 -2 -6 -2q-116 0 -199 -5q-14 -1 -29 -6l-20 -4h-10z" />
    <glyph glyph-name="tbar" unicode="&#x167;" horiz-adv-x="175" 
d="M22 14.5q-12 14.5 -12 42.5q0 6 2 20q9 58 40 136t78 162q-86 6 -123 6q-58 0 -96 -8.5t-58 -32.5q-7 -8 -13 -8q-5 0 -5 5q0 7 10 17q24 24 64 32.5t97 8.5q40 0 132 -6q37 65 77 124q4 6 8.5 10t7.5 4q4 0 4 -4q0 -7 -8 -18q-40 -60 -72 -117q63 -5 112 -5
q66 0 110.5 8.5t76.5 35.5q13 11 22 11q4 0 4 -4q0 -3 -3.5 -7.5t-8.5 -8.5q-45 -32 -90.5 -40t-122.5 -8q-35 0 -107 4q-53 -96 -86 -183t-33 -137q0 -38 30 -38q23 0 57 21t73 60q8 8 14 8q7 0 4 -8q-2 -4 -6 -8q-43 -44 -80 -66.5t-64 -22.5q-23 0 -35 14.5zM-31 274
q1 1 1 3t1 1q13 9 19 10q57 6 88 7q58 2 162 2q2 0 4 -2.5t2 -4.5l-7 -7q-2 -2 -6 -2q-116 0 -199 -5q-14 -1 -29 -6l-20 -4h-10z" />
    <glyph glyph-name="Umacron" unicode="&#x16a;" horiz-adv-x="579" 
d="M391.5 -63q-1.5 6 -0.5 16l1 23q1 12 4.5 85.5t14.5 142.5q1 6 7 37t9 42q-59 -86 -129 -166.5t-133 -131t-101 -50.5q-44 0 -44 72q0 73 49.5 225.5t109.5 288.5l53 123q7 13 12 13q4 0 4 -7q0 -6 -2 -9l-94 -231q-41 -101 -77 -224t-36 -176q0 -52 33 -52q32 0 96 54.5
t137.5 140t133.5 173.5q26 79 50.5 137t52.5 96q13 17 23 17q6 0 8.5 -5t0.5 -14q-10 -46 -47 -122t-69 -116q-17 -43 -26 -106q-21 -135 -22 -230q-1 -23 -5.5 -37.5t-8.5 -14.5q-3 0 -4.5 6zM478.5 381.5q2.5 4.5 5.5 10.5q37 69 52 104q9 23 9 28q0 1 -1 1q-2 -1 -6 -7.5
t-9 -17.5q-41 -83 -55 -127q2 4 4.5 8.5zM339.5 710q-10.5 5 -10.5 10q0 7 13 7q32 2 89 2q123 0 198 -15l-262 -8q-17 -1 -27.5 4z" />
    <glyph glyph-name="umacron" unicode="&#x16b;" horiz-adv-x="275" 
d="M31 0q-26 0 -26 37q0 33 19 82.5t49 94.5q8 9 14 9q4 0 5.5 -4.5t-1.5 -9.5q-29 -44 -49 -92.5t-20 -75.5t23 -21q27 7 66.5 50.5t74.5 100.5q5 11 17 31q6 10 14 10t8 -6q0 -5 -4 -9q-25 -42 -42 -83.5t-17 -66.5q0 -28 23 -28q20 0 48.5 23t56.5 55q7 7 11 7q5 0 5 -6
q0 -5 -4 -9q-30 -37 -63 -62.5t-58 -25.5q-38 0 -38 42q0 20 12 58q-28 -39 -59.5 -67t-53.5 -33q-4 -1 -11 -1zM33.5 284q-10.5 5 -10.5 10q0 7 13 7q32 2 89 2q123 0 198 -15l-262 -8q-17 -1 -27.5 4z" />
    <glyph glyph-name="Uring" unicode="&#x16e;" horiz-adv-x="525" 
d="M391.5 -63q-1.5 6 -0.5 16l1 23q1 12 4.5 85.5t14.5 142.5q1 6 7 37t9 42q-59 -86 -129 -166.5t-133 -131t-101 -50.5q-44 0 -44 72q0 73 49.5 225.5t109.5 288.5l53 123q7 13 12 13q4 0 4 -7q0 -6 -2 -9l-94 -231q-41 -101 -77 -224t-36 -176q0 -52 33 -52q32 0 96 54.5
t137.5 140t133.5 173.5q26 79 50.5 137t52.5 96q13 17 23 17q6 0 8.5 -5t0.5 -14q-10 -46 -47 -122t-69 -116q-17 -43 -26 -106q-21 -135 -22 -230q-1 -23 -5.5 -37.5t-8.5 -14.5q-3 0 -4.5 6zM478.5 381.5q2.5 4.5 5.5 10.5q37 69 52 104q9 23 9 28q0 1 -1 1q-2 -1 -6 -7.5
t-9 -17.5q-41 -83 -55 -127q2 4 4.5 8.5zM379 650q-17 19 -17 47q0 24 12.5 48t36.5 39.5t55 15.5q27 0 45 -16.5t18 -45.5q0 -5 -2 -17q-7 -39 -35 -64.5t-64 -25.5q-32 0 -49 19zM482 669.5q22 24.5 26 50.5q1 4 1 12q0 22 -13.5 36t-33.5 14q-35 0 -58 -27t-23 -59
q0 -22 13 -36.5t39 -14.5q27 0 49 24.5z" />
    <glyph glyph-name="uring" unicode="&#x16f;" horiz-adv-x="275" 
d="M31 0q-26 0 -26 37q0 33 19 82.5t49 94.5q8 9 14 9q4 0 5.5 -4.5t-1.5 -9.5q-29 -44 -49 -92.5t-20 -75.5t23 -21q27 7 66.5 50.5t74.5 100.5q5 11 17 31q6 10 14 10t8 -6q0 -5 -4 -9q-25 -42 -42 -83.5t-17 -66.5q0 -28 23 -28q20 0 48.5 23t56.5 55q7 7 11 7q5 0 5 -6
q0 -5 -4 -9q-30 -37 -63 -62.5t-58 -25.5q-38 0 -38 42q0 20 12 58q-28 -39 -59.5 -67t-53.5 -33q-4 -1 -11 -1zM124 290q-17 19 -17 47q0 24 12.5 48t36.5 39.5t55 15.5q27 0 45 -16.5t18 -45.5q0 -5 -2 -17q-7 -39 -35 -64.5t-64 -25.5q-32 0 -49 19zM227 309.5
q22 24.5 26 50.5q1 4 1 12q0 22 -13.5 36t-33.5 14q-35 0 -58 -27t-23 -59q0 -22 13 -36.5t39 -14.5q27 0 49 24.5z" />
    <glyph glyph-name="Uhungarumlaut" unicode="&#x170;" horiz-adv-x="525" 
d="M391.5 -63q-1.5 6 -0.5 16l1 23q1 12 4.5 85.5t14.5 142.5q1 6 7 37t9 42q-59 -86 -129 -166.5t-133 -131t-101 -50.5q-44 0 -44 72q0 73 49.5 225.5t109.5 288.5l53 123q7 13 12 13q4 0 4 -7q0 -6 -2 -9l-94 -231q-41 -101 -77 -224t-36 -176q0 -52 33 -52q32 0 96 54.5
t137.5 140t133.5 173.5q26 79 50.5 137t52.5 96q13 17 23 17q6 0 8.5 -5t0.5 -14q-10 -46 -47 -122t-69 -116q-17 -43 -26 -106q-21 -135 -22 -230q-1 -23 -5.5 -37.5t-8.5 -14.5q-3 0 -4.5 6zM478.5 381.5q2.5 4.5 5.5 10.5q37 69 52 104q9 23 9 28q0 1 -1 1q-2 -1 -6 -7.5
t-9 -17.5q-41 -83 -55 -127q2 4 4.5 8.5zM360 639q-3 0 -5.5 3t-2.5 7q0 7 5 11t10 11t9 11l78 100q5 5 10.5 12.5t8.5 11.5q1 2 5 2t7 -3t2 -5l-46 -60q-9 -11 -30 -40l-15 -20l-22 -26q-4 -8 -9 -11q-1 -4 -5 -4zM443 639q-3 0 -6 3.5t-3 7.5q0 5 5 10q7 5 12 12t7 10
l79 100q5 5 10.5 12.5t8.5 11.5q1 2 5 2t7 -3t1 -5l-30 -40l-15 -20q-21 -25 -46 -60q-5 -7 -10.5 -13t-10.5 -13q-7 -10 -9 -11q-1 -4 -5 -4z" />
    <glyph glyph-name="uhungarumlaut" unicode="&#x171;" horiz-adv-x="275" 
d="M31 0q-26 0 -26 37q0 33 19 82.5t49 94.5q8 9 14 9q4 0 5.5 -4.5t-1.5 -9.5q-29 -44 -49 -92.5t-20 -75.5t23 -21q27 7 66.5 50.5t74.5 100.5q5 11 17 31q6 10 14 10t8 -6q0 -5 -4 -9q-25 -42 -42 -83.5t-17 -66.5q0 -28 23 -28q20 0 48.5 23t56.5 55q7 7 11 7q5 0 5 -6
q0 -5 -4 -9q-30 -37 -63 -62.5t-58 -25.5q-38 0 -38 42q0 20 12 58q-28 -39 -59.5 -67t-53.5 -33q-4 -1 -11 -1zM122 250q-3 0 -5.5 3t-2.5 7q0 7 5 11t10 11t9 11l78 100q5 5 10.5 12.5t8.5 11.5q1 2 5 2t7 -3t2 -5l-46 -60q-9 -11 -30 -40l-15 -20l-22 -26q-4 -8 -9 -11
q-1 -4 -5 -4zM205 250q-3 0 -6 3.5t-3 7.5q0 5 5 10q7 5 12 12t7 10l79 100q5 5 10.5 12.5t8.5 11.5q1 2 5 2t7 -3t1 -5l-30 -40l-15 -20q-21 -25 -46 -60q-5 -7 -10.5 -13t-10.5 -13q-7 -10 -9 -11q-1 -4 -5 -4z" />
    <glyph glyph-name="Uogonek" unicode="&#x172;" horiz-adv-x="525" 
d="M391.5 -63q-1.5 6 -0.5 16l1 23q1 12 4.5 85.5t14.5 142.5q1 6 7 37t9 42q-59 -86 -129 -166.5t-133 -131t-101 -50.5q-44 0 -44 72q0 73 49.5 225.5t109.5 288.5l53 123q7 13 12 13q4 0 4 -7q0 -6 -2 -9l-94 -231q-41 -101 -77 -224t-36 -176q0 -52 33 -52q32 0 96 54.5
t137.5 140t133.5 173.5q26 79 50.5 137t52.5 96q13 17 23 17q6 0 8.5 -5t0.5 -14q-10 -46 -47 -122t-69 -116q-17 -43 -26 -106q-21 -135 -22 -230q-1 -23 -5.5 -37.5t-8.5 -14.5q-3 0 -4.5 6zM478.5 381.5q2.5 4.5 5.5 10.5q37 69 52 104q9 23 9 28q0 1 -1 1q-2 -1 -6 -7.5
t-9 -17.5q-41 -83 -55 -127q2 4 4.5 8.5zM333 -303q-70 0 -70 45q0 16 11 44q40 84 107 150q10 10 18 10q4 0 4 -3q0 -6 -10 -17q-43 -45 -78 -111q-12 -22 -17 -39q-6 -17 -6 -29q0 -21 17.5 -30.5t51.5 -9.5q14 0 54 4q4 1 3 -1.5t-5 -3.5q-54 -9 -80 -9z" />
    <glyph glyph-name="uogonek" unicode="&#x173;" horiz-adv-x="275" 
d="M31 0q-26 0 -26 37q0 33 19 82.5t49 94.5q8 9 14 9q4 0 5.5 -4.5t-1.5 -9.5q-29 -44 -49 -92.5t-20 -75.5t23 -21q27 7 66.5 50.5t74.5 100.5q5 11 17 31q6 10 14 10t8 -6q0 -5 -4 -9q-25 -42 -42 -83.5t-17 -66.5q0 -28 23 -28q20 0 48.5 23t56.5 55q7 7 11 7q5 0 5 -6
q0 -5 -4 -9q-30 -37 -63 -62.5t-58 -25.5q-38 0 -38 42q0 20 12 58q-28 -39 -59.5 -67t-53.5 -33q-4 -1 -11 -1zM140 -228q-70 0 -70 45q0 16 11 44q40 84 107 150q10 10 18 10q4 0 4 -3q0 -6 -10 -17q-43 -45 -78 -111q-12 -22 -17 -39q-6 -17 -6 -29q0 -21 17.5 -30.5
t51.5 -9.5q14 0 54 4q4 1 3 -1.5t-5 -3.5q-54 -9 -80 -9z" />
    <glyph glyph-name="Wcircumflex" unicode="&#x174;" horiz-adv-x="603" 
d="M70 -93q-19 0 -31.5 18.5t-15.5 49.5q-3 27 -3 57q0 191 110 517l9 27q12 36 16 46q5 14 9 14q2 0 2 -6q0 -9 -5 -23q-63 -197 -91 -317t-32 -237q-2 -59 6.5 -95t26.5 -36q31 0 80 97q23 47 46 105l18 40q19 44 35.5 76.5t37.5 62.5q45 64 70 64q28 0 28 -75
q0 -21 -2 -63q-3 -33 -3 -65q0 -36 3 -74q4 -59 32 -59q16 0 38 23t45 65q42 77 100.5 215t90.5 235q3 8 7 8q6 0 6 -9q0 -3 -2 -11q-25 -79 -89 -233t-98 -212q-15 -28 -34 -52q-34 -50 -65 -50q-17 0 -30 18.5t-18 51.5q-4 31 -4 70q0 22 2 62l1 24q2 28 2 41q0 67 -17 67
t-59 -67q-29 -49 -58 -111q-26 -60 -32 -74l-16 -37q-17 -38 -28 -60.5t-28 -44.5q-32 -43 -60 -43zM512 584q-6 12 -10 24l-28 118q-1 4 -2 13t-5 13h-4l-3 -1q-50 -72 -74 -108l-21 -30q-9 -21 -11 -24q-9 -2 -9 4q0 9 4 16q10 20 16 29l74 112q1 1 13 16q8 8 16 8
q9 0 14 -8q2 -2 4 -12q6 -18 8 -32l14 -71l15 -69q-9 -5 -11 2z" />
    <glyph glyph-name="wcircumflex" unicode="&#x175;" horiz-adv-x="280" 
d="M15.5 11.5q-9.5 12.5 -9.5 35.5q0 31 18.5 74t58.5 93q5 5 11 5q5 0 7.5 -3t-1.5 -7q-39 -48 -58 -89.5t-19 -69.5q0 -34 21 -34q17 0 41.5 26.5t47.5 76.5q5 12 14 12q5 0 7.5 -3.5t-0.5 -9.5q-24 -52 -24 -69q0 -15 6 -22.5t16 -7.5q21 0 48 31t46 90t18 138v1
q0 10 7 10q4 0 6.5 -5t2.5 -14q0 -83 -21.5 -144t-52.5 -92.5t-58 -31.5q-17 0 -26.5 12t-8.5 35q-19 -25 -37.5 -37.5t-34.5 -12.5t-25.5 12.5zM255 317q-6 12 -10 24l-28 118q-1 4 -2 13t-5 13h-4l-3 -1q-50 -72 -74 -108l-21 -30q-9 -21 -11 -24q-9 -2 -9 4q0 9 4 16
q10 20 16 29l74 112q1 1 13 16q8 8 16 8q9 0 14 -8q2 -2 4 -12q6 -18 8 -32l14 -71l15 -69q-9 -5 -11 2z" />
    <glyph glyph-name="Ycircumflex" unicode="&#x176;" horiz-adv-x="560" 
d="M80 -170q-28 0 -44 12.5t-16 35.5q0 22 11 45q26 57 88.5 116.5t133.5 97.5q65 36 157 67q32 11 37.5 13.5t13.5 5.5q36 83 70.5 178.5t53.5 174.5q-62 -113 -121 -188t-136 -126q-69 -46 -116 -46q-49 0 -59 52q-4 20 -4 45q0 55 17 117.5t53 167.5l20 57q2 6 6 9.5
t7 3.5q5 0 5 -7q0 -4 -3 -12q-42 -115 -65 -194.5t-23 -140.5q0 -27 6 -48q10 -32 45 -32q43 0 104 42q80 54 143.5 138.5t129.5 207.5q7 10 14 10q5 0 7 -3.5t1 -10.5l-2 -8t-3 -10q-22 -91 -58 -195.5t-70 -177.5l62 13q1 0 2 -1t1 -2q1 -2 -0.5 -5t-3.5 -3q-9 -4 -31 -12
t-40 -13l-26 -51q-54 -106 -151 -205q-51 -53 -105 -84q-62 -34 -111 -34zM270 -55q63 62 103 119t78 135q-66 -19 -116 -39.5t-99 -50.5q-59 -36 -100 -75.5t-79 -95.5q-20 -30 -20 -51q0 -18 13 -27.5t37 -9.5q37 0 92 26q54 32 91 69zM510 693q-6 12 -10 24l-28 118
q-1 4 -2 13t-5 13h-4l-3 -1q-50 -72 -74 -108l-21 -30q-9 -21 -11 -24q-9 -2 -9 4q0 9 4 16q10 20 16 29l74 112q1 1 13 16q8 8 16 8q9 0 14 -8q2 -2 4 -12q6 -18 8 -32l14 -71l15 -69q-9 -5 -11 2z" />
    <glyph glyph-name="ycircumflex" unicode="&#x177;" horiz-adv-x="275" 
d="M-270.5 -450.5q-13.5 13.5 -13.5 38.5q0 29 19 67q28 55 91 115t141.5 111.5t150.5 81.5q11 27 30 80.5t32 97.5v1q-34 -59 -75 -100.5t-72 -41.5q-27 0 -27 39q0 33 18.5 81.5t48.5 93.5q8 9 14 9q4 0 5.5 -4.5t-1.5 -9.5q-28 -44 -48 -91.5t-20 -74.5t22 -23
q57 13 156 190q2 7 7.5 11.5t9.5 4.5q8 0 4 -14q-61 -189 -83 -241q42 21 81.5 55t69.5 71q6 8 11 8t5 -6q0 -5 -4 -10q-31 -41 -76 -78.5t-94 -62.5q-60 -137 -136.5 -237t-148.5 -146q-46 -29 -81 -29q-23 0 -36.5 13.5zM-160 -419q67 43 140.5 138.5t127.5 220.5
q-66 -29 -140.5 -78.5t-134 -106t-81.5 -105.5q-16 -35 -16 -59q0 -18 9 -27t25 -9q30 0 70 26zM229 279q-6 12 -10 24l-28 118q-1 4 -2 13t-5 13h-4l-3 -1q-50 -72 -74 -108l-21 -30q-9 -21 -11 -24q-9 -2 -9 4q0 9 4 16q10 20 16 29l74 112q1 1 13 16q8 8 16 8q9 0 14 -8
q2 -2 4 -12q6 -18 8 -32l14 -71l15 -69q-9 -5 -11 2z" />
    <glyph glyph-name="Ydieresis" unicode="&#x178;" horiz-adv-x="560" 
d="M80 -170q-28 0 -44 12.5t-16 35.5q0 22 11 45q26 57 88.5 116.5t133.5 97.5q65 36 157 67q32 11 37.5 13.5t13.5 5.5q36 83 70.5 178.5t53.5 174.5q-62 -113 -121 -188t-136 -126q-69 -46 -116 -46q-49 0 -59 52q-4 20 -4 45q0 55 17 117.5t53 167.5l20 57q2 6 6 9.5
t7 3.5q5 0 5 -7q0 -4 -3 -12q-42 -115 -65 -194.5t-23 -140.5q0 -27 6 -48q10 -32 45 -32q43 0 104 42q80 54 143.5 138.5t129.5 207.5q7 10 14 10q5 0 7 -3.5t1 -10.5l-2 -8t-3 -10q-22 -91 -58 -195.5t-70 -177.5l62 13q1 0 2 -1t1 -2q1 -2 -0.5 -5t-3.5 -3q-9 -4 -31 -12
t-40 -13l-26 -51q-54 -106 -151 -205q-51 -53 -105 -84q-62 -34 -111 -34zM270 -55q63 62 103 119t78 135q-66 -19 -116 -39.5t-99 -50.5q-59 -36 -100 -75.5t-79 -95.5q-20 -30 -20 -51q0 -18 13 -27.5t37 -9.5q37 0 92 26q54 32 91 69zM356.5 729.5q-10.5 10.5 -10.5 24.5
t10.5 24t24.5 10t24 -10t10 -24t-10 -24.5t-24 -10.5t-24.5 10.5zM476.5 729.5q-10.5 10.5 -10.5 24.5t10.5 24t24.5 10t24 -10t10 -24t-10 -24.5t-24 -10.5t-24.5 10.5z" />
    <glyph glyph-name="Zacute" unicode="&#x179;" horiz-adv-x="662" 
d="M59.5 -113.5q26.5 29.5 71.5 69.5q125 107 360 226q6 24 6 43q0 33 -17 51.5t-49 18.5q-16 -11 -42 -23.5t-48 -20.5q-10 -3 -17 -3q-15 0 -15 9q0 3 4 9q51 53 112 52q21 12 38 23t43 31q105 84 154 147t49 104q0 31 -27 47.5t-73 16.5q-59 0 -136 -26t-149 -73
q-4 -3 -7 -3q-6 0 -6 6q0 5 9 11q84 49 159.5 73.5t132.5 24.5q52 0 81.5 -20t29.5 -57q0 -55 -66.5 -135.5t-203.5 -175.5q64 -16 64 -81q0 -15 -5 -38l27 13q56 27 80 40q7 4 12 4q4 0 4 -4q0 -3 -4 -7.5t-10 -8.5q-10 -6 -46 -24l-67 -36q-26 -68 -61 -118t-95 -103
q-72 -62 -163 -114t-137 -52q-32 0 -32 30q0 10 2 17q11 27 37.5 56.5zM66 -195q31 0 91 30.5t123 76.5t102 87q28 29 59.5 77t41.5 81q-93 -44 -196.5 -109.5t-162.5 -118.5q-32 -28 -57.5 -58t-25.5 -47q0 -19 25 -19zM630 772q-3 0 -5.5 3.5t-2.5 7.5q0 5 5 10q6 4 19 22
l79 100q4 5 8.5 11t10.5 13q1 2 5 2q3 0 6 -3t2 -5l-46 -60l-21 -28l-24 -32l-21 -26q-7 -10 -10 -11q-1 -4 -5 -4z" />
    <glyph glyph-name="zacute" unicode="&#x17a;" horiz-adv-x="297" 
d="M-248.5 -450.5q-13.5 13.5 -13.5 38.5q0 29 19 67q28 55 91 115t141.5 111.5t150.5 81.5q10 35 10 50q0 28 -22 28q-16 0 -42 -13q-8 -3 -11 -3q-10 0 -8 7q0 4 4 9q56 54 78 102q7 15 7 30q0 12 -6 19.5t-16 7.5q-18 0 -45.5 -26.5t-59.5 -82.5q-3 -6 -8 -6
q-4 0 -5.5 4.5t0.5 8.5q34 62 66.5 91t57.5 29q16 0 25.5 -11t9.5 -28q0 -16 -7 -31q-9 -24 -20 -40t-14 -20l-13 -18q-8 -10 -9 -14q12 2 16 2q20 0 30.5 -11.5t10.5 -32.5q0 -17 -8 -43q42 21 81.5 55t69.5 71q6 8 11 8t5 -6q0 -5 -4 -10q-31 -41 -75.5 -78.5t-93.5 -62.5
q-51 -133 -130.5 -234t-155.5 -149q-46 -29 -81 -29q-23 0 -36.5 13.5zM-138 -419q71 46 147 141.5t122 217.5q-66 -29 -140.5 -78.5t-134.5 -106t-82 -105.5q-16 -35 -16 -59q0 -18 9 -27t25 -9q30 0 70 26zM135 284q-3 0 -5.5 3.5t-2.5 7.5q0 5 5 10q6 4 19 22l79 100
q4 5 8.5 11t10.5 13q1 2 5 2q3 0 6 -3t2 -5l-46 -60l-21 -28l-24 -32l-21 -26q-7 -10 -10 -11q-1 -4 -5 -4z" />
    <glyph glyph-name="Zdotaccent" unicode="&#x17b;" horiz-adv-x="628" 
d="M59.5 -113.5q26.5 29.5 71.5 69.5q125 107 360 226q6 24 6 43q0 33 -17 51.5t-49 18.5q-16 -11 -42 -23.5t-48 -20.5q-10 -3 -17 -3q-15 0 -15 9q0 3 4 9q51 53 112 52q21 12 38 23t43 31q105 84 154 147t49 104q0 31 -27 47.5t-73 16.5q-59 0 -136 -26t-149 -73
q-4 -3 -7 -3q-6 0 -6 6q0 5 9 11q84 49 159.5 73.5t132.5 24.5q52 0 81.5 -20t29.5 -57q0 -55 -66.5 -135.5t-203.5 -175.5q64 -16 64 -81q0 -15 -5 -38l27 13q56 27 80 40q7 4 12 4q4 0 4 -4q0 -3 -4 -7.5t-10 -8.5q-10 -6 -46 -24l-67 -36q-26 -68 -61 -118t-95 -103
q-72 -62 -163 -114t-137 -52q-32 0 -32 30q0 10 2 17q11 27 37.5 56.5zM66 -195q31 0 91 30.5t123 76.5t102 87q28 29 59.5 77t41.5 81q-93 -44 -196.5 -109.5t-162.5 -118.5q-32 -28 -57.5 -58t-25.5 -47q0 -19 25 -19zM604.5 769.5q-10.5 10.5 -10.5 24.5t10.5 24t24.5 10
q13 0 23.5 -10t10.5 -24t-10 -24.5t-24 -10.5t-24.5 10.5z" />
    <glyph glyph-name="zdotaccent" unicode="&#x17c;" horiz-adv-x="297" 
d="M-248.5 -450.5q-13.5 13.5 -13.5 38.5q0 29 19 67q28 55 91 115t141.5 111.5t150.5 81.5q10 35 10 50q0 28 -22 28q-16 0 -42 -13q-8 -3 -11 -3q-10 0 -8 7q0 4 4 9q56 54 78 102q7 15 7 30q0 12 -6 19.5t-16 7.5q-18 0 -45.5 -26.5t-59.5 -82.5q-3 -6 -8 -6
q-4 0 -5.5 4.5t0.5 8.5q34 62 66.5 91t57.5 29q16 0 25.5 -11t9.5 -28q0 -16 -7 -31q-9 -24 -20 -40t-14 -20l-13 -18q-8 -10 -9 -14q12 2 16 2q20 0 30.5 -11.5t10.5 -32.5q0 -17 -8 -43q42 21 81.5 55t69.5 71q6 8 11 8t5 -6q0 -5 -4 -10q-31 -41 -75.5 -78.5t-93.5 -62.5
q-51 -133 -130.5 -234t-155.5 -149q-46 -29 -81 -29q-23 0 -36.5 13.5zM-138 -419q71 46 147 141.5t122 217.5q-66 -29 -140.5 -78.5t-134.5 -106t-82 -105.5q-16 -35 -16 -59q0 -18 9 -27t25 -9q30 0 70 26zM164.5 330.5q-10.5 10.5 -10.5 24.5t10.5 24t24.5 10
q13 0 23.5 -10t10.5 -24t-10 -24.5t-24 -10.5t-24.5 10.5z" />
    <glyph glyph-name="Zcaron" unicode="&#x17d;" horiz-adv-x="670" 
d="M59.5 -113.5q26.5 29.5 71.5 69.5q125 107 360 226q6 24 6 43q0 33 -17 51.5t-49 18.5q-16 -11 -42 -23.5t-48 -20.5q-10 -3 -17 -3q-15 0 -15 9q0 3 4 9q51 53 112 52q21 12 38 23t43 31q105 84 154 147t49 104q0 31 -27 47.5t-73 16.5q-59 0 -136 -26t-149 -73
q-4 -3 -7 -3q-6 0 -6 6q0 5 9 11q84 49 159.5 73.5t132.5 24.5q52 0 81.5 -20t29.5 -57q0 -55 -66.5 -135.5t-203.5 -175.5q64 -16 64 -81q0 -15 -5 -38l27 13q56 27 80 40q7 4 12 4q4 0 4 -4q0 -3 -4 -7.5t-10 -8.5q-10 -6 -46 -24l-67 -36q-26 -68 -61 -118t-95 -103
q-72 -62 -163 -114t-137 -52q-32 0 -32 30q0 10 2 17q11 27 37.5 56.5zM66 -195q31 0 91 30.5t123 76.5t102 87q28 29 59.5 77t41.5 81q-93 -44 -196.5 -109.5t-162.5 -118.5q-32 -28 -57.5 -58t-25.5 -47q0 -19 25 -19zM624 780q-6 18 -8 32l-14 71l-15 69q9 5 11 -2
q6 -12 10 -24l28 -118q1 -4 2 -13t5 -13h4l3 1q50 72 74 108l21 30q10 21 11 24q9 2 9 -4q0 -9 -4 -16q-10 -20 -16 -29l-74 -112q-1 -1 -13 -16q-6 -7 -16 -7t-14 7q-2 2 -4 12z" />
    <glyph glyph-name="zcaron" unicode="&#x17e;" horiz-adv-x="297" 
d="M-248.5 -450.5q-13.5 13.5 -13.5 38.5q0 29 19 67q28 55 91 115t141.5 111.5t150.5 81.5q10 35 10 50q0 28 -22 28q-16 0 -42 -13q-8 -3 -11 -3q-10 0 -8 7q0 4 4 9q56 54 78 102q7 15 7 30q0 12 -6 19.5t-16 7.5q-18 0 -45.5 -26.5t-59.5 -82.5q-3 -6 -8 -6
q-4 0 -5.5 4.5t0.5 8.5q34 62 66.5 91t57.5 29q16 0 25.5 -11t9.5 -28q0 -16 -7 -31q-9 -24 -20 -40t-14 -20l-13 -18q-8 -10 -9 -14q12 2 16 2q20 0 30.5 -11.5t10.5 -32.5q0 -17 -8 -43q42 21 81.5 55t69.5 71q6 8 11 8t5 -6q0 -5 -4 -10q-31 -41 -75.5 -78.5t-93.5 -62.5
q-51 -133 -130.5 -234t-155.5 -149q-46 -29 -81 -29q-23 0 -36.5 13.5zM-138 -419q71 46 147 141.5t122 217.5q-66 -29 -140.5 -78.5t-134.5 -106t-82 -105.5q-16 -35 -16 -59q0 -18 9 -27t25 -9q30 0 70 26zM134 284q-6 18 -8 32l-14 71l-15 69q9 5 11 -2q6 -12 10 -24
l28 -118q1 -4 2 -13t5 -13h4l3 1q50 72 74 108l21 30q10 21 11 24q9 2 9 -4q0 -9 -4 -16q-10 -20 -16 -29l-74 -112q-1 -1 -13 -16q-6 -7 -16 -7t-14 7q-2 2 -4 12z" />
    <glyph glyph-name="Scommaaccent" unicode="&#x218;" horiz-adv-x="569" 
d="M223 -112q-16 0 -25 6t-9 16t9 22q21 27 55 47t87 43q-13 114 -154 197q-15 9 -60 33l-40 22q-32 18 -46 31q-20 19 -20 45q0 41 42 90.5t100 92.5q107 78 239 130t234 52q66 0 108 -23q41 -22 53 -57q6 -18 6 -36q0 -44 -33 -87q-13 -18 -25 -30q-67 -73 -184 -138
q-2 -1 -5 -1q-4 0 -4 2q0 3 5 8q51 29 104 72t85 82q38 47 38 87q0 31 -21 55q-24 29 -80 41q-27 6 -60 6q-99 0 -224 -49.5t-228 -127.5q-55 -41 -92 -83.5t-37 -77.5q0 -25 23 -44q14 -12 48 -30l25 -13q60 -34 74 -42q61 -37 102.5 -89t48.5 -109q16 5 67 25l67 24
q5 2 13 2q7 0 7 -4q0 -7 -16 -13q-23 -9 -76 -30.5t-60 -25.5q-2 -44 -36 -75t-81 -43q-13 -3 -24 -3zM328 -38.5q12 14.5 13 37.5q-72 -24 -111 -57q-21 -17 -21 -27t17 -10q15 0 35.5 8t38.5 22q16 12 28 26.5zM240 -223q0 4 -2 14q-2 5 -2 13q0 17 15 22q8 2 10 2
q8 0 12.5 -6.5t4.5 -17.5q0 -19 -12 -43q-10 -16 -21 -24t-18 -8q-4 0 -5 2t1 5q17 23 17 41z" />
    <glyph glyph-name="scommaaccent" unicode="&#x219;" horiz-adv-x="199" 
d="M-56.5 -182.5q-10.5 10.5 -10.5 27.5q0 31 30 70.5t81 66.5q-13 32 -20 57.5t-7 50.5q0 20 6 39q16 44 48.5 70t63.5 26q24 0 39 -16.5t15 -48.5q0 -8 -7 -8q-2 0 -4 2t-2 6q-1 26 -12.5 38.5t-28.5 12.5q-26 0 -53.5 -24t-40.5 -60q-5 -12 -5 -33q0 -23 6 -45.5
t19 -57.5q38 17 80.5 46.5t72.5 59.5q6 6 11 6t5 -5q0 -4 -4 -9q-20 -23 -66.5 -57t-91.5 -58q6 -24 6 -46q0 -37 -16 -64.5t-39.5 -42t-45.5 -14.5q-19 0 -29.5 10.5zM-24 -176q17 0 35.5 12t31.5 35.5t13 53.5q0 19 -6 40q-45 -22 -71.5 -56t-26.5 -60q0 -20 15 -24
q3 -1 9 -1zM-37 -296q0 4 -2 14q-2 5 -2 13q0 17 15 22q8 2 10 2q8 0 12.5 -6.5t4.5 -17.5q0 -19 -12 -43q-10 -16 -21 -24t-18 -8q-4 0 -5 2t1 5q17 23 17 41z" />
    <glyph glyph-name="uni021A" unicode="&#x21a;" horiz-adv-x="415" 
d="M184 -85q-4 0 -7 4.5t-2 10.5q3 22 13 54q18 54 51 130q43 107 57 154q7 22 14 59q2 10 2 28q0 67 -57 102.5t-164 47.5q-71 7 -71 30q0 22 62 53.5t162 64.5q126 42 271 66q58 10 121 18q144 23 152 24q3 1 9 1q12 0 12 -6q0 -3 -5.5 -7t-13.5 -5q-24 -4 -86 -13
q-121 -17 -159 -27q-89 -142 -142 -247q-54 -108 -98 -222.5t-87 -250.5q-2 -6 -6 -20.5t-9 -25.5t-12 -19q-3 -4 -7 -4zM403.5 497q37.5 72 107.5 184q8 12 10 19q-30 0 -120 -21.5t-146 -39.5q-84 -27 -145 -54t-61 -45q0 -7 12 -10t28 -4.5t21 -2.5q186 -21 218 -123
q6 -14 6 -45q32 70 69.5 142zM155 -170q0 4 -2 14q-2 5 -2 13q0 17 15 22q8 2 10 2q8 0 12.5 -6.5t4.5 -17.5q0 -19 -12 -43q-10 -16 -21 -24t-18 -8q-4 0 -5 2t1 5q17 23 17 41z" />
    <glyph glyph-name="uni021B" unicode="&#x21b;" horiz-adv-x="175" 
d="M22 14.5q-12 14.5 -12 42.5q0 6 2 20q9 58 40 136t78 162q-86 6 -123 6q-58 0 -96 -8.5t-58 -32.5q-7 -8 -13 -8q-5 0 -5 5q0 7 10 17q24 24 64 32.5t97 8.5q40 0 132 -6q37 65 77 124q4 6 8.5 10t7.5 4q4 0 4 -4q0 -7 -8 -18q-40 -60 -72 -117q63 -5 112 -5
q66 0 110.5 8.5t76.5 35.5q13 11 22 11q4 0 4 -4q0 -3 -3.5 -7.5t-8.5 -8.5q-45 -32 -90.5 -40t-122.5 -8q-35 0 -107 4q-53 -96 -86 -183t-33 -137q0 -38 30 -38q23 0 57 21t73 60q8 8 14 8q7 0 4 -8q-2 -4 -6 -8q-43 -44 -80 -66.5t-64 -22.5q-23 0 -35 14.5zM55 -104
q0 4 -2 14q-2 5 -2 13q0 17 15 22q8 2 10 2q8 0 12.5 -6.5t4.5 -17.5q0 -19 -12 -43q-10 -16 -21 -24t-18 -8q-4 0 -5 2t1 5q17 23 17 41z" />
    <glyph glyph-name="circumflex" unicode="&#x2c6;" horiz-adv-x="288" 
d="M237 565q-6 12 -10 24l-28 118q-1 4 -2 13t-5 13h-4l-3 -1q-50 -72 -74 -108l-21 -30q-9 -21 -11 -24q-9 -2 -9 4q0 9 4 16q10 20 16 29l74 112q1 1 13 16q8 8 16 8q9 0 14 -8q2 -2 4 -12q6 -18 8 -32l14 -71l15 -69q-9 -5 -11 2z" />
    <glyph glyph-name="caron" unicode="&#x2c7;" horiz-adv-x="288" 
d="M107 581q-6 18 -8 32l-14 71l-15 69q9 5 11 -2q6 -12 10 -24l28 -118q1 -4 2 -13t5 -13h4l3 1q50 72 74 108l21 30q10 21 11 24q9 2 9 -4q0 -9 -4 -16q-10 -20 -16 -29l-74 -112q-1 -1 -13 -16q-6 -7 -16 -7t-14 7q-2 2 -4 12z" />
    <glyph glyph-name="breve" unicode="&#x2d8;" horiz-adv-x="347" 
d="M92 631q0 -25 18 -39t47 -14q43 0 86 29.5t64 83.5q-15 -65 -57.5 -98.5t-91.5 -33.5q-37 0 -62.5 19t-25.5 52q0 11 5 28q10 34 17 34q5 0 5 -16q0 -15 -4 -32q-1 -4 -1 -13z" />
    <glyph glyph-name="dotaccent" unicode="&#x2d9;" horiz-adv-x="179" 
d="M80.5 599.5q-10.5 10.5 -10.5 24.5t10.5 24t24.5 10t24 -10t10 -24t-10 -24.5t-24 -10.5t-24.5 10.5z" />
    <glyph glyph-name="ring" unicode="&#x2da;" horiz-adv-x="293" 
d="M95 587q-17 19 -17 47q0 24 12.5 48t36.5 39.5t55 15.5q27 0 45 -16.5t18 -45.5q0 -5 -2 -17q-7 -39 -35 -64.5t-64 -25.5q-32 0 -49 19zM186 596.5q18 14.5 29 35t11 36.5q0 22 -14 36.5t-34 14.5q-35 0 -58.5 -27.5t-23.5 -59.5q0 -22 13 -36t39 -14q20 0 38 14.5z" />
    <glyph glyph-name="ogonek" unicode="&#x2db;" horiz-adv-x="266" 
d="M140 -239q-70 0 -70 45q0 16 11 44q40 84 107 150q10 10 18 10q4 0 4 -3q0 -6 -10 -17q-43 -45 -78 -111q-12 -22 -17 -39q-6 -17 -6 -29q0 -21 17.5 -30.5t51.5 -9.5q14 0 54 4q4 1 3 -1.5t-5 -3.5q-54 -9 -80 -9z" />
    </font>
</defs>
</svg>
