<svg preserveAspectRatio="xMidYMid meet" data-bbox="52.2 52 320.6 329.4" viewBox="52.2 52 320.6 329.4" xmlns:xlink="http://www.w3.org/1999/xlink" xmlns="http://www.w3.org/2000/svg" data-type="color" role="presentation" aria-hidden="true" aria-label=""><defs><style>#comp-lhy0ylar svg [data-color="1"] {fill: #737373;}</style></defs>
    <g>
        <path d="M212.5 372.6c-88.4 0-160.3-71.9-160.3-160.3S124.1 52 212.5 52s160.3 72 160.3 160.4c0 88.3-71.9 160.2-160.3 160.2zm0-319.5c-87.8 0-159.3 71.5-159.3 159.3s71.5 159.3 159.3 159.3 159.3-71.5 159.3-159.3S300.3 53.1 212.5 53.1z" fill="#D9AE79" data-color="1"></path>
        <defs>
            <path d="M212.5 52.6c88.2 0 159.8 70.5 159.8 157.4s-71.9 162.4-160.1 162.4C124 372.4 52.7 296.9 52.7 210S124.3 52.6 212.5 52.6z" id="54435047-63a2-4d35-bf17-f47615f3fff9_comp-lhy0ylar"></path>
        </defs>
        <clipPath id="b2ee9ce6-24e8-4481-b4cb-5da3c543c829_comp-lhy0ylar">
            <use overflow="visible" xlink:href="#54435047-63a2-4d35-bf17-f47615f3fff9_comp-lhy0ylar"></use>
        </clipPath>
        <g clip-path="url(#b2ee9ce6-24e8-4481-b4cb-5da3c543c829_comp-lhy0ylar)">
            <path d="m212.3 217.9-92.1 31.4v132h71.5V322c0-11.9 9.8-21.6 22-21.6 12.1 0 22 9.7 22 21.6v59.4h69.7v-132l-93.1-31.5zm-49.6 82.3h-20.9v-16.4c0-5.8 4.7-10.5 10.5-10.5s10.5 4.7 10.5 10.5v16.4zm121 0h-20.9v-16.4c0-5.8 4.7-10.5 10.5-10.5s10.5 4.7 10.5 10.5v16.4z" fill="#D9AE79" data-color="1"></path>
        </g>
        <path fill="#D9AE79" clip-rule="evenodd" fill-rule="evenodd" d="M200 93.9h9.1V81.3h6.8l-.1 12.6h9.2v6.7h-9.2V125l-3.3-1.8-3.4 1.8v-24.4H200v-6.7z" data-color="1"></path>
        <path d="m212.6 128.9-44.5 23.9.4 76.5 43.8-13.1 44.5 12.4.1-75.8-44.3-23.9zm10.6 60.4h-20.9v-16.4c0-5.8 4.7-10.5 10.5-10.5s10.5 4.7 10.5 10.5v16.4z" fill="#D9AE79" data-color="1"></path>
    </g>
</svg>